<?xml version="1.0" encoding="UTF-8" standalone="no"?>
<!DOCTYPE svg PUBLIC "-//W3C//DTD SVG 1.1//EN"
 "http://www.w3.org/Graphics/SVG/1.1/DTD/svg11.dtd">
<!-- Generated by graphviz version 2.40.1 (20161225.0304)
 -->
<!-- Title: admins Pages: 1 -->
<svg width="643pt" height="742pt"
 viewBox="0.00 0.00 643.00 742.00" xmlns="http://www.w3.org/2000/svg" xmlns:xlink="http://www.w3.org/1999/xlink">
<g id="graph0" class="graph" transform="scale(1 1) rotate(0) translate(4 738)">
<title>admins</title>
<polygon fill="#ffffff" stroke="transparent" points="-4,4 -4,-738 639,-738 639,4 -4,4"/>
<!-- admins -->
<g id="node1" class="node">
<title>admins</title>
<polygon fill="#efefef" stroke="transparent" points="228,-225.5 228,-260.5 397,-260.5 397,-225.5 228,-225.5"/>
<polygon fill="none" stroke="#000000" points="228,-225.5 228,-260.5 397,-260.5 397,-225.5 228,-225.5"/>
<text text-anchor="start" x="234.8706" y="-238.3" font-family="Arial Bold" font-size="18.00" fill="#000000">admins</text>
<text text-anchor="start" x="292.8756" y="-238.3" font-family="Arial" font-size="14.00" fill="#000000"> </text>
<text text-anchor="start" x="296.7662" y="-238.3" font-family="Arial" font-size="14.00" fill="#666666">[BASE TABLE]</text>
<polygon fill="none" stroke="#000000" points="228,-195.5 228,-225.5 397,-225.5 397,-195.5 228,-195.5"/>
<text text-anchor="start" x="235" y="-206.9" font-family="Arial" font-size="14.00" fill="#000000">id </text>
<text text-anchor="start" x="249.7798" y="-206.9" font-family="Arial" font-size="14.00" fill="#666666">[int unsigned]</text>
<polygon fill="none" stroke="#000000" points="228,-165.5 228,-195.5 397,-195.5 397,-165.5 228,-165.5"/>
<text text-anchor="start" x="235" y="-176.9" font-family="Arial" font-size="14.00" fill="#000000">name </text>
<text text-anchor="start" x="273.899" y="-176.9" font-family="Arial" font-size="14.00" fill="#666666">[varchar(255)]</text>
<polygon fill="none" stroke="#000000" points="228,-135.5 228,-165.5 397,-165.5 397,-135.5 228,-135.5"/>
<text text-anchor="start" x="235" y="-146.9" font-family="Arial" font-size="14.00" fill="#000000">email </text>
<text text-anchor="start" x="272.3296" y="-146.9" font-family="Arial" font-size="14.00" fill="#666666">[varchar(255)]</text>
<polygon fill="none" stroke="#000000" points="228,-105.5 228,-135.5 397,-135.5 397,-105.5 228,-105.5"/>
<text text-anchor="start" x="235" y="-116.9" font-family="Arial" font-size="14.00" fill="#000000">password </text>
<text text-anchor="start" x="298.7882" y="-116.9" font-family="Arial" font-size="14.00" fill="#666666">[varchar(255)]</text>
<polygon fill="none" stroke="#000000" points="228,-75.5 228,-105.5 397,-105.5 397,-75.5 228,-75.5"/>
<text text-anchor="start" x="235" y="-86.9" font-family="Arial" font-size="14.00" fill="#000000">created_at </text>
<text text-anchor="start" x="305.028" y="-86.9" font-family="Arial" font-size="14.00" fill="#666666">[datetime]</text>
<polygon fill="none" stroke="#000000" points="228,-45.5 228,-75.5 397,-75.5 397,-45.5 228,-45.5"/>
<text text-anchor="start" x="235" y="-56.9" font-family="Arial" font-size="14.00" fill="#000000">updated_at </text>
<text text-anchor="start" x="308.9326" y="-56.9" font-family="Arial" font-size="14.00" fill="#666666">[datetime]</text>
<polygon fill="none" stroke="#000000" stroke-width="3" points="226,-44.5 226,-262.5 398,-262.5 398,-44.5 226,-44.5"/>
</g>
<!-- archived_posts -->
<g id="node2" class="node">
<title>archived_posts</title>
<polygon fill="#efefef" stroke="transparent" points="43,-655.5 43,-690.5 275,-690.5 275,-655.5 43,-655.5"/>
<polygon fill="none" stroke="#000000" points="43,-655.5 43,-690.5 275,-690.5 275,-655.5 43,-655.5"/>
<text text-anchor="start" x="49.8571" y="-668.3" font-family="Arial Bold" font-size="18.00" fill="#000000">archived_posts</text>
<text text-anchor="start" x="170.8891" y="-668.3" font-family="Arial" font-size="14.00" fill="#000000"> </text>
<text text-anchor="start" x="174.7797" y="-668.3" font-family="Arial" font-size="14.00" fill="#666666">[BASE TABLE]</text>
<polygon fill="none" stroke="#000000" points="43,-625.5 43,-655.5 275,-655.5 275,-625.5 43,-625.5"/>
<text text-anchor="start" x="50" y="-636.9" font-family="Arial" font-size="14.00" fill="#000000">id </text>
<text text-anchor="start" x="64.7798" y="-636.9" font-family="Arial" font-size="14.00" fill="#666666">[int unsigned]</text>
<polygon fill="none" stroke="#000000" points="43,-595.5 43,-625.5 275,-625.5 275,-595.5 43,-595.5"/>
<text text-anchor="start" x="50" y="-606.9" font-family="Arial" font-size="14.00" fill="#000000">admin_id </text>
<text text-anchor="start" x="110.6774" y="-606.9" font-family="Arial" font-size="14.00" fill="#666666">[int unsigned]</text>
<polygon fill="none" stroke="#000000" points="43,-565.5 43,-595.5 275,-595.5 275,-565.5 43,-565.5"/>
<text text-anchor="start" x="50" y="-576.9" font-family="Arial" font-size="14.00" fill="#000000">category_id </text>
<text text-anchor="start" x="126.244" y="-576.9" font-family="Arial" font-size="14.00" fill="#666666">[int unsigned]</text>
<polygon fill="none" stroke="#000000" points="43,-535.5 43,-565.5 275,-565.5 275,-535.5 43,-535.5"/>
<text text-anchor="start" x="50" y="-546.9" font-family="Arial" font-size="14.00" fill="#000000">title </text>
<text text-anchor="start" x="75.6676" y="-546.9" font-family="Arial" font-size="14.00" fill="#666666">[varchar(255)]</text>
<polygon fill="none" stroke="#000000" points="43,-505.5 43,-535.5 275,-535.5 275,-505.5 43,-505.5"/>
<text text-anchor="start" x="50" y="-516.9" font-family="Arial" font-size="14.00" fill="#000000">md_body </text>
<text text-anchor="start" x="111.4642" y="-516.9" font-family="Arial" font-size="14.00" fill="#666666">[longtext]</text>
<polygon fill="none" stroke="#000000" points="43,-475.5 43,-505.5 275,-505.5 275,-475.5 43,-475.5"/>
<text text-anchor="start" x="50" y="-486.9" font-family="Arial" font-size="14.00" fill="#000000">html_body </text>
<text text-anchor="start" x="118.4614" y="-486.9" font-family="Arial" font-size="14.00" fill="#666666">[longtext]</text>
<polygon fill="none" stroke="#000000" points="43,-445.5 43,-475.5 275,-475.5 275,-445.5 43,-445.5"/>
<text text-anchor="start" x="50" y="-456.9" font-family="Arial" font-size="14.00" fill="#000000">status </text>
<text text-anchor="start" x="91.237" y="-456.9" font-family="Arial" font-size="14.00" fill="#666666">[varchar(255)]</text>
<polygon fill="none" stroke="#000000" points="43,-415.5 43,-445.5 275,-445.5 275,-415.5 43,-415.5"/>
<text text-anchor="start" x="50" y="-426.9" font-family="Arial" font-size="14.00" fill="#000000">created_at </text>
<text text-anchor="start" x="120.028" y="-426.9" font-family="Arial" font-size="14.00" fill="#666666">[datetime]</text>
<polygon fill="none" stroke="#000000" points="43,-385.5 43,-415.5 275,-415.5 275,-385.5 43,-385.5"/>
<text text-anchor="start" x="50" y="-396.9" font-family="Arial" font-size="14.00" fill="#000000">updated_at </text>
<text text-anchor="start" x="123.9326" y="-396.9" font-family="Arial" font-size="14.00" fill="#666666">[datetime]</text>
</g>
<!-- archived_posts&#45;&gt;admins -->
<g id="edge1" class="edge">
<title>archived_posts:admin_id&#45;&gt;admins:id</title>
<path fill="none" stroke="#000000" d="M284.8015,-608.2276C330.4576,-585.1519 299.7213,-393.0754 275,-343 263.3521,-319.4061 239.6479,-330.5939 228,-307 209.0141,-268.5423 185.1111,-210.5 228,-210.5"/>
<polygon fill="#000000" stroke="#000000" points="284.7416,-608.2414 273.9836,-606.1163 279.8708,-609.3707 275,-610.5 275,-610.5 275,-610.5 279.8708,-609.3707 276.0164,-614.8837 284.7416,-608.2414 284.7416,-608.2414"/>
<text text-anchor="start" x="282.167" y="-620.5" font-family="Arial" font-size="10.00" fill="#000000">FOREIGN KEY (admin_id) REFERENCES admins (id)</text>
</g>
<!-- posts -->
<g id="node3" class="node">
<title>posts</title>
<polygon fill="#efefef" stroke="transparent" points="380,-655.5 380,-690.5 553,-690.5 553,-655.5 380,-655.5"/>
<polygon fill="none" stroke="#000000" points="380,-655.5 380,-690.5 553,-690.5 553,-655.5 380,-655.5"/>
<text text-anchor="start" x="396.3658" y="-668.3" font-family="Arial Bold" font-size="18.00" fill="#000000">posts</text>
<text text-anchor="start" x="439.3804" y="-668.3" font-family="Arial" font-size="14.00" fill="#000000"> </text>
<text text-anchor="start" x="443.271" y="-668.3" font-family="Arial" font-size="14.00" fill="#666666">[BASE TABLE]</text>
<polygon fill="none" stroke="#000000" points="380,-625.5 380,-655.5 553,-655.5 553,-625.5 380,-625.5"/>
<text text-anchor="start" x="387" y="-636.9" font-family="Arial" font-size="14.00" fill="#000000">id </text>
<text text-anchor="start" x="401.7798" y="-636.9" font-family="Arial" font-size="14.00" fill="#666666">[int unsigned]</text>
<polygon fill="none" stroke="#000000" points="380,-595.5 380,-625.5 553,-625.5 553,-595.5 380,-595.5"/>
<text text-anchor="start" x="387" y="-606.9" font-family="Arial" font-size="14.00" fill="#000000">admin_id </text>
<text text-anchor="start" x="447.6774" y="-606.9" font-family="Arial" font-size="14.00" fill="#666666">[int unsigned]</text>
<polygon fill="none" stroke="#000000" points="380,-565.5 380,-595.5 553,-595.5 553,-565.5 380,-565.5"/>
<text text-anchor="start" x="386.7511" y="-576.9" font-family="Arial" font-size="14.00" fill="#000000">category_id </text>
<text text-anchor="start" x="462.9951" y="-576.9" font-family="Arial" font-size="14.00" fill="#666666">[int unsigned]</text>
<polygon fill="none" stroke="#000000" points="380,-535.5 380,-565.5 553,-565.5 553,-535.5 380,-535.5"/>
<text text-anchor="start" x="387" y="-546.9" font-family="Arial" font-size="14.00" fill="#000000">title </text>
<text text-anchor="start" x="412.6676" y="-546.9" font-family="Arial" font-size="14.00" fill="#666666">[varchar(255)]</text>
<polygon fill="none" stroke="#000000" points="380,-505.5 380,-535.5 553,-535.5 553,-505.5 380,-505.5"/>
<text text-anchor="start" x="387" y="-516.9" font-family="Arial" font-size="14.00" fill="#000000">md_body </text>
<text text-anchor="start" x="448.4642" y="-516.9" font-family="Arial" font-size="14.00" fill="#666666">[longtext]</text>
<polygon fill="none" stroke="#000000" points="380,-475.5 380,-505.5 553,-505.5 553,-475.5 380,-475.5"/>
<text text-anchor="start" x="387" y="-486.9" font-family="Arial" font-size="14.00" fill="#000000">html_body </text>
<text text-anchor="start" x="455.4614" y="-486.9" font-family="Arial" font-size="14.00" fill="#666666">[longtext]</text>
<polygon fill="none" stroke="#000000" points="380,-445.5 380,-475.5 553,-475.5 553,-445.5 380,-445.5"/>
<text text-anchor="start" x="387" y="-456.9" font-family="Arial" font-size="14.00" fill="#000000">status </text>
<text text-anchor="start" x="428.237" y="-456.9" font-family="Arial" font-size="14.00" fill="#666666">[varchar(255)]</text>
<polygon fill="none" stroke="#000000" points="380,-415.5 380,-445.5 553,-445.5 553,-415.5 380,-415.5"/>
<text text-anchor="start" x="387" y="-426.9" font-family="Arial" font-size="14.00" fill="#000000">created_at </text>
<text text-anchor="start" x="457.028" y="-426.9" font-family="Arial" font-size="14.00" fill="#666666">[datetime]</text>
<polygon fill="none" stroke="#000000" points="380,-385.5 380,-415.5 553,-415.5 553,-385.5 380,-385.5"/>
<text text-anchor="start" x="387" y="-396.9" font-family="Arial" font-size="14.00" fill="#000000">updated_at </text>
<text text-anchor="start" x="460.9326" y="-396.9" font-family="Arial" font-size="14.00" fill="#666666">[datetime]</text>
</g>
<!-- posts&#45;&gt;admins -->
<g id="edge2" class="edge">
<title>posts:admin_id&#45;&gt;admins:id</title>
<path fill="none" stroke="#000000" d="M370.061,-608.1331C326.2297,-584.9048 367.8062,-397.3788 380,-343 383.8716,-325.7345 393.1284,-324.2655 397,-307 406.3843,-265.1504 439.8889,-210.5 397,-210.5"/>
<polygon fill="#000000" stroke="#000000" points="370.272,-608.1833 378.9575,-614.8776 375.136,-609.3416 380,-610.5 380,-610.5 380,-610.5 375.136,-609.3416 381.0425,-606.1224 370.272,-608.1833 370.272,-608.1833"/>
<text text-anchor="start" x="387.167" y="-594.5" font-family="Arial" font-size="10.00" fill="#000000">FOREIGN KEY (admin_id) REFERENCES admins (id)</text>
</g>
</g>
</svg>
