<?xml version="1.0" encoding="UTF-8" standalone="no"?>
<!DOCTYPE svg PUBLIC "-//W3C//DTD SVG 1.1//EN"
 "http://www.w3.org/Graphics/SVG/1.1/DTD/svg11.dtd">
<!-- Generated by graphviz version 2.40.1 (20161225.0304)
 -->
<!-- Title: archived_posts Pages: 1 -->
<svg width="775pt" height="1079pt"
 viewBox="0.00 0.00 775.00 1079.00" xmlns="http://www.w3.org/2000/svg" xmlns:xlink="http://www.w3.org/1999/xlink">
<g id="graph0" class="graph" transform="scale(1 1) rotate(0) translate(4 1075)">
<title>archived_posts</title>
<polygon fill="#ffffff" stroke="transparent" points="-4,4 -4,-1075 771,-1075 771,4 -4,4"/>
<!-- archived_posts -->
<g id="node1" class="node">
<title>archived_posts</title>
<polygon fill="#efefef" stroke="transparent" points="255,-652.5 255,-687.5 487,-687.5 487,-652.5 255,-652.5"/>
<polygon fill="none" stroke="#000000" points="255,-652.5 255,-687.5 487,-687.5 487,-652.5 255,-652.5"/>
<text text-anchor="start" x="261.8571" y="-665.3" font-family="Arial Bold" font-size="18.00" fill="#000000">archived_posts</text>
<text text-anchor="start" x="382.8891" y="-665.3" font-family="Arial" font-size="14.00" fill="#000000"> </text>
<text text-anchor="start" x="386.7797" y="-665.3" font-family="Arial" font-size="14.00" fill="#666666">[BASE TABLE]</text>
<polygon fill="none" stroke="#000000" points="255,-622.5 255,-652.5 487,-652.5 487,-622.5 255,-622.5"/>
<text text-anchor="start" x="262" y="-633.9" font-family="Arial" font-size="14.00" fill="#000000">id </text>
<text text-anchor="start" x="276.7798" y="-633.9" font-family="Arial" font-size="14.00" fill="#666666">[int unsigned]</text>
<polygon fill="none" stroke="#000000" points="255,-592.5 255,-622.5 487,-622.5 487,-592.5 255,-592.5"/>
<text text-anchor="start" x="262" y="-603.9" font-family="Arial" font-size="14.00" fill="#000000">admin_id </text>
<text text-anchor="start" x="322.6774" y="-603.9" font-family="Arial" font-size="14.00" fill="#666666">[int unsigned]</text>
<polygon fill="none" stroke="#000000" points="255,-562.5 255,-592.5 487,-592.5 487,-562.5 255,-562.5"/>
<text text-anchor="start" x="262" y="-573.9" font-family="Arial" font-size="14.00" fill="#000000">category_id </text>
<text text-anchor="start" x="338.244" y="-573.9" font-family="Arial" font-size="14.00" fill="#666666">[int unsigned]</text>
<polygon fill="none" stroke="#000000" points="255,-532.5 255,-562.5 487,-562.5 487,-532.5 255,-532.5"/>
<text text-anchor="start" x="262" y="-543.9" font-family="Arial" font-size="14.00" fill="#000000">title </text>
<text text-anchor="start" x="287.6676" y="-543.9" font-family="Arial" font-size="14.00" fill="#666666">[varchar(255)]</text>
<polygon fill="none" stroke="#000000" points="255,-502.5 255,-532.5 487,-532.5 487,-502.5 255,-502.5"/>
<text text-anchor="start" x="262" y="-513.9" font-family="Arial" font-size="14.00" fill="#000000">md_body </text>
<text text-anchor="start" x="323.4642" y="-513.9" font-family="Arial" font-size="14.00" fill="#666666">[longtext]</text>
<polygon fill="none" stroke="#000000" points="255,-472.5 255,-502.5 487,-502.5 487,-472.5 255,-472.5"/>
<text text-anchor="start" x="262" y="-483.9" font-family="Arial" font-size="14.00" fill="#000000">html_body </text>
<text text-anchor="start" x="330.4614" y="-483.9" font-family="Arial" font-size="14.00" fill="#666666">[longtext]</text>
<polygon fill="none" stroke="#000000" points="255,-442.5 255,-472.5 487,-472.5 487,-442.5 255,-442.5"/>
<text text-anchor="start" x="262" y="-453.9" font-family="Arial" font-size="14.00" fill="#000000">status </text>
<text text-anchor="start" x="303.237" y="-453.9" font-family="Arial" font-size="14.00" fill="#666666">[varchar(255)]</text>
<polygon fill="none" stroke="#000000" points="255,-412.5 255,-442.5 487,-442.5 487,-412.5 255,-412.5"/>
<text text-anchor="start" x="262" y="-423.9" font-family="Arial" font-size="14.00" fill="#000000">created_at </text>
<text text-anchor="start" x="332.028" y="-423.9" font-family="Arial" font-size="14.00" fill="#666666">[datetime]</text>
<polygon fill="none" stroke="#000000" points="255,-382.5 255,-412.5 487,-412.5 487,-382.5 255,-382.5"/>
<text text-anchor="start" x="262" y="-393.9" font-family="Arial" font-size="14.00" fill="#000000">updated_at </text>
<text text-anchor="start" x="335.9326" y="-393.9" font-family="Arial" font-size="14.00" fill="#666666">[datetime]</text>
<polygon fill="none" stroke="#000000" stroke-width="3" points="253.5,-381.5 253.5,-689.5 488.5,-689.5 488.5,-381.5 253.5,-381.5"/>
</g>
<!-- admins -->
<g id="node4" class="node">
<title>admins</title>
<polygon fill="#efefef" stroke="transparent" points="144,-222.5 144,-257.5 313,-257.5 313,-222.5 144,-222.5"/>
<polygon fill="none" stroke="#000000" points="144,-222.5 144,-257.5 313,-257.5 313,-222.5 144,-222.5"/>
<text text-anchor="start" x="150.8706" y="-235.3" font-family="Arial Bold" font-size="18.00" fill="#000000">admins</text>
<text text-anchor="start" x="208.8756" y="-235.3" font-family="Arial" font-size="14.00" fill="#000000"> </text>
<text text-anchor="start" x="212.7662" y="-235.3" font-family="Arial" font-size="14.00" fill="#666666">[BASE TABLE]</text>
<polygon fill="none" stroke="#000000" points="144,-192.5 144,-222.5 313,-222.5 313,-192.5 144,-192.5"/>
<text text-anchor="start" x="151" y="-203.9" font-family="Arial" font-size="14.00" fill="#000000">id </text>
<text text-anchor="start" x="165.7798" y="-203.9" font-family="Arial" font-size="14.00" fill="#666666">[int unsigned]</text>
<polygon fill="none" stroke="#000000" points="144,-162.5 144,-192.5 313,-192.5 313,-162.5 144,-162.5"/>
<text text-anchor="start" x="151" y="-173.9" font-family="Arial" font-size="14.00" fill="#000000">name </text>
<text text-anchor="start" x="189.899" y="-173.9" font-family="Arial" font-size="14.00" fill="#666666">[varchar(255)]</text>
<polygon fill="none" stroke="#000000" points="144,-132.5 144,-162.5 313,-162.5 313,-132.5 144,-132.5"/>
<text text-anchor="start" x="151" y="-143.9" font-family="Arial" font-size="14.00" fill="#000000">email </text>
<text text-anchor="start" x="188.3296" y="-143.9" font-family="Arial" font-size="14.00" fill="#666666">[varchar(255)]</text>
<polygon fill="none" stroke="#000000" points="144,-102.5 144,-132.5 313,-132.5 313,-102.5 144,-102.5"/>
<text text-anchor="start" x="151" y="-113.9" font-family="Arial" font-size="14.00" fill="#000000">password </text>
<text text-anchor="start" x="214.7882" y="-113.9" font-family="Arial" font-size="14.00" fill="#666666">[varchar(255)]</text>
<polygon fill="none" stroke="#000000" points="144,-72.5 144,-102.5 313,-102.5 313,-72.5 144,-72.5"/>
<text text-anchor="start" x="151" y="-83.9" font-family="Arial" font-size="14.00" fill="#000000">created_at </text>
<text text-anchor="start" x="221.028" y="-83.9" font-family="Arial" font-size="14.00" fill="#666666">[datetime]</text>
<polygon fill="none" stroke="#000000" points="144,-42.5 144,-72.5 313,-72.5 313,-42.5 144,-42.5"/>
<text text-anchor="start" x="151" y="-53.9" font-family="Arial" font-size="14.00" fill="#000000">updated_at </text>
<text text-anchor="start" x="224.9326" y="-53.9" font-family="Arial" font-size="14.00" fill="#666666">[datetime]</text>
</g>
<!-- archived_posts&#45;&gt;admins -->
<g id="edge3" class="edge">
<title>archived_posts:admin_id&#45;&gt;admins:id</title>
<path fill="none" stroke="#000000" d="M244.8976,-607.0797C138.3948,-597.8581 198.269,-438.9829 255,-337 269.7489,-310.4865 298.2511,-327.5135 313,-301 333.2012,-264.6851 354.5556,-207.5 313,-207.5"/>
<polygon fill="#000000" stroke="#000000" points="245.0086,-607.0842 254.8129,-611.9961 250.0043,-607.2921 255,-607.5 255,-607.5 255,-607.5 250.0043,-607.2921 255.1871,-603.0039 245.0086,-607.0842 245.0086,-607.0842"/>
<text text-anchor="start" x="7.167" y="-617.5" font-family="Arial" font-size="10.00" fill="#000000">FOREIGN KEY (admin_id) REFERENCES admins (id)</text>
</g>
<!-- categories -->
<g id="node5" class="node">
<title>categories</title>
<polygon fill="#efefef" stroke="transparent" points="417,-192.5 417,-227.5 611,-227.5 611,-192.5 417,-192.5"/>
<polygon fill="none" stroke="#000000" points="417,-192.5 417,-227.5 611,-227.5 611,-192.5 417,-192.5"/>
<text text-anchor="start" x="423.8633" y="-205.3" font-family="Arial Bold" font-size="18.00" fill="#000000">categories</text>
<text text-anchor="start" x="506.8829" y="-205.3" font-family="Arial" font-size="14.00" fill="#000000"> </text>
<text text-anchor="start" x="510.7735" y="-205.3" font-family="Arial" font-size="14.00" fill="#666666">[BASE TABLE]</text>
<polygon fill="none" stroke="#000000" points="417,-162.5 417,-192.5 611,-192.5 611,-162.5 417,-162.5"/>
<text text-anchor="start" x="424" y="-173.9" font-family="Arial" font-size="14.00" fill="#000000">id </text>
<text text-anchor="start" x="438.7798" y="-173.9" font-family="Arial" font-size="14.00" fill="#666666">[int unsigned]</text>
<polygon fill="none" stroke="#000000" points="417,-132.5 417,-162.5 611,-162.5 611,-132.5 417,-132.5"/>
<text text-anchor="start" x="424" y="-143.9" font-family="Arial" font-size="14.00" fill="#000000">name </text>
<text text-anchor="start" x="462.899" y="-143.9" font-family="Arial" font-size="14.00" fill="#666666">[varchar(255)]</text>
<polygon fill="none" stroke="#000000" points="417,-102.5 417,-132.5 611,-132.5 611,-102.5 417,-102.5"/>
<text text-anchor="start" x="424" y="-113.9" font-family="Arial" font-size="14.00" fill="#000000">created_at </text>
<text text-anchor="start" x="494.028" y="-113.9" font-family="Arial" font-size="14.00" fill="#666666">[datetime]</text>
<polygon fill="none" stroke="#000000" points="417,-72.5 417,-102.5 611,-102.5 611,-72.5 417,-72.5"/>
<text text-anchor="start" x="424" y="-83.9" font-family="Arial" font-size="14.00" fill="#000000">updated_at </text>
<text text-anchor="start" x="497.9326" y="-83.9" font-family="Arial" font-size="14.00" fill="#666666">[datetime]</text>
</g>
<!-- archived_posts&#45;&gt;categories -->
<g id="edge4" class="edge">
<title>archived_posts:category_id&#45;&gt;categories:id</title>
<path fill="none" stroke="#000000" d="M497.0873,-577.036C589.6277,-568.0952 527.9457,-431.8819 487,-337 470.0578,-297.7405 433.9422,-310.2595 417,-271 400.5347,-232.8456 375.4444,-177.5 417,-177.5"/>
<polygon fill="#000000" stroke="#000000" points="496.9894,-577.0404 486.7932,-573.0048 491.9947,-577.2702 487,-577.5 487,-577.5 487,-577.5 491.9947,-577.2702 487.2068,-581.9952 496.9894,-577.0404 496.9894,-577.0404"/>
<text text-anchor="start" x="493.659" y="-587.5" font-family="Arial" font-size="10.00" fill="#000000">FOREIGN KEY (category_id) REFERENCES categories (id)</text>
</g>
<!-- archived_comments -->
<g id="node2" class="node">
<title>archived_comments</title>
<polygon fill="#efefef" stroke="transparent" points="51,-992.5 51,-1027.5 323,-1027.5 323,-992.5 51,-992.5"/>
<polygon fill="none" stroke="#000000" points="51,-992.5 51,-1027.5 323,-1027.5 323,-992.5 51,-992.5"/>
<text text-anchor="start" x="57.8618" y="-1005.3" font-family="Arial Bold" font-size="18.00" fill="#000000">archived_comments</text>
<text text-anchor="start" x="218.8844" y="-1005.3" font-family="Arial" font-size="14.00" fill="#000000"> </text>
<text text-anchor="start" x="222.775" y="-1005.3" font-family="Arial" font-size="14.00" fill="#666666">[BASE TABLE]</text>
<polygon fill="none" stroke="#000000" points="51,-962.5 51,-992.5 323,-992.5 323,-962.5 51,-962.5"/>
<text text-anchor="start" x="58" y="-973.9" font-family="Arial" font-size="14.00" fill="#000000">id </text>
<text text-anchor="start" x="72.7798" y="-973.9" font-family="Arial" font-size="14.00" fill="#666666">[int unsigned]</text>
<polygon fill="none" stroke="#000000" points="51,-932.5 51,-962.5 323,-962.5 323,-932.5 51,-932.5"/>
<text text-anchor="start" x="58" y="-943.9" font-family="Arial" font-size="14.00" fill="#000000">archived_post_id </text>
<text text-anchor="start" x="167.6984" y="-943.9" font-family="Arial" font-size="14.00" fill="#666666">[int unsigned]</text>
<polygon fill="none" stroke="#000000" points="51,-902.5 51,-932.5 323,-932.5 323,-902.5 51,-902.5"/>
<text text-anchor="start" x="58" y="-913.9" font-family="Arial" font-size="14.00" fill="#000000">body </text>
<text text-anchor="start" x="92.2384" y="-913.9" font-family="Arial" font-size="14.00" fill="#666666">[longtext]</text>
<polygon fill="none" stroke="#000000" points="51,-872.5 51,-902.5 323,-902.5 323,-872.5 51,-872.5"/>
<text text-anchor="start" x="58" y="-883.9" font-family="Arial" font-size="14.00" fill="#000000">status </text>
<text text-anchor="start" x="99.237" y="-883.9" font-family="Arial" font-size="14.00" fill="#666666">[varchar(255)]</text>
<polygon fill="none" stroke="#000000" points="51,-842.5 51,-872.5 323,-872.5 323,-842.5 51,-842.5"/>
<text text-anchor="start" x="58" y="-853.9" font-family="Arial" font-size="14.00" fill="#000000">created_at </text>
<text text-anchor="start" x="128.028" y="-853.9" font-family="Arial" font-size="14.00" fill="#666666">[datetime]</text>
<polygon fill="none" stroke="#000000" points="51,-812.5 51,-842.5 323,-842.5 323,-812.5 51,-812.5"/>
<text text-anchor="start" x="58" y="-823.9" font-family="Arial" font-size="14.00" fill="#000000">updated_at </text>
<text text-anchor="start" x="131.9326" y="-823.9" font-family="Arial" font-size="14.00" fill="#666666">[datetime]</text>
</g>
<!-- archived_comments&#45;&gt;archived_posts -->
<g id="edge1" class="edge">
<title>archived_comments:archived_post_id&#45;&gt;archived_posts:id</title>
<path fill="none" stroke="#000000" d="M333.3337,-946.7911C398.3024,-937.2884 361.784,-834.4165 323,-770 305.3614,-740.7039 272.6386,-763.2961 255,-734 232.8776,-697.2569 212.1111,-637.5 255,-637.5"/>
<polygon fill="#000000" stroke="#000000" points="332.9766,-946.8156 322.692,-943.0106 327.9883,-947.1578 323,-947.5 323,-947.5 323,-947.5 327.9883,-947.1578 323.308,-951.9894 332.9766,-946.8156 332.9766,-946.8156"/>
<text text-anchor="start" x="330.152" y="-957.5" font-family="Arial" font-size="10.00" fill="#000000">FOREIGN KEY (archived_post_id) REFERENCES archived_posts (id)</text>
</g>
<!-- archived_tag_post -->
<g id="node3" class="node">
<title>archived_tag_post</title>
<polygon fill="#efefef" stroke="transparent" points="427,-977.5 427,-1012.5 685,-1012.5 685,-977.5 427,-977.5"/>
<polygon fill="none" stroke="#000000" points="427,-977.5 427,-1012.5 685,-1012.5 685,-977.5 427,-977.5"/>
<text text-anchor="start" x="433.8467" y="-990.3" font-family="Arial Bold" font-size="18.00" fill="#000000">archived_tag_post</text>
<text text-anchor="start" x="580.8995" y="-990.3" font-family="Arial" font-size="14.00" fill="#000000"> </text>
<text text-anchor="start" x="584.7901" y="-990.3" font-family="Arial" font-size="14.00" fill="#666666">[BASE TABLE]</text>
<polygon fill="none" stroke="#000000" points="427,-947.5 427,-977.5 685,-977.5 685,-947.5 427,-947.5"/>
<text text-anchor="start" x="434" y="-958.9" font-family="Arial" font-size="14.00" fill="#000000">id </text>
<text text-anchor="start" x="448.7798" y="-958.9" font-family="Arial" font-size="14.00" fill="#666666">[int unsigned]</text>
<polygon fill="none" stroke="#000000" points="427,-917.5 427,-947.5 685,-947.5 685,-917.5 427,-917.5"/>
<text text-anchor="start" x="434" y="-928.9" font-family="Arial" font-size="14.00" fill="#000000">tag_id </text>
<text text-anchor="start" x="476.0182" y="-928.9" font-family="Arial" font-size="14.00" fill="#666666">[int unsigned]</text>
<polygon fill="none" stroke="#000000" points="427,-887.5 427,-917.5 685,-917.5 685,-887.5 427,-887.5"/>
<text text-anchor="start" x="434" y="-898.9" font-family="Arial" font-size="14.00" fill="#000000">archived_post_id </text>
<text text-anchor="start" x="543.6984" y="-898.9" font-family="Arial" font-size="14.00" fill="#666666">[int unsigned]</text>
<polygon fill="none" stroke="#000000" points="427,-857.5 427,-887.5 685,-887.5 685,-857.5 427,-857.5"/>
<text text-anchor="start" x="434" y="-868.9" font-family="Arial" font-size="14.00" fill="#000000">created_at </text>
<text text-anchor="start" x="504.028" y="-868.9" font-family="Arial" font-size="14.00" fill="#666666">[datetime]</text>
<polygon fill="none" stroke="#000000" points="427,-827.5 427,-857.5 685,-857.5 685,-827.5 427,-827.5"/>
<text text-anchor="start" x="434" y="-838.9" font-family="Arial" font-size="14.00" fill="#000000">updated_at </text>
<text text-anchor="start" x="507.9326" y="-838.9" font-family="Arial" font-size="14.00" fill="#666666">[datetime]</text>
</g>
<!-- archived_tag_post&#45;&gt;archived_posts -->
<g id="edge2" class="edge">
<title>archived_tag_post:archived_post_id&#45;&gt;archived_posts:id</title>
<path fill="none" stroke="#000000" d="M416.699,-901.3795C379.2297,-892.2195 406.7074,-828.8815 427,-785 441.69,-753.2338 472.31,-765.7662 487,-734 505.0019,-695.072 529.8889,-637.5 487,-637.5"/>
<polygon fill="#000000" stroke="#000000" points="417.0586,-901.4185 426.5133,-906.9736 422.0293,-901.9593 427,-902.5 427,-902.5 427,-902.5 422.0293,-901.9593 427.4867,-898.0264 417.0586,-901.4185 417.0586,-901.4185"/>
<text text-anchor="start" x="434.152" y="-912.5" font-family="Arial" font-size="10.00" fill="#000000">FOREIGN KEY (archived_post_id) REFERENCES archived_posts (id)</text>
</g>
</g>
</svg>
