<?xml version="1.0" encoding="UTF-8" standalone="no"?>
<!DOCTYPE svg PUBLIC "-//W3C//DTD SVG 1.1//EN"
 "http://www.w3.org/Graphics/SVG/1.1/DTD/svg11.dtd">
<!-- Generated by graphviz version 2.40.1 (20161225.0304)
 -->
<!-- Title: categories Pages: 1 -->
<svg width="668pt" height="682pt"
 viewBox="0.00 0.00 668.00 682.00" xmlns="http://www.w3.org/2000/svg" xmlns:xlink="http://www.w3.org/1999/xlink">
<g id="graph0" class="graph" transform="scale(1 1) rotate(0) translate(4 678)">
<title>categories</title>
<polygon fill="#ffffff" stroke="transparent" points="-4,4 -4,-678 664,-678 664,4 -4,4"/>
<!-- categories -->
<g id="node1" class="node">
<title>categories</title>
<polygon fill="#efefef" stroke="transparent" points="216,-165.5 216,-200.5 410,-200.5 410,-165.5 216,-165.5"/>
<polygon fill="none" stroke="#000000" points="216,-165.5 216,-200.5 410,-200.5 410,-165.5 216,-165.5"/>
<text text-anchor="start" x="222.8633" y="-178.3" font-family="Arial Bold" font-size="18.00" fill="#000000">categories</text>
<text text-anchor="start" x="305.8829" y="-178.3" font-family="Arial" font-size="14.00" fill="#000000"> </text>
<text text-anchor="start" x="309.7735" y="-178.3" font-family="Arial" font-size="14.00" fill="#666666">[BASE TABLE]</text>
<polygon fill="none" stroke="#000000" points="216,-135.5 216,-165.5 410,-165.5 410,-135.5 216,-135.5"/>
<text text-anchor="start" x="223" y="-146.9" font-family="Arial" font-size="14.00" fill="#000000">id </text>
<text text-anchor="start" x="237.7798" y="-146.9" font-family="Arial" font-size="14.00" fill="#666666">[int unsigned]</text>
<polygon fill="none" stroke="#000000" points="216,-105.5 216,-135.5 410,-135.5 410,-105.5 216,-105.5"/>
<text text-anchor="start" x="223" y="-116.9" font-family="Arial" font-size="14.00" fill="#000000">name </text>
<text text-anchor="start" x="261.899" y="-116.9" font-family="Arial" font-size="14.00" fill="#666666">[varchar(255)]</text>
<polygon fill="none" stroke="#000000" points="216,-75.5 216,-105.5 410,-105.5 410,-75.5 216,-75.5"/>
<text text-anchor="start" x="223" y="-86.9" font-family="Arial" font-size="14.00" fill="#000000">created_at </text>
<text text-anchor="start" x="293.028" y="-86.9" font-family="Arial" font-size="14.00" fill="#666666">[datetime]</text>
<polygon fill="none" stroke="#000000" points="216,-45.5 216,-75.5 410,-75.5 410,-45.5 216,-45.5"/>
<text text-anchor="start" x="223" y="-56.9" font-family="Arial" font-size="14.00" fill="#000000">updated_at </text>
<text text-anchor="start" x="296.9326" y="-56.9" font-family="Arial" font-size="14.00" fill="#666666">[datetime]</text>
<polygon fill="none" stroke="#000000" stroke-width="3" points="214.5,-44.5 214.5,-202.5 411.5,-202.5 411.5,-44.5 214.5,-44.5"/>
</g>
<!-- archived_posts -->
<g id="node2" class="node">
<title>archived_posts</title>
<polygon fill="#efefef" stroke="transparent" points="43,-595.5 43,-630.5 275,-630.5 275,-595.5 43,-595.5"/>
<polygon fill="none" stroke="#000000" points="43,-595.5 43,-630.5 275,-630.5 275,-595.5 43,-595.5"/>
<text text-anchor="start" x="49.8571" y="-608.3" font-family="Arial Bold" font-size="18.00" fill="#000000">archived_posts</text>
<text text-anchor="start" x="170.8891" y="-608.3" font-family="Arial" font-size="14.00" fill="#000000"> </text>
<text text-anchor="start" x="174.7797" y="-608.3" font-family="Arial" font-size="14.00" fill="#666666">[BASE TABLE]</text>
<polygon fill="none" stroke="#000000" points="43,-565.5 43,-595.5 275,-595.5 275,-565.5 43,-565.5"/>
<text text-anchor="start" x="50" y="-576.9" font-family="Arial" font-size="14.00" fill="#000000">id </text>
<text text-anchor="start" x="64.7798" y="-576.9" font-family="Arial" font-size="14.00" fill="#666666">[int unsigned]</text>
<polygon fill="none" stroke="#000000" points="43,-535.5 43,-565.5 275,-565.5 275,-535.5 43,-535.5"/>
<text text-anchor="start" x="50" y="-546.9" font-family="Arial" font-size="14.00" fill="#000000">admin_id </text>
<text text-anchor="start" x="110.6774" y="-546.9" font-family="Arial" font-size="14.00" fill="#666666">[int unsigned]</text>
<polygon fill="none" stroke="#000000" points="43,-505.5 43,-535.5 275,-535.5 275,-505.5 43,-505.5"/>
<text text-anchor="start" x="50" y="-516.9" font-family="Arial" font-size="14.00" fill="#000000">category_id </text>
<text text-anchor="start" x="126.244" y="-516.9" font-family="Arial" font-size="14.00" fill="#666666">[int unsigned]</text>
<polygon fill="none" stroke="#000000" points="43,-475.5 43,-505.5 275,-505.5 275,-475.5 43,-475.5"/>
<text text-anchor="start" x="50" y="-486.9" font-family="Arial" font-size="14.00" fill="#000000">title </text>
<text text-anchor="start" x="75.6676" y="-486.9" font-family="Arial" font-size="14.00" fill="#666666">[varchar(255)]</text>
<polygon fill="none" stroke="#000000" points="43,-445.5 43,-475.5 275,-475.5 275,-445.5 43,-445.5"/>
<text text-anchor="start" x="50" y="-456.9" font-family="Arial" font-size="14.00" fill="#000000">md_body </text>
<text text-anchor="start" x="111.4642" y="-456.9" font-family="Arial" font-size="14.00" fill="#666666">[longtext]</text>
<polygon fill="none" stroke="#000000" points="43,-415.5 43,-445.5 275,-445.5 275,-415.5 43,-415.5"/>
<text text-anchor="start" x="50" y="-426.9" font-family="Arial" font-size="14.00" fill="#000000">html_body </text>
<text text-anchor="start" x="118.4614" y="-426.9" font-family="Arial" font-size="14.00" fill="#666666">[longtext]</text>
<polygon fill="none" stroke="#000000" points="43,-385.5 43,-415.5 275,-415.5 275,-385.5 43,-385.5"/>
<text text-anchor="start" x="50" y="-396.9" font-family="Arial" font-size="14.00" fill="#000000">status </text>
<text text-anchor="start" x="91.237" y="-396.9" font-family="Arial" font-size="14.00" fill="#666666">[varchar(255)]</text>
<polygon fill="none" stroke="#000000" points="43,-355.5 43,-385.5 275,-385.5 275,-355.5 43,-355.5"/>
<text text-anchor="start" x="50" y="-366.9" font-family="Arial" font-size="14.00" fill="#000000">created_at </text>
<text text-anchor="start" x="120.028" y="-366.9" font-family="Arial" font-size="14.00" fill="#666666">[datetime]</text>
<polygon fill="none" stroke="#000000" points="43,-325.5 43,-355.5 275,-355.5 275,-325.5 43,-325.5"/>
<text text-anchor="start" x="50" y="-336.9" font-family="Arial" font-size="14.00" fill="#000000">updated_at </text>
<text text-anchor="start" x="123.9326" y="-336.9" font-family="Arial" font-size="14.00" fill="#666666">[datetime]</text>
</g>
<!-- archived_posts&#45;&gt;categories -->
<g id="edge1" class="edge">
<title>archived_posts:category_id&#45;&gt;categories:id</title>
<path fill="none" stroke="#000000" d="M284.9785,-517.7772C323.9941,-494.2927 299.0161,-325.7876 275,-283 259.9648,-256.2129 231.0352,-273.7871 216,-247 195.0078,-209.5997 173.1111,-150.5 216,-150.5"/>
<polygon fill="#000000" stroke="#000000" points="284.6473,-517.8675 273.8154,-516.1587 279.8237,-519.1838 275,-520.5 275,-520.5 275,-520.5 279.8237,-519.1838 276.1846,-524.8413 284.6473,-517.8675 284.6473,-517.8675"/>
<text text-anchor="start" x="281.659" y="-530.5" font-family="Arial" font-size="10.00" fill="#000000">FOREIGN KEY (category_id) REFERENCES categories (id)</text>
</g>
<!-- posts -->
<g id="node3" class="node">
<title>posts</title>
<polygon fill="#efefef" stroke="transparent" points="380,-595.5 380,-630.5 553,-630.5 553,-595.5 380,-595.5"/>
<polygon fill="none" stroke="#000000" points="380,-595.5 380,-630.5 553,-630.5 553,-595.5 380,-595.5"/>
<text text-anchor="start" x="396.3658" y="-608.3" font-family="Arial Bold" font-size="18.00" fill="#000000">posts</text>
<text text-anchor="start" x="439.3804" y="-608.3" font-family="Arial" font-size="14.00" fill="#000000"> </text>
<text text-anchor="start" x="443.271" y="-608.3" font-family="Arial" font-size="14.00" fill="#666666">[BASE TABLE]</text>
<polygon fill="none" stroke="#000000" points="380,-565.5 380,-595.5 553,-595.5 553,-565.5 380,-565.5"/>
<text text-anchor="start" x="387" y="-576.9" font-family="Arial" font-size="14.00" fill="#000000">id </text>
<text text-anchor="start" x="401.7798" y="-576.9" font-family="Arial" font-size="14.00" fill="#666666">[int unsigned]</text>
<polygon fill="none" stroke="#000000" points="380,-535.5 380,-565.5 553,-565.5 553,-535.5 380,-535.5"/>
<text text-anchor="start" x="387" y="-546.9" font-family="Arial" font-size="14.00" fill="#000000">admin_id </text>
<text text-anchor="start" x="447.6774" y="-546.9" font-family="Arial" font-size="14.00" fill="#666666">[int unsigned]</text>
<polygon fill="none" stroke="#000000" points="380,-505.5 380,-535.5 553,-535.5 553,-505.5 380,-505.5"/>
<text text-anchor="start" x="386.7511" y="-516.9" font-family="Arial" font-size="14.00" fill="#000000">category_id </text>
<text text-anchor="start" x="462.9951" y="-516.9" font-family="Arial" font-size="14.00" fill="#666666">[int unsigned]</text>
<polygon fill="none" stroke="#000000" points="380,-475.5 380,-505.5 553,-505.5 553,-475.5 380,-475.5"/>
<text text-anchor="start" x="387" y="-486.9" font-family="Arial" font-size="14.00" fill="#000000">title </text>
<text text-anchor="start" x="412.6676" y="-486.9" font-family="Arial" font-size="14.00" fill="#666666">[varchar(255)]</text>
<polygon fill="none" stroke="#000000" points="380,-445.5 380,-475.5 553,-475.5 553,-445.5 380,-445.5"/>
<text text-anchor="start" x="387" y="-456.9" font-family="Arial" font-size="14.00" fill="#000000">md_body </text>
<text text-anchor="start" x="448.4642" y="-456.9" font-family="Arial" font-size="14.00" fill="#666666">[longtext]</text>
<polygon fill="none" stroke="#000000" points="380,-415.5 380,-445.5 553,-445.5 553,-415.5 380,-415.5"/>
<text text-anchor="start" x="387" y="-426.9" font-family="Arial" font-size="14.00" fill="#000000">html_body </text>
<text text-anchor="start" x="455.4614" y="-426.9" font-family="Arial" font-size="14.00" fill="#666666">[longtext]</text>
<polygon fill="none" stroke="#000000" points="380,-385.5 380,-415.5 553,-415.5 553,-385.5 380,-385.5"/>
<text text-anchor="start" x="387" y="-396.9" font-family="Arial" font-size="14.00" fill="#000000">status </text>
<text text-anchor="start" x="428.237" y="-396.9" font-family="Arial" font-size="14.00" fill="#666666">[varchar(255)]</text>
<polygon fill="none" stroke="#000000" points="380,-355.5 380,-385.5 553,-385.5 553,-355.5 380,-355.5"/>
<text text-anchor="start" x="387" y="-366.9" font-family="Arial" font-size="14.00" fill="#000000">created_at </text>
<text text-anchor="start" x="457.028" y="-366.9" font-family="Arial" font-size="14.00" fill="#666666">[datetime]</text>
<polygon fill="none" stroke="#000000" points="380,-325.5 380,-355.5 553,-355.5 553,-325.5 380,-325.5"/>
<text text-anchor="start" x="387" y="-336.9" font-family="Arial" font-size="14.00" fill="#000000">updated_at </text>
<text text-anchor="start" x="460.9326" y="-336.9" font-family="Arial" font-size="14.00" fill="#666666">[datetime]</text>
</g>
<!-- posts&#45;&gt;categories -->
<g id="edge2" class="edge">
<title>posts:category_id&#45;&gt;categories:id</title>
<path fill="none" stroke="#000000" d="M370.13,-517.8269C332.0342,-494.7636 363.2964,-329.1362 380,-283 387.0902,-263.4167 402.9098,-266.5833 410,-247 424.6005,-206.6728 452.8889,-150.5 410,-150.5"/>
<polygon fill="#000000" stroke="#000000" points="370.3477,-517.8858 378.8236,-524.8435 375.1739,-519.1929 380,-520.5 380,-520.5 380,-520.5 375.1739,-519.1929 381.1764,-516.1565 370.3477,-517.8858 370.3477,-517.8858"/>
<text text-anchor="start" x="386.659" y="-504.5" font-family="Arial" font-size="10.00" fill="#000000">FOREIGN KEY (category_id) REFERENCES categories (id)</text>
</g>
</g>
</svg>
