<?xml version="1.0" encoding="UTF-8" standalone="no"?>
<!DOCTYPE svg PUBLIC "-//W3C//DTD SVG 1.1//EN"
 "http://www.w3.org/Graphics/SVG/1.1/DTD/svg11.dtd">
<!-- Generated by graphviz version 2.40.1 (20161225.0304)
 -->
<!-- Title: gobel Pages: 1 -->
<svg width="1624pt" height="1403pt"
 viewBox="0.00 0.00 1624.00 1403.00" xmlns="http://www.w3.org/2000/svg" xmlns:xlink="http://www.w3.org/1999/xlink">
<g id="graph0" class="graph" transform="scale(1 1) rotate(0) translate(4 1399)">
<title>gobel</title>
<polygon fill="#ffffff" stroke="transparent" points="-4,4 -4,-1399 1620,-1399 1620,4 -4,4"/>
<!-- admins -->
<g id="node1" class="node">
<title>admins</title>
<polygon fill="#efefef" stroke="transparent" points="365,-222.5 365,-257.5 534,-257.5 534,-222.5 365,-222.5"/>
<polygon fill="none" stroke="#000000" points="365,-222.5 365,-257.5 534,-257.5 534,-222.5 365,-222.5"/>
<text text-anchor="start" x="371.8706" y="-235.3" font-family="Arial Bold" font-size="18.00" fill="#000000">admins</text>
<text text-anchor="start" x="429.8756" y="-235.3" font-family="Arial" font-size="14.00" fill="#000000"> </text>
<text text-anchor="start" x="433.7662" y="-235.3" font-family="Arial" font-size="14.00" fill="#666666">[BASE TABLE]</text>
<polygon fill="none" stroke="#000000" points="365,-192.5 365,-222.5 534,-222.5 534,-192.5 365,-192.5"/>
<text text-anchor="start" x="372" y="-203.9" font-family="Arial" font-size="14.00" fill="#000000">id </text>
<text text-anchor="start" x="386.7798" y="-203.9" font-family="Arial" font-size="14.00" fill="#666666">[int unsigned]</text>
<polygon fill="none" stroke="#000000" points="365,-162.5 365,-192.5 534,-192.5 534,-162.5 365,-162.5"/>
<text text-anchor="start" x="372" y="-173.9" font-family="Arial" font-size="14.00" fill="#000000">name </text>
<text text-anchor="start" x="410.899" y="-173.9" font-family="Arial" font-size="14.00" fill="#666666">[varchar(255)]</text>
<polygon fill="none" stroke="#000000" points="365,-132.5 365,-162.5 534,-162.5 534,-132.5 365,-132.5"/>
<text text-anchor="start" x="372" y="-143.9" font-family="Arial" font-size="14.00" fill="#000000">email </text>
<text text-anchor="start" x="409.3296" y="-143.9" font-family="Arial" font-size="14.00" fill="#666666">[varchar(255)]</text>
<polygon fill="none" stroke="#000000" points="365,-102.5 365,-132.5 534,-132.5 534,-102.5 365,-102.5"/>
<text text-anchor="start" x="372" y="-113.9" font-family="Arial" font-size="14.00" fill="#000000">password </text>
<text text-anchor="start" x="435.7882" y="-113.9" font-family="Arial" font-size="14.00" fill="#666666">[varchar(255)]</text>
<polygon fill="none" stroke="#000000" points="365,-72.5 365,-102.5 534,-102.5 534,-72.5 365,-72.5"/>
<text text-anchor="start" x="372" y="-83.9" font-family="Arial" font-size="14.00" fill="#000000">created_at </text>
<text text-anchor="start" x="442.028" y="-83.9" font-family="Arial" font-size="14.00" fill="#666666">[datetime]</text>
<polygon fill="none" stroke="#000000" points="365,-42.5 365,-72.5 534,-72.5 534,-42.5 365,-42.5"/>
<text text-anchor="start" x="372" y="-53.9" font-family="Arial" font-size="14.00" fill="#000000">updated_at </text>
<text text-anchor="start" x="445.9326" y="-53.9" font-family="Arial" font-size="14.00" fill="#666666">[datetime]</text>
</g>
<!-- archived_comments -->
<g id="node2" class="node">
<title>archived_comments</title>
<polygon fill="#efefef" stroke="transparent" points="987,-1151.5 987,-1186.5 1259,-1186.5 1259,-1151.5 987,-1151.5"/>
<polygon fill="none" stroke="#000000" points="987,-1151.5 987,-1186.5 1259,-1186.5 1259,-1151.5 987,-1151.5"/>
<text text-anchor="start" x="993.8618" y="-1164.3" font-family="Arial Bold" font-size="18.00" fill="#000000">archived_comments</text>
<text text-anchor="start" x="1154.8844" y="-1164.3" font-family="Arial" font-size="14.00" fill="#000000"> </text>
<text text-anchor="start" x="1158.775" y="-1164.3" font-family="Arial" font-size="14.00" fill="#666666">[BASE TABLE]</text>
<polygon fill="none" stroke="#000000" points="987,-1121.5 987,-1151.5 1259,-1151.5 1259,-1121.5 987,-1121.5"/>
<text text-anchor="start" x="994" y="-1132.9" font-family="Arial" font-size="14.00" fill="#000000">id </text>
<text text-anchor="start" x="1008.7798" y="-1132.9" font-family="Arial" font-size="14.00" fill="#666666">[int unsigned]</text>
<polygon fill="none" stroke="#000000" points="987,-1091.5 987,-1121.5 1259,-1121.5 1259,-1091.5 987,-1091.5"/>
<text text-anchor="start" x="994" y="-1102.9" font-family="Arial" font-size="14.00" fill="#000000">archived_post_id </text>
<text text-anchor="start" x="1103.6984" y="-1102.9" font-family="Arial" font-size="14.00" fill="#666666">[int unsigned]</text>
<polygon fill="none" stroke="#000000" points="987,-1061.5 987,-1091.5 1259,-1091.5 1259,-1061.5 987,-1061.5"/>
<text text-anchor="start" x="994" y="-1072.9" font-family="Arial" font-size="14.00" fill="#000000">body </text>
<text text-anchor="start" x="1028.2384" y="-1072.9" font-family="Arial" font-size="14.00" fill="#666666">[longtext]</text>
<polygon fill="none" stroke="#000000" points="987,-1031.5 987,-1061.5 1259,-1061.5 1259,-1031.5 987,-1031.5"/>
<text text-anchor="start" x="994" y="-1042.9" font-family="Arial" font-size="14.00" fill="#000000">status </text>
<text text-anchor="start" x="1035.237" y="-1042.9" font-family="Arial" font-size="14.00" fill="#666666">[varchar(255)]</text>
<polygon fill="none" stroke="#000000" points="987,-1001.5 987,-1031.5 1259,-1031.5 1259,-1001.5 987,-1001.5"/>
<text text-anchor="start" x="994" y="-1012.9" font-family="Arial" font-size="14.00" fill="#000000">created_at </text>
<text text-anchor="start" x="1064.028" y="-1012.9" font-family="Arial" font-size="14.00" fill="#666666">[datetime]</text>
<polygon fill="none" stroke="#000000" points="987,-971.5 987,-1001.5 1259,-1001.5 1259,-971.5 987,-971.5"/>
<text text-anchor="start" x="994" y="-982.9" font-family="Arial" font-size="14.00" fill="#000000">updated_at </text>
<text text-anchor="start" x="1067.9326" y="-982.9" font-family="Arial" font-size="14.00" fill="#666666">[datetime]</text>
</g>
<!-- archived_posts -->
<g id="node3" class="node">
<title>archived_posts</title>
<polygon fill="#efefef" stroke="transparent" points="756,-649.5 756,-684.5 988,-684.5 988,-649.5 756,-649.5"/>
<polygon fill="none" stroke="#000000" points="756,-649.5 756,-684.5 988,-684.5 988,-649.5 756,-649.5"/>
<text text-anchor="start" x="762.8571" y="-662.3" font-family="Arial Bold" font-size="18.00" fill="#000000">archived_posts</text>
<text text-anchor="start" x="883.8891" y="-662.3" font-family="Arial" font-size="14.00" fill="#000000"> </text>
<text text-anchor="start" x="887.7797" y="-662.3" font-family="Arial" font-size="14.00" fill="#666666">[BASE TABLE]</text>
<polygon fill="none" stroke="#000000" points="756,-619.5 756,-649.5 988,-649.5 988,-619.5 756,-619.5"/>
<text text-anchor="start" x="763" y="-630.9" font-family="Arial" font-size="14.00" fill="#000000">id </text>
<text text-anchor="start" x="777.7798" y="-630.9" font-family="Arial" font-size="14.00" fill="#666666">[int unsigned]</text>
<polygon fill="none" stroke="#000000" points="756,-589.5 756,-619.5 988,-619.5 988,-589.5 756,-589.5"/>
<text text-anchor="start" x="763" y="-600.9" font-family="Arial" font-size="14.00" fill="#000000">admin_id </text>
<text text-anchor="start" x="823.6774" y="-600.9" font-family="Arial" font-size="14.00" fill="#666666">[int unsigned]</text>
<polygon fill="none" stroke="#000000" points="756,-559.5 756,-589.5 988,-589.5 988,-559.5 756,-559.5"/>
<text text-anchor="start" x="763" y="-570.9" font-family="Arial" font-size="14.00" fill="#000000">category_id </text>
<text text-anchor="start" x="839.244" y="-570.9" font-family="Arial" font-size="14.00" fill="#666666">[int unsigned]</text>
<polygon fill="none" stroke="#000000" points="756,-529.5 756,-559.5 988,-559.5 988,-529.5 756,-529.5"/>
<text text-anchor="start" x="763" y="-540.9" font-family="Arial" font-size="14.00" fill="#000000">title </text>
<text text-anchor="start" x="788.6676" y="-540.9" font-family="Arial" font-size="14.00" fill="#666666">[varchar(255)]</text>
<polygon fill="none" stroke="#000000" points="756,-499.5 756,-529.5 988,-529.5 988,-499.5 756,-499.5"/>
<text text-anchor="start" x="763" y="-510.9" font-family="Arial" font-size="14.00" fill="#000000">md_body </text>
<text text-anchor="start" x="824.4642" y="-510.9" font-family="Arial" font-size="14.00" fill="#666666">[longtext]</text>
<polygon fill="none" stroke="#000000" points="756,-469.5 756,-499.5 988,-499.5 988,-469.5 756,-469.5"/>
<text text-anchor="start" x="763" y="-480.9" font-family="Arial" font-size="14.00" fill="#000000">html_body </text>
<text text-anchor="start" x="831.4614" y="-480.9" font-family="Arial" font-size="14.00" fill="#666666">[longtext]</text>
<polygon fill="none" stroke="#000000" points="756,-439.5 756,-469.5 988,-469.5 988,-439.5 756,-439.5"/>
<text text-anchor="start" x="763" y="-450.9" font-family="Arial" font-size="14.00" fill="#000000">status </text>
<text text-anchor="start" x="804.237" y="-450.9" font-family="Arial" font-size="14.00" fill="#666666">[varchar(255)]</text>
<polygon fill="none" stroke="#000000" points="756,-409.5 756,-439.5 988,-439.5 988,-409.5 756,-409.5"/>
<text text-anchor="start" x="763" y="-420.9" font-family="Arial" font-size="14.00" fill="#000000">created_at </text>
<text text-anchor="start" x="833.028" y="-420.9" font-family="Arial" font-size="14.00" fill="#666666">[datetime]</text>
<polygon fill="none" stroke="#000000" points="756,-379.5 756,-409.5 988,-409.5 988,-379.5 756,-379.5"/>
<text text-anchor="start" x="763" y="-390.9" font-family="Arial" font-size="14.00" fill="#000000">updated_at </text>
<text text-anchor="start" x="836.9326" y="-390.9" font-family="Arial" font-size="14.00" fill="#666666">[datetime]</text>
</g>
<!-- archived_comments&#45;&gt;archived_posts -->
<g id="edge1" class="edge">
<title>archived_comments:archived_post_id&#45;&gt;archived_posts:id</title>
<path fill="none" stroke="#000000" d="M977.0805,-1104.7909C896.5411,-1073.8959 1089.2016,-634.5 988,-634.5"/>
<polygon fill="#000000" stroke="#000000" points="977.1452,-1104.802 986.2359,-1110.9347 982.0726,-1105.651 987,-1106.5 987,-1106.5 987,-1106.5 982.0726,-1105.651 987.7641,-1102.0653 977.1452,-1104.802 977.1452,-1104.802"/>
<text text-anchor="start" x="669.152" y="-1116.5" font-family="Arial" font-size="10.00" fill="#000000">FOREIGN KEY (archived_post_id) REFERENCES archived_posts (id)</text>
</g>
<!-- archived_posts&#45;&gt;admins -->
<g id="edge2" class="edge">
<title>archived_posts:admin_id&#45;&gt;admins:id</title>
<path fill="none" stroke="#000000" d="M746.0805,-602.2038C700.1617,-578.8903 734.6706,-384.9151 704,-337 689.2374,-313.9372 675.9152,-317.418 654,-301 599.8891,-260.4621 601.6115,-207.5 534,-207.5"/>
<polygon fill="#000000" stroke="#000000" points="746.2576,-602.2447 754.9851,-608.8841 751.1288,-603.3724 756,-604.5 756,-604.5 756,-604.5 751.1288,-603.3724 757.0149,-600.1159 746.2576,-602.2447 746.2576,-602.2447"/>
<text text-anchor="start" x="763.167" y="-614.5" font-family="Arial" font-size="10.00" fill="#000000">FOREIGN KEY (admin_id) REFERENCES admins (id)</text>
</g>
<!-- categories -->
<g id="node5" class="node">
<title>categories</title>
<polygon fill="#efefef" stroke="transparent" points="706,-192.5 706,-227.5 900,-227.5 900,-192.5 706,-192.5"/>
<polygon fill="none" stroke="#000000" points="706,-192.5 706,-227.5 900,-227.5 900,-192.5 706,-192.5"/>
<text text-anchor="start" x="712.8633" y="-205.3" font-family="Arial Bold" font-size="18.00" fill="#000000">categories</text>
<text text-anchor="start" x="795.8829" y="-205.3" font-family="Arial" font-size="14.00" fill="#000000"> </text>
<text text-anchor="start" x="799.7735" y="-205.3" font-family="Arial" font-size="14.00" fill="#666666">[BASE TABLE]</text>
<polygon fill="none" stroke="#000000" points="706,-162.5 706,-192.5 900,-192.5 900,-162.5 706,-162.5"/>
<text text-anchor="start" x="713" y="-173.9" font-family="Arial" font-size="14.00" fill="#000000">id </text>
<text text-anchor="start" x="727.7798" y="-173.9" font-family="Arial" font-size="14.00" fill="#666666">[int unsigned]</text>
<polygon fill="none" stroke="#000000" points="706,-132.5 706,-162.5 900,-162.5 900,-132.5 706,-132.5"/>
<text text-anchor="start" x="713" y="-143.9" font-family="Arial" font-size="14.00" fill="#000000">name </text>
<text text-anchor="start" x="751.899" y="-143.9" font-family="Arial" font-size="14.00" fill="#666666">[varchar(255)]</text>
<polygon fill="none" stroke="#000000" points="706,-102.5 706,-132.5 900,-132.5 900,-102.5 706,-102.5"/>
<text text-anchor="start" x="713" y="-113.9" font-family="Arial" font-size="14.00" fill="#000000">created_at </text>
<text text-anchor="start" x="783.028" y="-113.9" font-family="Arial" font-size="14.00" fill="#666666">[datetime]</text>
<polygon fill="none" stroke="#000000" points="706,-72.5 706,-102.5 900,-102.5 900,-72.5 706,-72.5"/>
<text text-anchor="start" x="713" y="-83.9" font-family="Arial" font-size="14.00" fill="#000000">updated_at </text>
<text text-anchor="start" x="786.9326" y="-83.9" font-family="Arial" font-size="14.00" fill="#666666">[datetime]</text>
</g>
<!-- archived_posts&#45;&gt;categories -->
<g id="edge3" class="edge">
<title>archived_posts:category_id&#45;&gt;categories:id</title>
<path fill="none" stroke="#000000" d="M745.9847,-571.7551C706.6567,-548.0829 729.5006,-378.2957 756,-337 794.0218,-277.7481 861.9782,-330.2519 900,-271 922.4428,-236.0259 941.5556,-177.5 900,-177.5"/>
<polygon fill="#000000" stroke="#000000" points="746.3557,-571.8567 754.8105,-578.84 751.1778,-573.1784 756,-574.5 756,-574.5 756,-574.5 751.1778,-573.1784 757.1895,-570.16 746.3557,-571.8567 746.3557,-571.8567"/>
<text text-anchor="start" x="762.659" y="-584.5" font-family="Arial" font-size="10.00" fill="#000000">FOREIGN KEY (category_id) REFERENCES categories (id)</text>
</g>
<!-- archived_tag_post -->
<g id="node4" class="node">
<title>archived_tag_post</title>
<polygon fill="#efefef" stroke="transparent" points="625,-1136.5 625,-1171.5 883,-1171.5 883,-1136.5 625,-1136.5"/>
<polygon fill="none" stroke="#000000" points="625,-1136.5 625,-1171.5 883,-1171.5 883,-1136.5 625,-1136.5"/>
<text text-anchor="start" x="631.8467" y="-1149.3" font-family="Arial Bold" font-size="18.00" fill="#000000">archived_tag_post</text>
<text text-anchor="start" x="778.8995" y="-1149.3" font-family="Arial" font-size="14.00" fill="#000000"> </text>
<text text-anchor="start" x="782.7901" y="-1149.3" font-family="Arial" font-size="14.00" fill="#666666">[BASE TABLE]</text>
<polygon fill="none" stroke="#000000" points="625,-1106.5 625,-1136.5 883,-1136.5 883,-1106.5 625,-1106.5"/>
<text text-anchor="start" x="632" y="-1117.9" font-family="Arial" font-size="14.00" fill="#000000">id </text>
<text text-anchor="start" x="646.7798" y="-1117.9" font-family="Arial" font-size="14.00" fill="#666666">[int unsigned]</text>
<polygon fill="none" stroke="#000000" points="625,-1076.5 625,-1106.5 883,-1106.5 883,-1076.5 625,-1076.5"/>
<text text-anchor="start" x="632" y="-1087.9" font-family="Arial" font-size="14.00" fill="#000000">tag_id </text>
<text text-anchor="start" x="674.0182" y="-1087.9" font-family="Arial" font-size="14.00" fill="#666666">[int unsigned]</text>
<polygon fill="none" stroke="#000000" points="625,-1046.5 625,-1076.5 883,-1076.5 883,-1046.5 625,-1046.5"/>
<text text-anchor="start" x="632" y="-1057.9" font-family="Arial" font-size="14.00" fill="#000000">archived_post_id </text>
<text text-anchor="start" x="741.6984" y="-1057.9" font-family="Arial" font-size="14.00" fill="#666666">[int unsigned]</text>
<polygon fill="none" stroke="#000000" points="625,-1016.5 625,-1046.5 883,-1046.5 883,-1016.5 625,-1016.5"/>
<text text-anchor="start" x="632" y="-1027.9" font-family="Arial" font-size="14.00" fill="#000000">created_at </text>
<text text-anchor="start" x="702.028" y="-1027.9" font-family="Arial" font-size="14.00" fill="#666666">[datetime]</text>
<polygon fill="none" stroke="#000000" points="625,-986.5 625,-1016.5 883,-1016.5 883,-986.5 625,-986.5"/>
<text text-anchor="start" x="632" y="-997.9" font-family="Arial" font-size="14.00" fill="#000000">updated_at </text>
<text text-anchor="start" x="705.9326" y="-997.9" font-family="Arial" font-size="14.00" fill="#666666">[datetime]</text>
</g>
<!-- archived_tag_post&#45;&gt;archived_posts -->
<g id="edge5" class="edge">
<title>archived_tag_post:archived_post_id&#45;&gt;archived_posts:id</title>
<path fill="none" stroke="#000000" d="M893.0336,-1061.0869C1062.3322,-1046.2107 561.5831,-634.5 756,-634.5"/>
<polygon fill="#000000" stroke="#000000" points="892.9915,-1061.0886 882.8149,-1057.0038 887.9958,-1061.2943 883,-1061.5 883,-1061.5 883,-1061.5 887.9958,-1061.2943 883.1851,-1065.9962 892.9915,-1061.0886 892.9915,-1061.0886"/>
<text text-anchor="start" x="565.152" y="-1071.5" font-family="Arial" font-size="10.00" fill="#000000">FOREIGN KEY (archived_post_id) REFERENCES archived_posts (id)</text>
</g>
<!-- tags -->
<g id="node9" class="node">
<title>tags</title>
<polygon fill="#efefef" stroke="transparent" points="503,-574.5 503,-609.5 652,-609.5 652,-574.5 503,-574.5"/>
<polygon fill="none" stroke="#000000" points="503,-574.5 503,-609.5 652,-609.5 652,-574.5 503,-574.5"/>
<text text-anchor="start" x="511.8658" y="-587.3" font-family="Arial Bold" font-size="18.00" fill="#000000">tags</text>
<text text-anchor="start" x="545.8804" y="-587.3" font-family="Arial" font-size="14.00" fill="#000000"> </text>
<text text-anchor="start" x="549.771" y="-587.3" font-family="Arial" font-size="14.00" fill="#666666">[BASE TABLE]</text>
<polygon fill="none" stroke="#000000" points="503,-544.5 503,-574.5 652,-574.5 652,-544.5 503,-544.5"/>
<text text-anchor="start" x="510" y="-555.9" font-family="Arial" font-size="14.00" fill="#000000">id </text>
<text text-anchor="start" x="524.7798" y="-555.9" font-family="Arial" font-size="14.00" fill="#666666">[int unsigned]</text>
<polygon fill="none" stroke="#000000" points="503,-514.5 503,-544.5 652,-544.5 652,-514.5 503,-514.5"/>
<text text-anchor="start" x="510" y="-525.9" font-family="Arial" font-size="14.00" fill="#000000">name </text>
<text text-anchor="start" x="548.899" y="-525.9" font-family="Arial" font-size="14.00" fill="#666666">[varchar(255)]</text>
<polygon fill="none" stroke="#000000" points="503,-484.5 503,-514.5 652,-514.5 652,-484.5 503,-484.5"/>
<text text-anchor="start" x="510" y="-495.9" font-family="Arial" font-size="14.00" fill="#000000">created_at </text>
<text text-anchor="start" x="580.028" y="-495.9" font-family="Arial" font-size="14.00" fill="#666666">[datetime]</text>
<polygon fill="none" stroke="#000000" points="503,-454.5 503,-484.5 652,-484.5 652,-454.5 503,-454.5"/>
<text text-anchor="start" x="509.8037" y="-465.9" font-family="Arial" font-size="14.00" fill="#000000">updated_at </text>
<text text-anchor="start" x="583.7363" y="-465.9" font-family="Arial" font-size="14.00" fill="#666666">[datetime]</text>
</g>
<!-- archived_tag_post&#45;&gt;tags -->
<g id="edge4" class="edge">
<title>archived_tag_post:tag_id&#45;&gt;tags:id</title>
<path fill="none" stroke="#000000" d="M614.9986,-1089.9739C522.7368,-1058.7695 766.6752,-559.5 652,-559.5"/>
<polygon fill="#000000" stroke="#000000" points="615.1144,-1089.9915 624.3212,-1095.9485 620.0572,-1090.7457 625,-1091.5 625,-1091.5 625,-1091.5 620.0572,-1090.7457 625.6788,-1087.0515 615.1144,-1089.9915 615.1144,-1089.9915"/>
<text text-anchor="start" x="632.495" y="-1101.5" font-family="Arial" font-size="10.00" fill="#000000">FOREIGN KEY (tag_id) REFERENCES tags (id)</text>
</g>
<!-- comments -->
<g id="node6" class="node">
<title>comments</title>
<polygon fill="#efefef" stroke="transparent" points="43,-1151.5 43,-1186.5 237,-1186.5 237,-1151.5 43,-1151.5"/>
<polygon fill="none" stroke="#000000" points="43,-1151.5 43,-1186.5 237,-1186.5 237,-1151.5 43,-1151.5"/>
<text text-anchor="start" x="49.8705" y="-1164.3" font-family="Arial Bold" font-size="18.00" fill="#000000">comments</text>
<text text-anchor="start" x="132.8757" y="-1164.3" font-family="Arial" font-size="14.00" fill="#000000"> </text>
<text text-anchor="start" x="136.7663" y="-1164.3" font-family="Arial" font-size="14.00" fill="#666666">[BASE TABLE]</text>
<polygon fill="none" stroke="#000000" points="43,-1121.5 43,-1151.5 237,-1151.5 237,-1121.5 43,-1121.5"/>
<text text-anchor="start" x="50" y="-1132.9" font-family="Arial" font-size="14.00" fill="#000000">id </text>
<text text-anchor="start" x="64.7798" y="-1132.9" font-family="Arial" font-size="14.00" fill="#666666">[int unsigned]</text>
<polygon fill="none" stroke="#000000" points="43,-1091.5 43,-1121.5 237,-1121.5 237,-1091.5 43,-1091.5"/>
<text text-anchor="start" x="50" y="-1102.9" font-family="Arial" font-size="14.00" fill="#000000">post_id </text>
<text text-anchor="start" x="99.0182" y="-1102.9" font-family="Arial" font-size="14.00" fill="#666666">[int unsigned]</text>
<polygon fill="none" stroke="#000000" points="43,-1061.5 43,-1091.5 237,-1091.5 237,-1061.5 43,-1061.5"/>
<text text-anchor="start" x="50" y="-1072.9" font-family="Arial" font-size="14.00" fill="#000000">body </text>
<text text-anchor="start" x="84.2384" y="-1072.9" font-family="Arial" font-size="14.00" fill="#666666">[longtext]</text>
<polygon fill="none" stroke="#000000" points="43,-1031.5 43,-1061.5 237,-1061.5 237,-1031.5 43,-1031.5"/>
<text text-anchor="start" x="50" y="-1042.9" font-family="Arial" font-size="14.00" fill="#000000">status </text>
<text text-anchor="start" x="91.237" y="-1042.9" font-family="Arial" font-size="14.00" fill="#666666">[varchar(255)]</text>
<polygon fill="none" stroke="#000000" points="43,-1001.5 43,-1031.5 237,-1031.5 237,-1001.5 43,-1001.5"/>
<text text-anchor="start" x="50" y="-1012.9" font-family="Arial" font-size="14.00" fill="#000000">created_at </text>
<text text-anchor="start" x="120.028" y="-1012.9" font-family="Arial" font-size="14.00" fill="#666666">[datetime]</text>
<polygon fill="none" stroke="#000000" points="43,-971.5 43,-1001.5 237,-1001.5 237,-971.5 43,-971.5"/>
<text text-anchor="start" x="50" y="-982.9" font-family="Arial" font-size="14.00" fill="#000000">updated_at </text>
<text text-anchor="start" x="123.9326" y="-982.9" font-family="Arial" font-size="14.00" fill="#666666">[datetime]</text>
</g>
<!-- posts -->
<g id="node7" class="node">
<title>posts</title>
<polygon fill="#efefef" stroke="transparent" points="226,-649.5 226,-684.5 399,-684.5 399,-649.5 226,-649.5"/>
<polygon fill="none" stroke="#000000" points="226,-649.5 226,-684.5 399,-684.5 399,-649.5 226,-649.5"/>
<text text-anchor="start" x="242.3658" y="-662.3" font-family="Arial Bold" font-size="18.00" fill="#000000">posts</text>
<text text-anchor="start" x="285.3804" y="-662.3" font-family="Arial" font-size="14.00" fill="#000000"> </text>
<text text-anchor="start" x="289.271" y="-662.3" font-family="Arial" font-size="14.00" fill="#666666">[BASE TABLE]</text>
<polygon fill="none" stroke="#000000" points="226,-619.5 226,-649.5 399,-649.5 399,-619.5 226,-619.5"/>
<text text-anchor="start" x="233" y="-630.9" font-family="Arial" font-size="14.00" fill="#000000">id </text>
<text text-anchor="start" x="247.7798" y="-630.9" font-family="Arial" font-size="14.00" fill="#666666">[int unsigned]</text>
<polygon fill="none" stroke="#000000" points="226,-589.5 226,-619.5 399,-619.5 399,-589.5 226,-589.5"/>
<text text-anchor="start" x="233" y="-600.9" font-family="Arial" font-size="14.00" fill="#000000">admin_id </text>
<text text-anchor="start" x="293.6774" y="-600.9" font-family="Arial" font-size="14.00" fill="#666666">[int unsigned]</text>
<polygon fill="none" stroke="#000000" points="226,-559.5 226,-589.5 399,-589.5 399,-559.5 226,-559.5"/>
<text text-anchor="start" x="232.7511" y="-570.9" font-family="Arial" font-size="14.00" fill="#000000">category_id </text>
<text text-anchor="start" x="308.9951" y="-570.9" font-family="Arial" font-size="14.00" fill="#666666">[int unsigned]</text>
<polygon fill="none" stroke="#000000" points="226,-529.5 226,-559.5 399,-559.5 399,-529.5 226,-529.5"/>
<text text-anchor="start" x="233" y="-540.9" font-family="Arial" font-size="14.00" fill="#000000">title </text>
<text text-anchor="start" x="258.6676" y="-540.9" font-family="Arial" font-size="14.00" fill="#666666">[varchar(255)]</text>
<polygon fill="none" stroke="#000000" points="226,-499.5 226,-529.5 399,-529.5 399,-499.5 226,-499.5"/>
<text text-anchor="start" x="233" y="-510.9" font-family="Arial" font-size="14.00" fill="#000000">md_body </text>
<text text-anchor="start" x="294.4642" y="-510.9" font-family="Arial" font-size="14.00" fill="#666666">[longtext]</text>
<polygon fill="none" stroke="#000000" points="226,-469.5 226,-499.5 399,-499.5 399,-469.5 226,-469.5"/>
<text text-anchor="start" x="233" y="-480.9" font-family="Arial" font-size="14.00" fill="#000000">html_body </text>
<text text-anchor="start" x="301.4614" y="-480.9" font-family="Arial" font-size="14.00" fill="#666666">[longtext]</text>
<polygon fill="none" stroke="#000000" points="226,-439.5 226,-469.5 399,-469.5 399,-439.5 226,-439.5"/>
<text text-anchor="start" x="233" y="-450.9" font-family="Arial" font-size="14.00" fill="#000000">status </text>
<text text-anchor="start" x="274.237" y="-450.9" font-family="Arial" font-size="14.00" fill="#666666">[varchar(255)]</text>
<polygon fill="none" stroke="#000000" points="226,-409.5 226,-439.5 399,-439.5 399,-409.5 226,-409.5"/>
<text text-anchor="start" x="233" y="-420.9" font-family="Arial" font-size="14.00" fill="#000000">created_at </text>
<text text-anchor="start" x="303.028" y="-420.9" font-family="Arial" font-size="14.00" fill="#666666">[datetime]</text>
<polygon fill="none" stroke="#000000" points="226,-379.5 226,-409.5 399,-409.5 399,-379.5 226,-379.5"/>
<text text-anchor="start" x="233" y="-390.9" font-family="Arial" font-size="14.00" fill="#000000">updated_at </text>
<text text-anchor="start" x="306.9326" y="-390.9" font-family="Arial" font-size="14.00" fill="#666666">[datetime]</text>
</g>
<!-- comments&#45;&gt;posts -->
<g id="edge6" class="edge">
<title>comments:post_id&#45;&gt;posts:id</title>
<path fill="none" stroke="#000000" d="M246.886,-1104.7909C326.7925,-1073.8959 124.7711,-634.5 226,-634.5"/>
<polygon fill="#000000" stroke="#000000" points="246.8538,-1104.7964 236.2334,-1102.0658 241.9269,-1105.6482 237,-1106.5 237,-1106.5 237,-1106.5 241.9269,-1105.6482 237.7666,-1110.9342 246.8538,-1104.7964 246.8538,-1104.7964"/>
<text text-anchor="start" x="124.995" y="-1090.5" font-family="Arial" font-size="10.00" fill="#000000">FOREIGN KEY (post_id) REFERENCES posts (id)</text>
</g>
<!-- posts&#45;&gt;admins -->
<g id="edge7" class="edge">
<title>posts:admin_id&#45;&gt;admins:id</title>
<path fill="none" stroke="#000000" d="M408.7565,-602.2476C453.9624,-579.3721 419.632,-388.8942 399,-337 390.8692,-316.5492 373.1308,-321.4508 365,-301 349.6473,-262.3845 323.4444,-207.5 365,-207.5"/>
<polygon fill="#000000" stroke="#000000" points="408.7437,-602.2504 397.9877,-600.1153 403.8719,-603.3752 399,-604.5 399,-604.5 399,-604.5 403.8719,-603.3752 400.0123,-608.8847 408.7437,-602.2504 408.7437,-602.2504"/>
<text text-anchor="start" x="151.167" y="-614.5" font-family="Arial" font-size="10.00" fill="#000000">FOREIGN KEY (admin_id) REFERENCES admins (id)</text>
</g>
<!-- posts&#45;&gt;categories -->
<g id="edge8" class="edge">
<title>posts:category_id&#45;&gt;categories:id</title>
<path fill="none" stroke="#000000" d="M409.2489,-573.951C498.2147,-563.7 378.0309,-412.4523 450,-337 493.156,-291.7553 532.0289,-332.5698 586,-301 652.061,-262.3584 629.4674,-177.5 706,-177.5"/>
<polygon fill="#000000" stroke="#000000" points="408.9857,-573.965 398.7593,-570.0064 403.9928,-574.2325 399,-574.5 399,-574.5 399,-574.5 403.9928,-574.2325 399.2407,-578.9936 408.9857,-573.965 408.9857,-573.965"/>
<text text-anchor="start" x="125.659" y="-584.5" font-family="Arial" font-size="10.00" fill="#000000">FOREIGN KEY (category_id) REFERENCES categories (id)</text>
</g>
<!-- tag_post -->
<g id="node8" class="node">
<title>tag_post</title>
<polygon fill="#efefef" stroke="transparent" points="341,-1136.5 341,-1171.5 521,-1171.5 521,-1136.5 341,-1136.5"/>
<polygon fill="none" stroke="#000000" points="341,-1136.5 341,-1171.5 521,-1171.5 521,-1136.5 341,-1136.5"/>
<text text-anchor="start" x="347.8554" y="-1149.3" font-family="Arial Bold" font-size="18.00" fill="#000000">tag_post</text>
<text text-anchor="start" x="416.8908" y="-1149.3" font-family="Arial" font-size="14.00" fill="#000000"> </text>
<text text-anchor="start" x="420.7814" y="-1149.3" font-family="Arial" font-size="14.00" fill="#666666">[BASE TABLE]</text>
<polygon fill="none" stroke="#000000" points="341,-1106.5 341,-1136.5 521,-1136.5 521,-1106.5 341,-1106.5"/>
<text text-anchor="start" x="348" y="-1117.9" font-family="Arial" font-size="14.00" fill="#000000">id </text>
<text text-anchor="start" x="362.7798" y="-1117.9" font-family="Arial" font-size="14.00" fill="#666666">[int unsigned]</text>
<polygon fill="none" stroke="#000000" points="341,-1076.5 341,-1106.5 521,-1106.5 521,-1076.5 341,-1076.5"/>
<text text-anchor="start" x="348" y="-1087.9" font-family="Arial" font-size="14.00" fill="#000000">tag_id </text>
<text text-anchor="start" x="390.0182" y="-1087.9" font-family="Arial" font-size="14.00" fill="#666666">[int unsigned]</text>
<polygon fill="none" stroke="#000000" points="341,-1046.5 341,-1076.5 521,-1076.5 521,-1046.5 341,-1046.5"/>
<text text-anchor="start" x="348" y="-1057.9" font-family="Arial" font-size="14.00" fill="#000000">post_id </text>
<text text-anchor="start" x="397.0182" y="-1057.9" font-family="Arial" font-size="14.00" fill="#666666">[int unsigned]</text>
<polygon fill="none" stroke="#000000" points="341,-1016.5 341,-1046.5 521,-1046.5 521,-1016.5 341,-1016.5"/>
<text text-anchor="start" x="348" y="-1027.9" font-family="Arial" font-size="14.00" fill="#000000">created_at </text>
<text text-anchor="start" x="418.028" y="-1027.9" font-family="Arial" font-size="14.00" fill="#666666">[datetime]</text>
<polygon fill="none" stroke="#000000" points="341,-986.5 341,-1016.5 521,-1016.5 521,-986.5 341,-986.5"/>
<text text-anchor="start" x="348" y="-997.9" font-family="Arial" font-size="14.00" fill="#000000">updated_at </text>
<text text-anchor="start" x="421.9326" y="-997.9" font-family="Arial" font-size="14.00" fill="#666666">[datetime]</text>
</g>
<!-- tag_post&#45;&gt;posts -->
<g id="edge10" class="edge">
<title>tag_post:post_id&#45;&gt;posts:id</title>
<path fill="none" stroke="#000000" d="M330.9844,-1061.0644C165.6285,-1045.8013 586.9669,-634.5 399,-634.5"/>
<polygon fill="#000000" stroke="#000000" points="331.0094,-1061.0654 340.8044,-1065.9958 336.0047,-1061.2827 341,-1061.5 341,-1061.5 341,-1061.5 336.0047,-1061.2827 341.1956,-1057.0042 331.0094,-1061.0654 331.0094,-1061.0654"/>
<text text-anchor="start" x="169.245" y="-1045.5" font-family="Arial" font-size="10.00" fill="#000000">FOREIGN KEY (post_id) REFERENCES posts (id)</text>
</g>
<!-- tag_post&#45;&gt;tags -->
<g id="edge9" class="edge">
<title>tag_post:tag_id&#45;&gt;tags:id</title>
<path fill="none" stroke="#000000" d="M531.02,-1089.9739C623.7428,-1058.7695 388.4067,-559.5 503,-559.5"/>
<polygon fill="#000000" stroke="#000000" points="530.886,-1089.9942 520.3224,-1087.0513 525.943,-1090.7471 521,-1091.5 521,-1091.5 521,-1091.5 525.943,-1090.7471 521.6776,-1095.9487 530.886,-1089.9942 530.886,-1089.9942"/>
<text text-anchor="start" x="471.245" y="-1075.5" font-family="Arial" font-size="10.00" fill="#000000">FOREIGN KEY (tag_id) REFERENCES tags (id)</text>
</g>
<!-- view_posts -->
<g id="node10" class="node">
<title>view_posts</title>
<polygon fill="#efefef" stroke="transparent" points="1363,-1316.5 1363,-1351.5 1573,-1351.5 1573,-1316.5 1363,-1316.5"/>
<polygon fill="none" stroke="#000000" points="1363,-1316.5 1363,-1351.5 1573,-1351.5 1573,-1316.5 1363,-1316.5"/>
<text text-anchor="start" x="1399.7672" y="-1329.3" font-family="Arial Bold" font-size="18.00" fill="#000000">view_posts</text>
<text text-anchor="start" x="1488.7826" y="-1329.3" font-family="Arial" font-size="14.00" fill="#000000"> </text>
<text text-anchor="start" x="1492.6732" y="-1329.3" font-family="Arial" font-size="14.00" fill="#666666">[VIEW]</text>
<polygon fill="none" stroke="#000000" points="1363,-1286.5 1363,-1316.5 1573,-1316.5 1573,-1286.5 1363,-1286.5"/>
<text text-anchor="start" x="1370" y="-1297.9" font-family="Arial" font-size="14.00" fill="#000000">id </text>
<text text-anchor="start" x="1384.7798" y="-1297.9" font-family="Arial" font-size="14.00" fill="#666666">[int unsigned]</text>
<polygon fill="none" stroke="#000000" points="1363,-1256.5 1363,-1286.5 1573,-1286.5 1573,-1256.5 1363,-1256.5"/>
<text text-anchor="start" x="1370" y="-1267.9" font-family="Arial" font-size="14.00" fill="#000000">admin_id </text>
<text text-anchor="start" x="1430.6774" y="-1267.9" font-family="Arial" font-size="14.00" fill="#666666">[int unsigned]</text>
<polygon fill="none" stroke="#000000" points="1363,-1226.5 1363,-1256.5 1573,-1256.5 1573,-1226.5 1363,-1226.5"/>
<text text-anchor="start" x="1370" y="-1237.9" font-family="Arial" font-size="14.00" fill="#000000">category_id </text>
<text text-anchor="start" x="1446.244" y="-1237.9" font-family="Arial" font-size="14.00" fill="#666666">[int unsigned]</text>
<polygon fill="none" stroke="#000000" points="1363,-1196.5 1363,-1226.5 1573,-1226.5 1573,-1196.5 1363,-1196.5"/>
<text text-anchor="start" x="1370" y="-1207.9" font-family="Arial" font-size="14.00" fill="#000000">title </text>
<text text-anchor="start" x="1395.6676" y="-1207.9" font-family="Arial" font-size="14.00" fill="#666666">[varchar(255)]</text>
<polygon fill="none" stroke="#000000" points="1363,-1166.5 1363,-1196.5 1573,-1196.5 1573,-1166.5 1363,-1166.5"/>
<text text-anchor="start" x="1370" y="-1177.9" font-family="Arial" font-size="14.00" fill="#000000">md_body </text>
<text text-anchor="start" x="1431.4642" y="-1177.9" font-family="Arial" font-size="14.00" fill="#666666">[longtext]</text>
<polygon fill="none" stroke="#000000" points="1363,-1136.5 1363,-1166.5 1573,-1166.5 1573,-1136.5 1363,-1136.5"/>
<text text-anchor="start" x="1370" y="-1147.9" font-family="Arial" font-size="14.00" fill="#000000">html_body </text>
<text text-anchor="start" x="1438.4614" y="-1147.9" font-family="Arial" font-size="14.00" fill="#666666">[longtext]</text>
<polygon fill="none" stroke="#000000" points="1363,-1106.5 1363,-1136.5 1573,-1136.5 1573,-1106.5 1363,-1106.5"/>
<text text-anchor="start" x="1370" y="-1117.9" font-family="Arial" font-size="14.00" fill="#000000">status </text>
<text text-anchor="start" x="1411.237" y="-1117.9" font-family="Arial" font-size="14.00" fill="#666666">[varchar(255)]</text>
<polygon fill="none" stroke="#000000" points="1363,-1076.5 1363,-1106.5 1573,-1106.5 1573,-1076.5 1363,-1076.5"/>
<text text-anchor="start" x="1370" y="-1087.9" font-family="Arial" font-size="14.00" fill="#000000">created_at </text>
<text text-anchor="start" x="1440.028" y="-1087.9" font-family="Arial" font-size="14.00" fill="#666666">[datetime]</text>
<polygon fill="none" stroke="#000000" points="1363,-1046.5 1363,-1076.5 1573,-1076.5 1573,-1046.5 1363,-1046.5"/>
<text text-anchor="start" x="1370" y="-1057.9" font-family="Arial" font-size="14.00" fill="#000000">updated_at </text>
<text text-anchor="start" x="1443.9326" y="-1057.9" font-family="Arial" font-size="14.00" fill="#666666">[datetime]</text>
<polygon fill="none" stroke="#000000" points="1363,-1016.5 1363,-1046.5 1573,-1046.5 1573,-1016.5 1363,-1016.5"/>
<text text-anchor="start" x="1370" y="-1027.9" font-family="Arial" font-size="14.00" fill="#000000">admin_name </text>
<text text-anchor="start" x="1454.7966" y="-1027.9" font-family="Arial" font-size="14.00" fill="#666666">[varchar(255)]</text>
<polygon fill="none" stroke="#000000" points="1363,-986.5 1363,-1016.5 1573,-1016.5 1573,-986.5 1363,-986.5"/>
<text text-anchor="start" x="1370" y="-997.9" font-family="Arial" font-size="14.00" fill="#000000">admin_email </text>
<text text-anchor="start" x="1453.2272" y="-997.9" font-family="Arial" font-size="14.00" fill="#666666">[varchar(255)]</text>
<polygon fill="none" stroke="#000000" points="1363,-956.5 1363,-986.5 1573,-986.5 1573,-956.5 1363,-956.5"/>
<text text-anchor="start" x="1369.5975" y="-967.9" font-family="Arial" font-size="14.00" fill="#000000">admin_password </text>
<text text-anchor="start" x="1479.2833" y="-967.9" font-family="Arial" font-size="14.00" fill="#666666">[varchar(255)]</text>
<polygon fill="none" stroke="#000000" points="1363,-926.5 1363,-956.5 1573,-956.5 1573,-926.5 1363,-926.5"/>
<text text-anchor="start" x="1370" y="-937.9" font-family="Arial" font-size="14.00" fill="#000000">admin_created_at </text>
<text text-anchor="start" x="1485.9256" y="-937.9" font-family="Arial" font-size="14.00" fill="#666666">[datetime]</text>
<polygon fill="none" stroke="#000000" points="1363,-896.5 1363,-926.5 1573,-926.5 1573,-896.5 1363,-896.5"/>
<text text-anchor="start" x="1370" y="-907.9" font-family="Arial" font-size="14.00" fill="#000000">admin_updated_at </text>
<text text-anchor="start" x="1489.8302" y="-907.9" font-family="Arial" font-size="14.00" fill="#666666">[datetime]</text>
<polygon fill="none" stroke="#000000" points="1363,-866.5 1363,-896.5 1573,-896.5 1573,-866.5 1363,-866.5"/>
<text text-anchor="start" x="1370" y="-877.9" font-family="Arial" font-size="14.00" fill="#000000">category_name </text>
<text text-anchor="start" x="1470.3632" y="-877.9" font-family="Arial" font-size="14.00" fill="#666666">[varchar(255)]</text>
<polygon fill="none" stroke="#000000" points="1363,-836.5 1363,-866.5 1573,-866.5 1573,-836.5 1363,-836.5"/>
<text text-anchor="start" x="1370" y="-847.9" font-family="Arial" font-size="14.00" fill="#000000">category_created_at </text>
<text text-anchor="start" x="1501.4922" y="-847.9" font-family="Arial" font-size="14.00" fill="#666666">[datetime]</text>
<polygon fill="none" stroke="#000000" points="1363,-806.5 1363,-836.5 1573,-836.5 1573,-806.5 1363,-806.5"/>
<text text-anchor="start" x="1369.5716" y="-817.9" font-family="Arial" font-size="14.00" fill="#000000">category_updated_at </text>
<text text-anchor="start" x="1504.9684" y="-817.9" font-family="Arial" font-size="14.00" fill="#666666">[datetime]</text>
</g>
</g>
</svg>
