<?xml version="1.0" encoding="UTF-8" standalone="no"?>
<!DOCTYPE svg PUBLIC "-//W3C//DTD SVG 1.1//EN"
 "http://www.w3.org/Graphics/SVG/1.1/DTD/svg11.dtd">
<!-- Generated by graphviz version 2.40.1 (20161225.0304)
 -->
<!-- Title: tag_post Pages: 1 -->
<svg width="656pt" height="712pt"
 viewBox="0.00 0.00 656.00 712.00" xmlns="http://www.w3.org/2000/svg" xmlns:xlink="http://www.w3.org/1999/xlink">
<g id="graph0" class="graph" transform="scale(1 1) rotate(0) translate(4 708)">
<title>tag_post</title>
<polygon fill="#ffffff" stroke="transparent" points="-4,4 -4,-708 652,-708 652,4 -4,4"/>
<!-- tag_post -->
<g id="node1" class="node">
<title>tag_post</title>
<polygon fill="#efefef" stroke="transparent" points="229,-622.5 229,-657.5 409,-657.5 409,-622.5 229,-622.5"/>
<polygon fill="none" stroke="#000000" points="229,-622.5 229,-657.5 409,-657.5 409,-622.5 229,-622.5"/>
<text text-anchor="start" x="235.8554" y="-635.3" font-family="Arial Bold" font-size="18.00" fill="#000000">tag_post</text>
<text text-anchor="start" x="304.8908" y="-635.3" font-family="Arial" font-size="14.00" fill="#000000"> </text>
<text text-anchor="start" x="308.7814" y="-635.3" font-family="Arial" font-size="14.00" fill="#666666">[BASE TABLE]</text>
<polygon fill="none" stroke="#000000" points="229,-592.5 229,-622.5 409,-622.5 409,-592.5 229,-592.5"/>
<text text-anchor="start" x="236" y="-603.9" font-family="Arial" font-size="14.00" fill="#000000">id </text>
<text text-anchor="start" x="250.7798" y="-603.9" font-family="Arial" font-size="14.00" fill="#666666">[int unsigned]</text>
<polygon fill="none" stroke="#000000" points="229,-562.5 229,-592.5 409,-592.5 409,-562.5 229,-562.5"/>
<text text-anchor="start" x="236" y="-573.9" font-family="Arial" font-size="14.00" fill="#000000">tag_id </text>
<text text-anchor="start" x="278.0182" y="-573.9" font-family="Arial" font-size="14.00" fill="#666666">[int unsigned]</text>
<polygon fill="none" stroke="#000000" points="229,-532.5 229,-562.5 409,-562.5 409,-532.5 229,-532.5"/>
<text text-anchor="start" x="236" y="-543.9" font-family="Arial" font-size="14.00" fill="#000000">post_id </text>
<text text-anchor="start" x="285.0182" y="-543.9" font-family="Arial" font-size="14.00" fill="#666666">[int unsigned]</text>
<polygon fill="none" stroke="#000000" points="229,-502.5 229,-532.5 409,-532.5 409,-502.5 229,-502.5"/>
<text text-anchor="start" x="236" y="-513.9" font-family="Arial" font-size="14.00" fill="#000000">created_at </text>
<text text-anchor="start" x="306.028" y="-513.9" font-family="Arial" font-size="14.00" fill="#666666">[datetime]</text>
<polygon fill="none" stroke="#000000" points="229,-472.5 229,-502.5 409,-502.5 409,-472.5 229,-472.5"/>
<text text-anchor="start" x="236" y="-483.9" font-family="Arial" font-size="14.00" fill="#000000">updated_at </text>
<text text-anchor="start" x="309.9326" y="-483.9" font-family="Arial" font-size="14.00" fill="#666666">[datetime]</text>
<polygon fill="none" stroke="#000000" stroke-width="3" points="227.5,-471.5 227.5,-659.5 410.5,-659.5 410.5,-471.5 227.5,-471.5"/>
</g>
<!-- tags -->
<g id="node2" class="node">
<title>tags</title>
<polygon fill="#efefef" stroke="transparent" points="112,-237.5 112,-272.5 261,-272.5 261,-237.5 112,-237.5"/>
<polygon fill="none" stroke="#000000" points="112,-237.5 112,-272.5 261,-272.5 261,-237.5 112,-237.5"/>
<text text-anchor="start" x="120.8658" y="-250.3" font-family="Arial Bold" font-size="18.00" fill="#000000">tags</text>
<text text-anchor="start" x="154.8804" y="-250.3" font-family="Arial" font-size="14.00" fill="#000000"> </text>
<text text-anchor="start" x="158.771" y="-250.3" font-family="Arial" font-size="14.00" fill="#666666">[BASE TABLE]</text>
<polygon fill="none" stroke="#000000" points="112,-207.5 112,-237.5 261,-237.5 261,-207.5 112,-207.5"/>
<text text-anchor="start" x="119" y="-218.9" font-family="Arial" font-size="14.00" fill="#000000">id </text>
<text text-anchor="start" x="133.7798" y="-218.9" font-family="Arial" font-size="14.00" fill="#666666">[int unsigned]</text>
<polygon fill="none" stroke="#000000" points="112,-177.5 112,-207.5 261,-207.5 261,-177.5 112,-177.5"/>
<text text-anchor="start" x="119" y="-188.9" font-family="Arial" font-size="14.00" fill="#000000">name </text>
<text text-anchor="start" x="157.899" y="-188.9" font-family="Arial" font-size="14.00" fill="#666666">[varchar(255)]</text>
<polygon fill="none" stroke="#000000" points="112,-147.5 112,-177.5 261,-177.5 261,-147.5 112,-147.5"/>
<text text-anchor="start" x="119" y="-158.9" font-family="Arial" font-size="14.00" fill="#000000">created_at </text>
<text text-anchor="start" x="189.028" y="-158.9" font-family="Arial" font-size="14.00" fill="#666666">[datetime]</text>
<polygon fill="none" stroke="#000000" points="112,-117.5 112,-147.5 261,-147.5 261,-117.5 112,-117.5"/>
<text text-anchor="start" x="118.8037" y="-128.9" font-family="Arial" font-size="14.00" fill="#000000">updated_at </text>
<text text-anchor="start" x="192.7363" y="-128.9" font-family="Arial" font-size="14.00" fill="#666666">[datetime]</text>
</g>
<!-- tag_post&#45;&gt;tags -->
<g id="edge1" class="edge">
<title>tag_post:tag_id&#45;&gt;tags:id</title>
<path fill="none" stroke="#000000" d="M218.7436,-577.0789C120.0916,-568.4313 245.1335,-428.315 261,-316 266.8127,-274.853 302.5556,-222.5 261,-222.5"/>
<polygon fill="#000000" stroke="#000000" points="219.0084,-577.0897 228.8154,-581.9962 224.0042,-577.2948 229,-577.5 229,-577.5 229,-577.5 224.0042,-577.2948 229.1846,-573.0038 219.0084,-577.0897 219.0084,-577.0897"/>
<text text-anchor="start" x="7.495" y="-587.5" font-family="Arial" font-size="10.00" fill="#000000">FOREIGN KEY (tag_id) REFERENCES tags (id)</text>
</g>
<!-- posts -->
<g id="node3" class="node">
<title>posts</title>
<polygon fill="#efefef" stroke="transparent" points="365,-312.5 365,-347.5 538,-347.5 538,-312.5 365,-312.5"/>
<polygon fill="none" stroke="#000000" points="365,-312.5 365,-347.5 538,-347.5 538,-312.5 365,-312.5"/>
<text text-anchor="start" x="381.3658" y="-325.3" font-family="Arial Bold" font-size="18.00" fill="#000000">posts</text>
<text text-anchor="start" x="424.3804" y="-325.3" font-family="Arial" font-size="14.00" fill="#000000"> </text>
<text text-anchor="start" x="428.271" y="-325.3" font-family="Arial" font-size="14.00" fill="#666666">[BASE TABLE]</text>
<polygon fill="none" stroke="#000000" points="365,-282.5 365,-312.5 538,-312.5 538,-282.5 365,-282.5"/>
<text text-anchor="start" x="372" y="-293.9" font-family="Arial" font-size="14.00" fill="#000000">id </text>
<text text-anchor="start" x="386.7798" y="-293.9" font-family="Arial" font-size="14.00" fill="#666666">[int unsigned]</text>
<polygon fill="none" stroke="#000000" points="365,-252.5 365,-282.5 538,-282.5 538,-252.5 365,-252.5"/>
<text text-anchor="start" x="372" y="-263.9" font-family="Arial" font-size="14.00" fill="#000000">admin_id </text>
<text text-anchor="start" x="432.6774" y="-263.9" font-family="Arial" font-size="14.00" fill="#666666">[int unsigned]</text>
<polygon fill="none" stroke="#000000" points="365,-222.5 365,-252.5 538,-252.5 538,-222.5 365,-222.5"/>
<text text-anchor="start" x="371.7511" y="-233.9" font-family="Arial" font-size="14.00" fill="#000000">category_id </text>
<text text-anchor="start" x="447.9951" y="-233.9" font-family="Arial" font-size="14.00" fill="#666666">[int unsigned]</text>
<polygon fill="none" stroke="#000000" points="365,-192.5 365,-222.5 538,-222.5 538,-192.5 365,-192.5"/>
<text text-anchor="start" x="372" y="-203.9" font-family="Arial" font-size="14.00" fill="#000000">title </text>
<text text-anchor="start" x="397.6676" y="-203.9" font-family="Arial" font-size="14.00" fill="#666666">[varchar(255)]</text>
<polygon fill="none" stroke="#000000" points="365,-162.5 365,-192.5 538,-192.5 538,-162.5 365,-162.5"/>
<text text-anchor="start" x="372" y="-173.9" font-family="Arial" font-size="14.00" fill="#000000">md_body </text>
<text text-anchor="start" x="433.4642" y="-173.9" font-family="Arial" font-size="14.00" fill="#666666">[longtext]</text>
<polygon fill="none" stroke="#000000" points="365,-132.5 365,-162.5 538,-162.5 538,-132.5 365,-132.5"/>
<text text-anchor="start" x="372" y="-143.9" font-family="Arial" font-size="14.00" fill="#000000">html_body </text>
<text text-anchor="start" x="440.4614" y="-143.9" font-family="Arial" font-size="14.00" fill="#666666">[longtext]</text>
<polygon fill="none" stroke="#000000" points="365,-102.5 365,-132.5 538,-132.5 538,-102.5 365,-102.5"/>
<text text-anchor="start" x="372" y="-113.9" font-family="Arial" font-size="14.00" fill="#000000">status </text>
<text text-anchor="start" x="413.237" y="-113.9" font-family="Arial" font-size="14.00" fill="#666666">[varchar(255)]</text>
<polygon fill="none" stroke="#000000" points="365,-72.5 365,-102.5 538,-102.5 538,-72.5 365,-72.5"/>
<text text-anchor="start" x="372" y="-83.9" font-family="Arial" font-size="14.00" fill="#000000">created_at </text>
<text text-anchor="start" x="442.028" y="-83.9" font-family="Arial" font-size="14.00" fill="#666666">[datetime]</text>
<polygon fill="none" stroke="#000000" points="365,-42.5 365,-72.5 538,-72.5 538,-42.5 365,-42.5"/>
<text text-anchor="start" x="372" y="-53.9" font-family="Arial" font-size="14.00" fill="#000000">updated_at </text>
<text text-anchor="start" x="445.9326" y="-53.9" font-family="Arial" font-size="14.00" fill="#666666">[datetime]</text>
</g>
<!-- tag_post&#45;&gt;posts -->
<g id="edge2" class="edge">
<title>tag_post:post_id&#45;&gt;posts:id</title>
<path fill="none" stroke="#000000" d="M419.1713,-547.3839C618.75,-542.6813 367.708,-396.7146 365,-391 347.2047,-353.4475 323.4444,-297.5 365,-297.5"/>
<polygon fill="#000000" stroke="#000000" points="418.9993,-547.3857 408.9486,-543.0003 413.9997,-547.4429 409,-547.5 409,-547.5 409,-547.5 413.9997,-547.4429 409.0514,-551.9997 418.9993,-547.3857 418.9993,-547.3857"/>
<text text-anchor="start" x="416.495" y="-557.5" font-family="Arial" font-size="10.00" fill="#000000">FOREIGN KEY (post_id) REFERENCES posts (id)</text>
</g>
</g>
</svg>
