<?xml version="1.0" encoding="UTF-8" standalone="no"?>
<!DOCTYPE svg PUBLIC "-//W3C//DTD SVG 1.1//EN"
 "http://www.w3.org/Graphics/SVG/1.1/DTD/svg11.dtd">
<!-- Generated by graphviz version 2.40.1 (20161225.0304)
 -->
<!-- Title: admins Pages: 1 -->
<svg width="510pt" height="742pt"
 viewBox="0.00 0.00 509.50 742.00" xmlns="http://www.w3.org/2000/svg" xmlns:xlink="http://www.w3.org/1999/xlink">
<g id="graph0" class="graph" transform="scale(1 1) rotate(0) translate(4 738)">
<title>admins</title>
<polygon fill="#ffffff" stroke="transparent" points="-4,4 -4,-738 505.5,-738 505.5,4 -4,4"/>
<!-- admins -->
<g id="node1" class="node">
<title>admins</title>
<polygon fill="#efefef" stroke="transparent" points="257,-225.5 257,-260.5 456,-260.5 456,-225.5 257,-225.5"/>
<polygon fill="none" stroke="#000000" points="257,-225.5 257,-260.5 456,-260.5 456,-225.5 257,-225.5"/>
<text text-anchor="start" x="263.7135" y="-238.3" font-family="Arial Bold" font-size="18.00" fill="#000000">admins</text>
<text text-anchor="start" x="321.7185" y="-238.3" font-family="Arial" font-size="14.00" fill="#000000">    </text>
<text text-anchor="start" x="355.9233" y="-238.3" font-family="Arial" font-size="14.00" fill="#666666">[BASE TABLE]</text>
<polygon fill="none" stroke="#000000" points="257,-195.5 257,-225.5 456,-225.5 456,-195.5 257,-195.5"/>
<text text-anchor="start" x="264" y="-206.9" font-family="Arial" font-size="14.00" fill="#000000">id </text>
<text text-anchor="start" x="278.7798" y="-206.9" font-family="Arial" font-size="14.00" fill="#666666">[int unsigned]</text>
<polygon fill="none" stroke="#000000" points="257,-165.5 257,-195.5 456,-195.5 456,-165.5 257,-165.5"/>
<text text-anchor="start" x="264" y="-176.9" font-family="Arial" font-size="14.00" fill="#000000">name </text>
<text text-anchor="start" x="302.899" y="-176.9" font-family="Arial" font-size="14.00" fill="#666666">[varchar(255)]</text>
<polygon fill="none" stroke="#000000" points="257,-135.5 257,-165.5 456,-165.5 456,-135.5 257,-135.5"/>
<text text-anchor="start" x="264" y="-146.9" font-family="Arial" font-size="14.00" fill="#000000">email </text>
<text text-anchor="start" x="301.3296" y="-146.9" font-family="Arial" font-size="14.00" fill="#666666">[varchar(255)]</text>
<polygon fill="none" stroke="#000000" points="257,-105.5 257,-135.5 456,-135.5 456,-105.5 257,-105.5"/>
<text text-anchor="start" x="264" y="-116.9" font-family="Arial" font-size="14.00" fill="#000000">password </text>
<text text-anchor="start" x="327.7882" y="-116.9" font-family="Arial" font-size="14.00" fill="#666666">[varchar(255)]</text>
<polygon fill="none" stroke="#000000" points="257,-75.5 257,-105.5 456,-105.5 456,-75.5 257,-75.5"/>
<text text-anchor="start" x="264" y="-86.9" font-family="Arial" font-size="14.00" fill="#000000">created_at </text>
<text text-anchor="start" x="334.028" y="-86.9" font-family="Arial" font-size="14.00" fill="#666666">[datetime]</text>
<polygon fill="none" stroke="#000000" points="257,-45.5 257,-75.5 456,-75.5 456,-45.5 257,-45.5"/>
<text text-anchor="start" x="264" y="-56.9" font-family="Arial" font-size="14.00" fill="#000000">updated_at </text>
<text text-anchor="start" x="337.9326" y="-56.9" font-family="Arial" font-size="14.00" fill="#666666">[datetime]</text>
<polygon fill="none" stroke="#000000" stroke-width="3" points="255,-44.5 255,-262.5 457,-262.5 457,-44.5 255,-44.5"/>
</g>
<!-- posts -->
<g id="node2" class="node">
<title>posts</title>
<polygon fill="#efefef" stroke="transparent" points="255,-655.5 255,-690.5 458,-690.5 458,-655.5 255,-655.5"/>
<polygon fill="none" stroke="#000000" points="255,-655.5 255,-690.5 458,-690.5 458,-655.5 255,-655.5"/>
<text text-anchor="start" x="271.2087" y="-668.3" font-family="Arial Bold" font-size="18.00" fill="#000000">posts</text>
<text text-anchor="start" x="314.2233" y="-668.3" font-family="Arial" font-size="14.00" fill="#000000">    </text>
<text text-anchor="start" x="348.4281" y="-668.3" font-family="Arial" font-size="14.00" fill="#666666">[BASE TABLE]</text>
<polygon fill="none" stroke="#000000" points="255,-625.5 255,-655.5 458,-655.5 458,-625.5 255,-625.5"/>
<text text-anchor="start" x="262" y="-636.9" font-family="Arial" font-size="14.00" fill="#000000">id    </text>
<text text-anchor="start" x="307.094" y="-636.9" font-family="Arial" font-size="14.00" fill="#666666">[int unsigned]</text>
<polygon fill="none" stroke="#000000" points="255,-595.5 255,-625.5 458,-625.5 458,-595.5 255,-595.5"/>
<text text-anchor="start" x="262" y="-606.9" font-family="Arial" font-size="14.00" fill="#000000">admin_id    </text>
<text text-anchor="start" x="352.9916" y="-606.9" font-family="Arial" font-size="14.00" fill="#666666">[int unsigned]</text>
<polygon fill="none" stroke="#000000" points="255,-565.5 255,-595.5 458,-595.5 458,-565.5 255,-565.5"/>
<text text-anchor="start" x="261.594" y="-576.9" font-family="Arial" font-size="14.00" fill="#000000">category_id    </text>
<text text-anchor="start" x="368.1522" y="-576.9" font-family="Arial" font-size="14.00" fill="#666666">[int unsigned]</text>
<polygon fill="none" stroke="#000000" points="255,-535.5 255,-565.5 458,-565.5 458,-535.5 255,-535.5"/>
<text text-anchor="start" x="262" y="-546.9" font-family="Arial" font-size="14.00" fill="#000000">title    </text>
<text text-anchor="start" x="317.9818" y="-546.9" font-family="Arial" font-size="14.00" fill="#666666">[varchar(255)]</text>
<polygon fill="none" stroke="#000000" points="255,-505.5 255,-535.5 458,-535.5 458,-505.5 255,-505.5"/>
<text text-anchor="start" x="262" y="-516.9" font-family="Arial" font-size="14.00" fill="#000000">md_body    </text>
<text text-anchor="start" x="353.7784" y="-516.9" font-family="Arial" font-size="14.00" fill="#666666">[longtext]</text>
<polygon fill="none" stroke="#000000" points="255,-475.5 255,-505.5 458,-505.5 458,-475.5 255,-475.5"/>
<text text-anchor="start" x="262" y="-486.9" font-family="Arial" font-size="14.00" fill="#000000">html_body    </text>
<text text-anchor="start" x="360.7756" y="-486.9" font-family="Arial" font-size="14.00" fill="#666666">[longtext]</text>
<polygon fill="none" stroke="#000000" points="255,-445.5 255,-475.5 458,-475.5 458,-445.5 255,-445.5"/>
<text text-anchor="start" x="262" y="-456.9" font-family="Arial" font-size="14.00" fill="#000000">status    </text>
<text text-anchor="start" x="333.5512" y="-456.9" font-family="Arial" font-size="14.00" fill="#666666">[varchar(255)]</text>
<polygon fill="none" stroke="#000000" points="255,-415.5 255,-445.5 458,-445.5 458,-415.5 255,-415.5"/>
<text text-anchor="start" x="262" y="-426.9" font-family="Arial" font-size="14.00" fill="#000000">created_at    </text>
<text text-anchor="start" x="362.3422" y="-426.9" font-family="Arial" font-size="14.00" fill="#666666">[datetime]</text>
<polygon fill="none" stroke="#000000" points="255,-385.5 255,-415.5 458,-415.5 458,-385.5 255,-385.5"/>
<text text-anchor="start" x="262" y="-396.9" font-family="Arial" font-size="14.00" fill="#000000">updated_at    </text>
<text text-anchor="start" x="366.2468" y="-396.9" font-family="Arial" font-size="14.00" fill="#666666">[datetime]</text>
</g>
<!-- posts&#45;&gt;admins -->
<g id="edge1" class="edge">
<title>posts:admin_id&#45;&gt;admins:id</title>
<path fill="none" stroke="#000000" d="M244.999,-608.7166C166.3988,-579.8604 171.5823,-210.5 257,-210.5"/>
<polygon fill="#000000" stroke="#000000" points="245.1553,-608.7444 254.21,-614.9301 250.0776,-609.6222 255,-610.5 255,-610.5 255,-610.5 250.0776,-609.6222 255.79,-606.0699 245.1553,-608.7444 245.1553,-608.7444"/>
<text text-anchor="start" x="7.167" y="-620.5" font-family="Arial" font-size="10.00" fill="#000000">FOREIGN KEY (admin_id) REFERENCES admins (id)</text>
</g>
</g>
</svg>
