<?xml version="1.0" encoding="UTF-8" standalone="no"?>
<!DOCTYPE svg PUBLIC "-//W3C//DTD SVG 1.1//EN"
 "http://www.w3.org/Graphics/SVG/1.1/DTD/svg11.dtd">
<!-- Generated by graphviz version 2.40.1 (20161225.0304)
 -->
<!-- Title: archived_tag_post Pages: 1 -->
<svg width="820pt" height="712pt"
 viewBox="0.00 0.00 820.00 712.00" xmlns="http://www.w3.org/2000/svg" xmlns:xlink="http://www.w3.org/1999/xlink">
<g id="graph0" class="graph" transform="scale(1 1) rotate(0) translate(4 708)">
<title>archived_tag_post</title>
<polygon fill="#ffffff" stroke="transparent" points="-4,4 -4,-708 816,-708 816,4 -4,4"/>
<!-- archived_tag_post -->
<g id="node1" class="node">
<title>archived_tag_post</title>
<polygon fill="#efefef" stroke="transparent" points="229,-622.5 229,-657.5 487,-657.5 487,-622.5 229,-622.5"/>
<polygon fill="none" stroke="#000000" points="229,-622.5 229,-657.5 487,-657.5 487,-622.5 229,-622.5"/>
<text text-anchor="start" x="235.8467" y="-635.3" font-family="Arial Bold" font-size="18.00" fill="#000000">archived_tag_post</text>
<text text-anchor="start" x="382.8995" y="-635.3" font-family="Arial" font-size="14.00" fill="#000000"> </text>
<text text-anchor="start" x="386.7901" y="-635.3" font-family="Arial" font-size="14.00" fill="#666666">[BASE TABLE]</text>
<polygon fill="none" stroke="#000000" points="229,-592.5 229,-622.5 487,-622.5 487,-592.5 229,-592.5"/>
<text text-anchor="start" x="236" y="-603.9" font-family="Arial" font-size="14.00" fill="#000000">id </text>
<text text-anchor="start" x="250.7798" y="-603.9" font-family="Arial" font-size="14.00" fill="#666666">[int unsigned]</text>
<polygon fill="none" stroke="#000000" points="229,-562.5 229,-592.5 487,-592.5 487,-562.5 229,-562.5"/>
<text text-anchor="start" x="236" y="-573.9" font-family="Arial" font-size="14.00" fill="#000000">tag_id </text>
<text text-anchor="start" x="278.0182" y="-573.9" font-family="Arial" font-size="14.00" fill="#666666">[int unsigned]</text>
<polygon fill="none" stroke="#000000" points="229,-532.5 229,-562.5 487,-562.5 487,-532.5 229,-532.5"/>
<text text-anchor="start" x="236" y="-543.9" font-family="Arial" font-size="14.00" fill="#000000">archived_post_id </text>
<text text-anchor="start" x="345.6984" y="-543.9" font-family="Arial" font-size="14.00" fill="#666666">[int unsigned]</text>
<polygon fill="none" stroke="#000000" points="229,-502.5 229,-532.5 487,-532.5 487,-502.5 229,-502.5"/>
<text text-anchor="start" x="236" y="-513.9" font-family="Arial" font-size="14.00" fill="#000000">created_at </text>
<text text-anchor="start" x="306.028" y="-513.9" font-family="Arial" font-size="14.00" fill="#666666">[datetime]</text>
<polygon fill="none" stroke="#000000" points="229,-472.5 229,-502.5 487,-502.5 487,-472.5 229,-472.5"/>
<text text-anchor="start" x="236" y="-483.9" font-family="Arial" font-size="14.00" fill="#000000">updated_at </text>
<text text-anchor="start" x="309.9326" y="-483.9" font-family="Arial" font-size="14.00" fill="#666666">[datetime]</text>
<polygon fill="none" stroke="#000000" stroke-width="3" points="227.5,-471.5 227.5,-659.5 488.5,-659.5 488.5,-471.5 227.5,-471.5"/>
</g>
<!-- tags -->
<g id="node2" class="node">
<title>tags</title>
<polygon fill="#efefef" stroke="transparent" points="136,-237.5 136,-272.5 285,-272.5 285,-237.5 136,-237.5"/>
<polygon fill="none" stroke="#000000" points="136,-237.5 136,-272.5 285,-272.5 285,-237.5 136,-237.5"/>
<text text-anchor="start" x="144.8658" y="-250.3" font-family="Arial Bold" font-size="18.00" fill="#000000">tags</text>
<text text-anchor="start" x="178.8804" y="-250.3" font-family="Arial" font-size="14.00" fill="#000000"> </text>
<text text-anchor="start" x="182.771" y="-250.3" font-family="Arial" font-size="14.00" fill="#666666">[BASE TABLE]</text>
<polygon fill="none" stroke="#000000" points="136,-207.5 136,-237.5 285,-237.5 285,-207.5 136,-207.5"/>
<text text-anchor="start" x="143" y="-218.9" font-family="Arial" font-size="14.00" fill="#000000">id </text>
<text text-anchor="start" x="157.7798" y="-218.9" font-family="Arial" font-size="14.00" fill="#666666">[int unsigned]</text>
<polygon fill="none" stroke="#000000" points="136,-177.5 136,-207.5 285,-207.5 285,-177.5 136,-177.5"/>
<text text-anchor="start" x="143" y="-188.9" font-family="Arial" font-size="14.00" fill="#000000">name </text>
<text text-anchor="start" x="181.899" y="-188.9" font-family="Arial" font-size="14.00" fill="#666666">[varchar(255)]</text>
<polygon fill="none" stroke="#000000" points="136,-147.5 136,-177.5 285,-177.5 285,-147.5 136,-147.5"/>
<text text-anchor="start" x="143" y="-158.9" font-family="Arial" font-size="14.00" fill="#000000">created_at </text>
<text text-anchor="start" x="213.028" y="-158.9" font-family="Arial" font-size="14.00" fill="#666666">[datetime]</text>
<polygon fill="none" stroke="#000000" points="136,-117.5 136,-147.5 285,-147.5 285,-117.5 136,-117.5"/>
<text text-anchor="start" x="142.8037" y="-128.9" font-family="Arial" font-size="14.00" fill="#000000">updated_at </text>
<text text-anchor="start" x="216.7363" y="-128.9" font-family="Arial" font-size="14.00" fill="#666666">[datetime]</text>
</g>
<!-- archived_tag_post&#45;&gt;tags -->
<g id="edge1" class="edge">
<title>archived_tag_post:tag_id&#45;&gt;tags:id</title>
<path fill="none" stroke="#000000" d="M218.8687,-576.8913C111.2997,-563.1016 284.1455,-319.5907 285,-316 294.6202,-275.5733 326.5556,-222.5 285,-222.5"/>
<polygon fill="#000000" stroke="#000000" points="219.018,-576.9002 228.7301,-581.9919 224.009,-577.2001 229,-577.5 229,-577.5 229,-577.5 224.009,-577.2001 229.2699,-573.0081 219.018,-576.9002 219.018,-576.9002"/>
<text text-anchor="start" x="7.495" y="-587.5" font-family="Arial" font-size="10.00" fill="#000000">FOREIGN KEY (tag_id) REFERENCES tags (id)</text>
</g>
<!-- archived_posts -->
<g id="node3" class="node">
<title>archived_posts</title>
<polygon fill="#efefef" stroke="transparent" points="389,-312.5 389,-347.5 621,-347.5 621,-312.5 389,-312.5"/>
<polygon fill="none" stroke="#000000" points="389,-312.5 389,-347.5 621,-347.5 621,-312.5 389,-312.5"/>
<text text-anchor="start" x="395.8571" y="-325.3" font-family="Arial Bold" font-size="18.00" fill="#000000">archived_posts</text>
<text text-anchor="start" x="516.8891" y="-325.3" font-family="Arial" font-size="14.00" fill="#000000"> </text>
<text text-anchor="start" x="520.7797" y="-325.3" font-family="Arial" font-size="14.00" fill="#666666">[BASE TABLE]</text>
<polygon fill="none" stroke="#000000" points="389,-282.5 389,-312.5 621,-312.5 621,-282.5 389,-282.5"/>
<text text-anchor="start" x="396" y="-293.9" font-family="Arial" font-size="14.00" fill="#000000">id </text>
<text text-anchor="start" x="410.7798" y="-293.9" font-family="Arial" font-size="14.00" fill="#666666">[int unsigned]</text>
<polygon fill="none" stroke="#000000" points="389,-252.5 389,-282.5 621,-282.5 621,-252.5 389,-252.5"/>
<text text-anchor="start" x="396" y="-263.9" font-family="Arial" font-size="14.00" fill="#000000">admin_id </text>
<text text-anchor="start" x="456.6774" y="-263.9" font-family="Arial" font-size="14.00" fill="#666666">[int unsigned]</text>
<polygon fill="none" stroke="#000000" points="389,-222.5 389,-252.5 621,-252.5 621,-222.5 389,-222.5"/>
<text text-anchor="start" x="396" y="-233.9" font-family="Arial" font-size="14.00" fill="#000000">category_id </text>
<text text-anchor="start" x="472.244" y="-233.9" font-family="Arial" font-size="14.00" fill="#666666">[int unsigned]</text>
<polygon fill="none" stroke="#000000" points="389,-192.5 389,-222.5 621,-222.5 621,-192.5 389,-192.5"/>
<text text-anchor="start" x="396" y="-203.9" font-family="Arial" font-size="14.00" fill="#000000">title </text>
<text text-anchor="start" x="421.6676" y="-203.9" font-family="Arial" font-size="14.00" fill="#666666">[varchar(255)]</text>
<polygon fill="none" stroke="#000000" points="389,-162.5 389,-192.5 621,-192.5 621,-162.5 389,-162.5"/>
<text text-anchor="start" x="396" y="-173.9" font-family="Arial" font-size="14.00" fill="#000000">md_body </text>
<text text-anchor="start" x="457.4642" y="-173.9" font-family="Arial" font-size="14.00" fill="#666666">[longtext]</text>
<polygon fill="none" stroke="#000000" points="389,-132.5 389,-162.5 621,-162.5 621,-132.5 389,-132.5"/>
<text text-anchor="start" x="396" y="-143.9" font-family="Arial" font-size="14.00" fill="#000000">html_body </text>
<text text-anchor="start" x="464.4614" y="-143.9" font-family="Arial" font-size="14.00" fill="#666666">[longtext]</text>
<polygon fill="none" stroke="#000000" points="389,-102.5 389,-132.5 621,-132.5 621,-102.5 389,-102.5"/>
<text text-anchor="start" x="396" y="-113.9" font-family="Arial" font-size="14.00" fill="#000000">status </text>
<text text-anchor="start" x="437.237" y="-113.9" font-family="Arial" font-size="14.00" fill="#666666">[varchar(255)]</text>
<polygon fill="none" stroke="#000000" points="389,-72.5 389,-102.5 621,-102.5 621,-72.5 389,-72.5"/>
<text text-anchor="start" x="396" y="-83.9" font-family="Arial" font-size="14.00" fill="#000000">created_at </text>
<text text-anchor="start" x="466.028" y="-83.9" font-family="Arial" font-size="14.00" fill="#666666">[datetime]</text>
<polygon fill="none" stroke="#000000" points="389,-42.5 389,-72.5 621,-72.5 621,-42.5 389,-42.5"/>
<text text-anchor="start" x="396" y="-53.9" font-family="Arial" font-size="14.00" fill="#000000">updated_at </text>
<text text-anchor="start" x="469.9326" y="-53.9" font-family="Arial" font-size="14.00" fill="#666666">[datetime]</text>
</g>
<!-- archived_tag_post&#45;&gt;archived_posts -->
<g id="edge2" class="edge">
<title>archived_tag_post:archived_post_id&#45;&gt;archived_posts:id</title>
<path fill="none" stroke="#000000" d="M497.1868,-546.4021C537.2965,-536.8919 515.4976,-467.828 487,-427 460.4419,-388.9506 415.5581,-429.0494 389,-391 365.2154,-356.9242 347.4444,-297.5 389,-297.5"/>
<polygon fill="#000000" stroke="#000000" points="496.9424,-546.4284 486.5178,-543.0259 491.9712,-546.9642 487,-547.5 487,-547.5 487,-547.5 491.9712,-546.9642 487.4822,-551.9741 496.9424,-546.4284 496.9424,-546.4284"/>
<text text-anchor="start" x="494.152" y="-557.5" font-family="Arial" font-size="10.00" fill="#000000">FOREIGN KEY (archived_post_id) REFERENCES archived_posts (id)</text>
</g>
</g>
</svg>
