<?xml version="1.0" encoding="UTF-8" standalone="no"?>
<!DOCTYPE svg PUBLIC "-//W3C//DTD SVG 1.1//EN"
 "http://www.w3.org/Graphics/SVG/1.1/DTD/svg11.dtd">
<!-- Generated by graphviz version 2.40.1 (20161225.0304)
 -->
<!-- Title: archived_comments Pages: 1 -->
<svg width="651pt" height="742pt"
 viewBox="0.00 0.00 651.00 742.00" xmlns="http://www.w3.org/2000/svg" xmlns:xlink="http://www.w3.org/1999/xlink">
<g id="graph0" class="graph" transform="scale(1 1) rotate(0) translate(4 738)">
<title>archived_comments</title>
<polygon fill="#ffffff" stroke="transparent" points="-4,4 -4,-738 647,-738 647,4 -4,4"/>
<!-- archived_comments -->
<g id="node1" class="node">
<title>archived_comments</title>
<polygon fill="#efefef" stroke="transparent" points="46,-652.5 46,-687.5 318,-687.5 318,-652.5 46,-652.5"/>
<polygon fill="none" stroke="#000000" points="46,-652.5 46,-687.5 318,-687.5 318,-652.5 46,-652.5"/>
<text text-anchor="start" x="52.8618" y="-665.3" font-family="Arial Bold" font-size="18.00" fill="#000000">archived_comments</text>
<text text-anchor="start" x="213.8844" y="-665.3" font-family="Arial" font-size="14.00" fill="#000000"> </text>
<text text-anchor="start" x="217.775" y="-665.3" font-family="Arial" font-size="14.00" fill="#666666">[BASE TABLE]</text>
<polygon fill="none" stroke="#000000" points="46,-622.5 46,-652.5 318,-652.5 318,-622.5 46,-622.5"/>
<text text-anchor="start" x="53" y="-633.9" font-family="Arial" font-size="14.00" fill="#000000">id </text>
<text text-anchor="start" x="67.7798" y="-633.9" font-family="Arial" font-size="14.00" fill="#666666">[int unsigned]</text>
<polygon fill="none" stroke="#000000" points="46,-592.5 46,-622.5 318,-622.5 318,-592.5 46,-592.5"/>
<text text-anchor="start" x="53" y="-603.9" font-family="Arial" font-size="14.00" fill="#000000">archived_post_id </text>
<text text-anchor="start" x="162.6984" y="-603.9" font-family="Arial" font-size="14.00" fill="#666666">[int unsigned]</text>
<polygon fill="none" stroke="#000000" points="46,-562.5 46,-592.5 318,-592.5 318,-562.5 46,-562.5"/>
<text text-anchor="start" x="53" y="-573.9" font-family="Arial" font-size="14.00" fill="#000000">body </text>
<text text-anchor="start" x="87.2384" y="-573.9" font-family="Arial" font-size="14.00" fill="#666666">[longtext]</text>
<polygon fill="none" stroke="#000000" points="46,-532.5 46,-562.5 318,-562.5 318,-532.5 46,-532.5"/>
<text text-anchor="start" x="53" y="-543.9" font-family="Arial" font-size="14.00" fill="#000000">status </text>
<text text-anchor="start" x="94.237" y="-543.9" font-family="Arial" font-size="14.00" fill="#666666">[varchar(255)]</text>
<polygon fill="none" stroke="#000000" points="46,-502.5 46,-532.5 318,-532.5 318,-502.5 46,-502.5"/>
<text text-anchor="start" x="53" y="-513.9" font-family="Arial" font-size="14.00" fill="#000000">created_at </text>
<text text-anchor="start" x="123.028" y="-513.9" font-family="Arial" font-size="14.00" fill="#666666">[datetime]</text>
<polygon fill="none" stroke="#000000" points="46,-472.5 46,-502.5 318,-502.5 318,-472.5 46,-472.5"/>
<text text-anchor="start" x="53" y="-483.9" font-family="Arial" font-size="14.00" fill="#000000">updated_at </text>
<text text-anchor="start" x="126.9326" y="-483.9" font-family="Arial" font-size="14.00" fill="#666666">[datetime]</text>
<polygon fill="none" stroke="#000000" stroke-width="3" points="44.5,-471.5 44.5,-689.5 319.5,-689.5 319.5,-471.5 44.5,-471.5"/>
</g>
<!-- archived_posts -->
<g id="node2" class="node">
<title>archived_posts</title>
<polygon fill="#efefef" stroke="transparent" points="66,-312.5 66,-347.5 298,-347.5 298,-312.5 66,-312.5"/>
<polygon fill="none" stroke="#000000" points="66,-312.5 66,-347.5 298,-347.5 298,-312.5 66,-312.5"/>
<text text-anchor="start" x="72.8571" y="-325.3" font-family="Arial Bold" font-size="18.00" fill="#000000">archived_posts</text>
<text text-anchor="start" x="193.8891" y="-325.3" font-family="Arial" font-size="14.00" fill="#000000"> </text>
<text text-anchor="start" x="197.7797" y="-325.3" font-family="Arial" font-size="14.00" fill="#666666">[BASE TABLE]</text>
<polygon fill="none" stroke="#000000" points="66,-282.5 66,-312.5 298,-312.5 298,-282.5 66,-282.5"/>
<text text-anchor="start" x="73" y="-293.9" font-family="Arial" font-size="14.00" fill="#000000">id </text>
<text text-anchor="start" x="87.7798" y="-293.9" font-family="Arial" font-size="14.00" fill="#666666">[int unsigned]</text>
<polygon fill="none" stroke="#000000" points="66,-252.5 66,-282.5 298,-282.5 298,-252.5 66,-252.5"/>
<text text-anchor="start" x="73" y="-263.9" font-family="Arial" font-size="14.00" fill="#000000">admin_id </text>
<text text-anchor="start" x="133.6774" y="-263.9" font-family="Arial" font-size="14.00" fill="#666666">[int unsigned]</text>
<polygon fill="none" stroke="#000000" points="66,-222.5 66,-252.5 298,-252.5 298,-222.5 66,-222.5"/>
<text text-anchor="start" x="73" y="-233.9" font-family="Arial" font-size="14.00" fill="#000000">category_id </text>
<text text-anchor="start" x="149.244" y="-233.9" font-family="Arial" font-size="14.00" fill="#666666">[int unsigned]</text>
<polygon fill="none" stroke="#000000" points="66,-192.5 66,-222.5 298,-222.5 298,-192.5 66,-192.5"/>
<text text-anchor="start" x="73" y="-203.9" font-family="Arial" font-size="14.00" fill="#000000">title </text>
<text text-anchor="start" x="98.6676" y="-203.9" font-family="Arial" font-size="14.00" fill="#666666">[varchar(255)]</text>
<polygon fill="none" stroke="#000000" points="66,-162.5 66,-192.5 298,-192.5 298,-162.5 66,-162.5"/>
<text text-anchor="start" x="73" y="-173.9" font-family="Arial" font-size="14.00" fill="#000000">md_body </text>
<text text-anchor="start" x="134.4642" y="-173.9" font-family="Arial" font-size="14.00" fill="#666666">[longtext]</text>
<polygon fill="none" stroke="#000000" points="66,-132.5 66,-162.5 298,-162.5 298,-132.5 66,-132.5"/>
<text text-anchor="start" x="73" y="-143.9" font-family="Arial" font-size="14.00" fill="#000000">html_body </text>
<text text-anchor="start" x="141.4614" y="-143.9" font-family="Arial" font-size="14.00" fill="#666666">[longtext]</text>
<polygon fill="none" stroke="#000000" points="66,-102.5 66,-132.5 298,-132.5 298,-102.5 66,-102.5"/>
<text text-anchor="start" x="73" y="-113.9" font-family="Arial" font-size="14.00" fill="#000000">status </text>
<text text-anchor="start" x="114.237" y="-113.9" font-family="Arial" font-size="14.00" fill="#666666">[varchar(255)]</text>
<polygon fill="none" stroke="#000000" points="66,-72.5 66,-102.5 298,-102.5 298,-72.5 66,-72.5"/>
<text text-anchor="start" x="73" y="-83.9" font-family="Arial" font-size="14.00" fill="#000000">created_at </text>
<text text-anchor="start" x="143.028" y="-83.9" font-family="Arial" font-size="14.00" fill="#666666">[datetime]</text>
<polygon fill="none" stroke="#000000" points="66,-42.5 66,-72.5 298,-72.5 298,-42.5 66,-42.5"/>
<text text-anchor="start" x="73" y="-53.9" font-family="Arial" font-size="14.00" fill="#000000">updated_at </text>
<text text-anchor="start" x="146.9326" y="-53.9" font-family="Arial" font-size="14.00" fill="#666666">[datetime]</text>
</g>
<!-- archived_comments&#45;&gt;archived_posts -->
<g id="edge1" class="edge">
<title>archived_comments:archived_post_id&#45;&gt;archived_posts:id</title>
<path fill="none" stroke="#000000" d="M327.8331,-605.183C384.8744,-576.815 363.5266,-297.5 298,-297.5"/>
<polygon fill="#000000" stroke="#000000" points="327.7334,-605.2064 316.9679,-603.12 322.8667,-606.3532 318,-607.5 318,-607.5 318,-607.5 322.8667,-606.3532 319.0321,-611.88 327.7334,-605.2064 327.7334,-605.2064"/>
<text text-anchor="start" x="325.152" y="-617.5" font-family="Arial" font-size="10.00" fill="#000000">FOREIGN KEY (archived_post_id) REFERENCES archived_posts (id)</text>
</g>
</g>
</svg>
