<?xml version="1.0" encoding="UTF-8" standalone="no"?>
<!DOCTYPE svg PUBLIC "-//W3C//DTD SVG 1.1//EN"
 "http://www.w3.org/Graphics/SVG/1.1/DTD/svg11.dtd">
<!-- Generated by graphviz version 2.40.1 (20161225.0304)
 -->
<!-- Title: categories Pages: 1 -->
<svg width="547pt" height="682pt"
 viewBox="0.00 0.00 547.00 682.00" xmlns="http://www.w3.org/2000/svg" xmlns:xlink="http://www.w3.org/1999/xlink">
<g id="graph0" class="graph" transform="scale(1 1) rotate(0) translate(4 678)">
<title>categories</title>
<polygon fill="#ffffff" stroke="transparent" points="-4,4 -4,-678 543,-678 543,4 -4,4"/>
<!-- categories -->
<g id="node1" class="node">
<title>categories</title>
<polygon fill="#efefef" stroke="transparent" points="46,-165.5 46,-200.5 270,-200.5 270,-165.5 46,-165.5"/>
<polygon fill="none" stroke="#000000" points="46,-165.5 46,-200.5 270,-200.5 270,-165.5 46,-165.5"/>
<text text-anchor="start" x="52.7062" y="-178.3" font-family="Arial Bold" font-size="18.00" fill="#000000">categories</text>
<text text-anchor="start" x="135.7258" y="-178.3" font-family="Arial" font-size="14.00" fill="#000000">    </text>
<text text-anchor="start" x="169.9306" y="-178.3" font-family="Arial" font-size="14.00" fill="#666666">[BASE TABLE]</text>
<polygon fill="none" stroke="#000000" points="46,-135.5 46,-165.5 270,-165.5 270,-135.5 46,-135.5"/>
<text text-anchor="start" x="53" y="-146.9" font-family="Arial" font-size="14.00" fill="#000000">id </text>
<text text-anchor="start" x="67.7798" y="-146.9" font-family="Arial" font-size="14.00" fill="#666666">[int unsigned]</text>
<polygon fill="none" stroke="#000000" points="46,-105.5 46,-135.5 270,-135.5 270,-105.5 46,-105.5"/>
<text text-anchor="start" x="53" y="-116.9" font-family="Arial" font-size="14.00" fill="#000000">name </text>
<text text-anchor="start" x="91.899" y="-116.9" font-family="Arial" font-size="14.00" fill="#666666">[varchar(255)]</text>
<polygon fill="none" stroke="#000000" points="46,-75.5 46,-105.5 270,-105.5 270,-75.5 46,-75.5"/>
<text text-anchor="start" x="53" y="-86.9" font-family="Arial" font-size="14.00" fill="#000000">created_at </text>
<text text-anchor="start" x="123.028" y="-86.9" font-family="Arial" font-size="14.00" fill="#666666">[datetime]</text>
<polygon fill="none" stroke="#000000" points="46,-45.5 46,-75.5 270,-75.5 270,-45.5 46,-45.5"/>
<text text-anchor="start" x="53" y="-56.9" font-family="Arial" font-size="14.00" fill="#000000">updated_at </text>
<text text-anchor="start" x="126.9326" y="-56.9" font-family="Arial" font-size="14.00" fill="#666666">[datetime]</text>
<polygon fill="none" stroke="#000000" stroke-width="3" points="44.5,-44.5 44.5,-202.5 271.5,-202.5 271.5,-44.5 44.5,-44.5"/>
</g>
<!-- posts -->
<g id="node2" class="node">
<title>posts</title>
<polygon fill="#efefef" stroke="transparent" points="56,-595.5 56,-630.5 259,-630.5 259,-595.5 56,-595.5"/>
<polygon fill="none" stroke="#000000" points="56,-595.5 56,-630.5 259,-630.5 259,-595.5 56,-595.5"/>
<text text-anchor="start" x="72.2087" y="-608.3" font-family="Arial Bold" font-size="18.00" fill="#000000">posts</text>
<text text-anchor="start" x="115.2233" y="-608.3" font-family="Arial" font-size="14.00" fill="#000000">    </text>
<text text-anchor="start" x="149.4281" y="-608.3" font-family="Arial" font-size="14.00" fill="#666666">[BASE TABLE]</text>
<polygon fill="none" stroke="#000000" points="56,-565.5 56,-595.5 259,-595.5 259,-565.5 56,-565.5"/>
<text text-anchor="start" x="63" y="-576.9" font-family="Arial" font-size="14.00" fill="#000000">id    </text>
<text text-anchor="start" x="108.094" y="-576.9" font-family="Arial" font-size="14.00" fill="#666666">[int unsigned]</text>
<polygon fill="none" stroke="#000000" points="56,-535.5 56,-565.5 259,-565.5 259,-535.5 56,-535.5"/>
<text text-anchor="start" x="63" y="-546.9" font-family="Arial" font-size="14.00" fill="#000000">admin_id    </text>
<text text-anchor="start" x="153.9916" y="-546.9" font-family="Arial" font-size="14.00" fill="#666666">[int unsigned]</text>
<polygon fill="none" stroke="#000000" points="56,-505.5 56,-535.5 259,-535.5 259,-505.5 56,-505.5"/>
<text text-anchor="start" x="62.594" y="-516.9" font-family="Arial" font-size="14.00" fill="#000000">category_id    </text>
<text text-anchor="start" x="169.1522" y="-516.9" font-family="Arial" font-size="14.00" fill="#666666">[int unsigned]</text>
<polygon fill="none" stroke="#000000" points="56,-475.5 56,-505.5 259,-505.5 259,-475.5 56,-475.5"/>
<text text-anchor="start" x="63" y="-486.9" font-family="Arial" font-size="14.00" fill="#000000">title    </text>
<text text-anchor="start" x="118.9818" y="-486.9" font-family="Arial" font-size="14.00" fill="#666666">[varchar(255)]</text>
<polygon fill="none" stroke="#000000" points="56,-445.5 56,-475.5 259,-475.5 259,-445.5 56,-445.5"/>
<text text-anchor="start" x="63" y="-456.9" font-family="Arial" font-size="14.00" fill="#000000">md_body    </text>
<text text-anchor="start" x="154.7784" y="-456.9" font-family="Arial" font-size="14.00" fill="#666666">[longtext]</text>
<polygon fill="none" stroke="#000000" points="56,-415.5 56,-445.5 259,-445.5 259,-415.5 56,-415.5"/>
<text text-anchor="start" x="63" y="-426.9" font-family="Arial" font-size="14.00" fill="#000000">html_body    </text>
<text text-anchor="start" x="161.7756" y="-426.9" font-family="Arial" font-size="14.00" fill="#666666">[longtext]</text>
<polygon fill="none" stroke="#000000" points="56,-385.5 56,-415.5 259,-415.5 259,-385.5 56,-385.5"/>
<text text-anchor="start" x="63" y="-396.9" font-family="Arial" font-size="14.00" fill="#000000">status    </text>
<text text-anchor="start" x="134.5512" y="-396.9" font-family="Arial" font-size="14.00" fill="#666666">[varchar(255)]</text>
<polygon fill="none" stroke="#000000" points="56,-355.5 56,-385.5 259,-385.5 259,-355.5 56,-355.5"/>
<text text-anchor="start" x="63" y="-366.9" font-family="Arial" font-size="14.00" fill="#000000">created_at    </text>
<text text-anchor="start" x="163.3422" y="-366.9" font-family="Arial" font-size="14.00" fill="#666666">[datetime]</text>
<polygon fill="none" stroke="#000000" points="56,-325.5 56,-355.5 259,-355.5 259,-325.5 56,-325.5"/>
<text text-anchor="start" x="63" y="-336.9" font-family="Arial" font-size="14.00" fill="#000000">updated_at    </text>
<text text-anchor="start" x="167.2468" y="-336.9" font-family="Arial" font-size="14.00" fill="#666666">[datetime]</text>
</g>
<!-- posts&#45;&gt;categories -->
<g id="edge1" class="edge">
<title>posts:category_id&#45;&gt;categories:id</title>
<path fill="none" stroke="#000000" d="M269.0456,-519.9897C362.0368,-510.1662 324.8741,-360.942 259,-283 197.0257,-209.6722 107.9743,-320.3278 46,-247 18.3151,-214.2433 3.1111,-150.5 46,-150.5"/>
<polygon fill="#000000" stroke="#000000" points="268.9871,-519.9925 258.7716,-516.0058 263.9936,-520.2463 259,-520.5 259,-520.5 259,-520.5 263.9936,-520.2463 259.2284,-524.9942 268.9871,-519.9925 268.9871,-519.9925"/>
<text text-anchor="start" x="265.659" y="-530.5" font-family="Arial" font-size="10.00" fill="#000000">FOREIGN KEY (category_id) REFERENCES categories (id)</text>
</g>
</g>
</svg>
