<?xml version="1.0" encoding="UTF-8" standalone="no"?>
<!DOCTYPE svg PUBLIC "-//W3C//DTD SVG 1.1//EN"
 "http://www.w3.org/Graphics/SVG/1.1/DTD/svg11.dtd">
<!-- Generated by graphviz version 2.40.1 (20161225.0304)
 -->
<!-- Title: comments Pages: 1 -->
<svg width="487pt" height="742pt"
 viewBox="0.00 0.00 487.00 742.00" xmlns="http://www.w3.org/2000/svg" xmlns:xlink="http://www.w3.org/1999/xlink">
<g id="graph0" class="graph" transform="scale(1 1) rotate(0) translate(4 738)">
<title>comments</title>
<polygon fill="#ffffff" stroke="transparent" points="-4,4 -4,-738 483,-738 483,4 -4,4"/>
<!-- comments -->
<g id="node1" class="node">
<title>comments</title>
<polygon fill="#efefef" stroke="transparent" points="239,-652.5 239,-687.5 433,-687.5 433,-652.5 239,-652.5"/>
<polygon fill="none" stroke="#000000" points="239,-652.5 239,-687.5 433,-687.5 433,-652.5 239,-652.5"/>
<text text-anchor="start" x="245.8705" y="-665.3" font-family="Arial Bold" font-size="18.00" fill="#000000">comments</text>
<text text-anchor="start" x="328.8757" y="-665.3" font-family="Arial" font-size="14.00" fill="#000000"> </text>
<text text-anchor="start" x="332.7663" y="-665.3" font-family="Arial" font-size="14.00" fill="#666666">[BASE TABLE]</text>
<polygon fill="none" stroke="#000000" points="239,-622.5 239,-652.5 433,-652.5 433,-622.5 239,-622.5"/>
<text text-anchor="start" x="246" y="-633.9" font-family="Arial" font-size="14.00" fill="#000000">id </text>
<text text-anchor="start" x="260.7798" y="-633.9" font-family="Arial" font-size="14.00" fill="#666666">[int unsigned]</text>
<polygon fill="none" stroke="#000000" points="239,-592.5 239,-622.5 433,-622.5 433,-592.5 239,-592.5"/>
<text text-anchor="start" x="246" y="-603.9" font-family="Arial" font-size="14.00" fill="#000000">post_id </text>
<text text-anchor="start" x="295.0182" y="-603.9" font-family="Arial" font-size="14.00" fill="#666666">[int unsigned]</text>
<polygon fill="none" stroke="#000000" points="239,-562.5 239,-592.5 433,-592.5 433,-562.5 239,-562.5"/>
<text text-anchor="start" x="246" y="-573.9" font-family="Arial" font-size="14.00" fill="#000000">body </text>
<text text-anchor="start" x="280.2384" y="-573.9" font-family="Arial" font-size="14.00" fill="#666666">[longtext]</text>
<polygon fill="none" stroke="#000000" points="239,-532.5 239,-562.5 433,-562.5 433,-532.5 239,-532.5"/>
<text text-anchor="start" x="246" y="-543.9" font-family="Arial" font-size="14.00" fill="#000000">status </text>
<text text-anchor="start" x="287.237" y="-543.9" font-family="Arial" font-size="14.00" fill="#666666">[varchar(255)]</text>
<polygon fill="none" stroke="#000000" points="239,-502.5 239,-532.5 433,-532.5 433,-502.5 239,-502.5"/>
<text text-anchor="start" x="246" y="-513.9" font-family="Arial" font-size="14.00" fill="#000000">created_at </text>
<text text-anchor="start" x="316.028" y="-513.9" font-family="Arial" font-size="14.00" fill="#666666">[datetime]</text>
<polygon fill="none" stroke="#000000" points="239,-472.5 239,-502.5 433,-502.5 433,-472.5 239,-472.5"/>
<text text-anchor="start" x="246" y="-483.9" font-family="Arial" font-size="14.00" fill="#000000">updated_at </text>
<text text-anchor="start" x="319.9326" y="-483.9" font-family="Arial" font-size="14.00" fill="#666666">[datetime]</text>
<polygon fill="none" stroke="#000000" stroke-width="3" points="237.5,-471.5 237.5,-689.5 434.5,-689.5 434.5,-471.5 237.5,-471.5"/>
</g>
<!-- posts -->
<g id="node2" class="node">
<title>posts</title>
<polygon fill="#efefef" stroke="transparent" points="249,-312.5 249,-347.5 422,-347.5 422,-312.5 249,-312.5"/>
<polygon fill="none" stroke="#000000" points="249,-312.5 249,-347.5 422,-347.5 422,-312.5 249,-312.5"/>
<text text-anchor="start" x="265.3658" y="-325.3" font-family="Arial Bold" font-size="18.00" fill="#000000">posts</text>
<text text-anchor="start" x="308.3804" y="-325.3" font-family="Arial" font-size="14.00" fill="#000000"> </text>
<text text-anchor="start" x="312.271" y="-325.3" font-family="Arial" font-size="14.00" fill="#666666">[BASE TABLE]</text>
<polygon fill="none" stroke="#000000" points="249,-282.5 249,-312.5 422,-312.5 422,-282.5 249,-282.5"/>
<text text-anchor="start" x="256" y="-293.9" font-family="Arial" font-size="14.00" fill="#000000">id </text>
<text text-anchor="start" x="270.7798" y="-293.9" font-family="Arial" font-size="14.00" fill="#666666">[int unsigned]</text>
<polygon fill="none" stroke="#000000" points="249,-252.5 249,-282.5 422,-282.5 422,-252.5 249,-252.5"/>
<text text-anchor="start" x="256" y="-263.9" font-family="Arial" font-size="14.00" fill="#000000">admin_id </text>
<text text-anchor="start" x="316.6774" y="-263.9" font-family="Arial" font-size="14.00" fill="#666666">[int unsigned]</text>
<polygon fill="none" stroke="#000000" points="249,-222.5 249,-252.5 422,-252.5 422,-222.5 249,-222.5"/>
<text text-anchor="start" x="255.7511" y="-233.9" font-family="Arial" font-size="14.00" fill="#000000">category_id </text>
<text text-anchor="start" x="331.9951" y="-233.9" font-family="Arial" font-size="14.00" fill="#666666">[int unsigned]</text>
<polygon fill="none" stroke="#000000" points="249,-192.5 249,-222.5 422,-222.5 422,-192.5 249,-192.5"/>
<text text-anchor="start" x="256" y="-203.9" font-family="Arial" font-size="14.00" fill="#000000">title </text>
<text text-anchor="start" x="281.6676" y="-203.9" font-family="Arial" font-size="14.00" fill="#666666">[varchar(255)]</text>
<polygon fill="none" stroke="#000000" points="249,-162.5 249,-192.5 422,-192.5 422,-162.5 249,-162.5"/>
<text text-anchor="start" x="256" y="-173.9" font-family="Arial" font-size="14.00" fill="#000000">md_body </text>
<text text-anchor="start" x="317.4642" y="-173.9" font-family="Arial" font-size="14.00" fill="#666666">[longtext]</text>
<polygon fill="none" stroke="#000000" points="249,-132.5 249,-162.5 422,-162.5 422,-132.5 249,-132.5"/>
<text text-anchor="start" x="256" y="-143.9" font-family="Arial" font-size="14.00" fill="#000000">html_body </text>
<text text-anchor="start" x="324.4614" y="-143.9" font-family="Arial" font-size="14.00" fill="#666666">[longtext]</text>
<polygon fill="none" stroke="#000000" points="249,-102.5 249,-132.5 422,-132.5 422,-102.5 249,-102.5"/>
<text text-anchor="start" x="256" y="-113.9" font-family="Arial" font-size="14.00" fill="#000000">status </text>
<text text-anchor="start" x="297.237" y="-113.9" font-family="Arial" font-size="14.00" fill="#666666">[varchar(255)]</text>
<polygon fill="none" stroke="#000000" points="249,-72.5 249,-102.5 422,-102.5 422,-72.5 249,-72.5"/>
<text text-anchor="start" x="256" y="-83.9" font-family="Arial" font-size="14.00" fill="#000000">created_at </text>
<text text-anchor="start" x="326.028" y="-83.9" font-family="Arial" font-size="14.00" fill="#666666">[datetime]</text>
<polygon fill="none" stroke="#000000" points="249,-42.5 249,-72.5 422,-72.5 422,-42.5 249,-42.5"/>
<text text-anchor="start" x="256" y="-53.9" font-family="Arial" font-size="14.00" fill="#000000">updated_at </text>
<text text-anchor="start" x="329.9326" y="-53.9" font-family="Arial" font-size="14.00" fill="#666666">[datetime]</text>
</g>
<!-- comments&#45;&gt;posts -->
<g id="edge1" class="edge">
<title>comments:post_id&#45;&gt;posts:id</title>
<path fill="none" stroke="#000000" d="M228.8437,-606.7982C161.4508,-596.964 190.3313,-486.1756 239,-427 291.6538,-362.979 369.3462,-455.021 422,-391 448.3964,-358.9049 463.5556,-297.5 422,-297.5"/>
<polygon fill="#000000" stroke="#000000" points="229.0238,-606.8106 238.6898,-611.9893 234.0119,-607.1553 239,-607.5 239,-607.5 239,-607.5 234.0119,-607.1553 239.3102,-603.0107 229.0238,-606.8106 229.0238,-606.8106"/>
<text text-anchor="start" x="7.495" y="-617.5" font-family="Arial" font-size="10.00" fill="#000000">FOREIGN KEY (post_id) REFERENCES posts (id)</text>
</g>
</g>
</svg>
