<?xml version="1.0" encoding="UTF-8" standalone="no"?>
<!DOCTYPE svg PUBLIC "-//W3C//DTD SVG 1.1//EN"
 "http://www.w3.org/Graphics/SVG/1.1/DTD/svg11.dtd">
<!-- Generated by graphviz version 2.40.1 (20161225.0304)
 -->
<!-- Title: posts Pages: 1 -->
<svg width="716pt" height="1079pt"
 viewBox="0.00 0.00 716.00 1079.00" xmlns="http://www.w3.org/2000/svg" xmlns:xlink="http://www.w3.org/1999/xlink">
<g id="graph0" class="graph" transform="scale(1 1) rotate(0) translate(4 1075)">
<title>posts</title>
<polygon fill="#ffffff" stroke="transparent" points="-4,4 -4,-1075 712,-1075 712,4 -4,4"/>
<!-- posts -->
<g id="node1" class="node">
<title>posts</title>
<polygon fill="#efefef" stroke="transparent" points="255,-652.5 255,-687.5 428,-687.5 428,-652.5 255,-652.5"/>
<polygon fill="none" stroke="#000000" points="255,-652.5 255,-687.5 428,-687.5 428,-652.5 255,-652.5"/>
<text text-anchor="start" x="271.3658" y="-665.3" font-family="Arial Bold" font-size="18.00" fill="#000000">posts</text>
<text text-anchor="start" x="314.3804" y="-665.3" font-family="Arial" font-size="14.00" fill="#000000"> </text>
<text text-anchor="start" x="318.271" y="-665.3" font-family="Arial" font-size="14.00" fill="#666666">[BASE TABLE]</text>
<polygon fill="none" stroke="#000000" points="255,-622.5 255,-652.5 428,-652.5 428,-622.5 255,-622.5"/>
<text text-anchor="start" x="262" y="-633.9" font-family="Arial" font-size="14.00" fill="#000000">id </text>
<text text-anchor="start" x="276.7798" y="-633.9" font-family="Arial" font-size="14.00" fill="#666666">[int unsigned]</text>
<polygon fill="none" stroke="#000000" points="255,-592.5 255,-622.5 428,-622.5 428,-592.5 255,-592.5"/>
<text text-anchor="start" x="262" y="-603.9" font-family="Arial" font-size="14.00" fill="#000000">admin_id </text>
<text text-anchor="start" x="322.6774" y="-603.9" font-family="Arial" font-size="14.00" fill="#666666">[int unsigned]</text>
<polygon fill="none" stroke="#000000" points="255,-562.5 255,-592.5 428,-592.5 428,-562.5 255,-562.5"/>
<text text-anchor="start" x="261.7511" y="-573.9" font-family="Arial" font-size="14.00" fill="#000000">category_id </text>
<text text-anchor="start" x="337.9951" y="-573.9" font-family="Arial" font-size="14.00" fill="#666666">[int unsigned]</text>
<polygon fill="none" stroke="#000000" points="255,-532.5 255,-562.5 428,-562.5 428,-532.5 255,-532.5"/>
<text text-anchor="start" x="262" y="-543.9" font-family="Arial" font-size="14.00" fill="#000000">title </text>
<text text-anchor="start" x="287.6676" y="-543.9" font-family="Arial" font-size="14.00" fill="#666666">[varchar(255)]</text>
<polygon fill="none" stroke="#000000" points="255,-502.5 255,-532.5 428,-532.5 428,-502.5 255,-502.5"/>
<text text-anchor="start" x="262" y="-513.9" font-family="Arial" font-size="14.00" fill="#000000">md_body </text>
<text text-anchor="start" x="323.4642" y="-513.9" font-family="Arial" font-size="14.00" fill="#666666">[longtext]</text>
<polygon fill="none" stroke="#000000" points="255,-472.5 255,-502.5 428,-502.5 428,-472.5 255,-472.5"/>
<text text-anchor="start" x="262" y="-483.9" font-family="Arial" font-size="14.00" fill="#000000">html_body </text>
<text text-anchor="start" x="330.4614" y="-483.9" font-family="Arial" font-size="14.00" fill="#666666">[longtext]</text>
<polygon fill="none" stroke="#000000" points="255,-442.5 255,-472.5 428,-472.5 428,-442.5 255,-442.5"/>
<text text-anchor="start" x="262" y="-453.9" font-family="Arial" font-size="14.00" fill="#000000">status </text>
<text text-anchor="start" x="303.237" y="-453.9" font-family="Arial" font-size="14.00" fill="#666666">[varchar(255)]</text>
<polygon fill="none" stroke="#000000" points="255,-412.5 255,-442.5 428,-442.5 428,-412.5 255,-412.5"/>
<text text-anchor="start" x="262" y="-423.9" font-family="Arial" font-size="14.00" fill="#000000">created_at </text>
<text text-anchor="start" x="332.028" y="-423.9" font-family="Arial" font-size="14.00" fill="#666666">[datetime]</text>
<polygon fill="none" stroke="#000000" points="255,-382.5 255,-412.5 428,-412.5 428,-382.5 255,-382.5"/>
<text text-anchor="start" x="262" y="-393.9" font-family="Arial" font-size="14.00" fill="#000000">updated_at </text>
<text text-anchor="start" x="335.9326" y="-393.9" font-family="Arial" font-size="14.00" fill="#666666">[datetime]</text>
<polygon fill="none" stroke="#000000" stroke-width="3" points="253,-381.5 253,-689.5 429,-689.5 429,-381.5 253,-381.5"/>
</g>
<!-- admins -->
<g id="node4" class="node">
<title>admins</title>
<polygon fill="#efefef" stroke="transparent" points="115,-222.5 115,-257.5 284,-257.5 284,-222.5 115,-222.5"/>
<polygon fill="none" stroke="#000000" points="115,-222.5 115,-257.5 284,-257.5 284,-222.5 115,-222.5"/>
<text text-anchor="start" x="121.8706" y="-235.3" font-family="Arial Bold" font-size="18.00" fill="#000000">admins</text>
<text text-anchor="start" x="179.8756" y="-235.3" font-family="Arial" font-size="14.00" fill="#000000"> </text>
<text text-anchor="start" x="183.7662" y="-235.3" font-family="Arial" font-size="14.00" fill="#666666">[BASE TABLE]</text>
<polygon fill="none" stroke="#000000" points="115,-192.5 115,-222.5 284,-222.5 284,-192.5 115,-192.5"/>
<text text-anchor="start" x="122" y="-203.9" font-family="Arial" font-size="14.00" fill="#000000">id </text>
<text text-anchor="start" x="136.7798" y="-203.9" font-family="Arial" font-size="14.00" fill="#666666">[int unsigned]</text>
<polygon fill="none" stroke="#000000" points="115,-162.5 115,-192.5 284,-192.5 284,-162.5 115,-162.5"/>
<text text-anchor="start" x="122" y="-173.9" font-family="Arial" font-size="14.00" fill="#000000">name </text>
<text text-anchor="start" x="160.899" y="-173.9" font-family="Arial" font-size="14.00" fill="#666666">[varchar(255)]</text>
<polygon fill="none" stroke="#000000" points="115,-132.5 115,-162.5 284,-162.5 284,-132.5 115,-132.5"/>
<text text-anchor="start" x="122" y="-143.9" font-family="Arial" font-size="14.00" fill="#000000">email </text>
<text text-anchor="start" x="159.3296" y="-143.9" font-family="Arial" font-size="14.00" fill="#666666">[varchar(255)]</text>
<polygon fill="none" stroke="#000000" points="115,-102.5 115,-132.5 284,-132.5 284,-102.5 115,-102.5"/>
<text text-anchor="start" x="122" y="-113.9" font-family="Arial" font-size="14.00" fill="#000000">password </text>
<text text-anchor="start" x="185.7882" y="-113.9" font-family="Arial" font-size="14.00" fill="#666666">[varchar(255)]</text>
<polygon fill="none" stroke="#000000" points="115,-72.5 115,-102.5 284,-102.5 284,-72.5 115,-72.5"/>
<text text-anchor="start" x="122" y="-83.9" font-family="Arial" font-size="14.00" fill="#000000">created_at </text>
<text text-anchor="start" x="192.028" y="-83.9" font-family="Arial" font-size="14.00" fill="#666666">[datetime]</text>
<polygon fill="none" stroke="#000000" points="115,-42.5 115,-72.5 284,-72.5 284,-42.5 115,-42.5"/>
<text text-anchor="start" x="122" y="-53.9" font-family="Arial" font-size="14.00" fill="#000000">updated_at </text>
<text text-anchor="start" x="195.9326" y="-53.9" font-family="Arial" font-size="14.00" fill="#666666">[datetime]</text>
</g>
<!-- posts&#45;&gt;admins -->
<g id="edge3" class="edge">
<title>posts:admin_id&#45;&gt;admins:id</title>
<path fill="none" stroke="#000000" d="M244.9437,-607.1005C139.4446,-598.3312 216.1855,-447.0561 255,-337 261.8335,-317.6241 277.1665,-320.3759 284,-301 297.8214,-261.8103 325.5556,-207.5 284,-207.5"/>
<polygon fill="#000000" stroke="#000000" points="245.0079,-607.1029 254.8213,-611.9965 250.0039,-607.3015 255,-607.5 255,-607.5 255,-607.5 250.0039,-607.3015 255.1787,-603.0035 245.0079,-607.1029 245.0079,-607.1029"/>
<text text-anchor="start" x="7.167" y="-617.5" font-family="Arial" font-size="10.00" fill="#000000">FOREIGN KEY (admin_id) REFERENCES admins (id)</text>
</g>
<!-- categories -->
<g id="node5" class="node">
<title>categories</title>
<polygon fill="#efefef" stroke="transparent" points="388,-192.5 388,-227.5 582,-227.5 582,-192.5 388,-192.5"/>
<polygon fill="none" stroke="#000000" points="388,-192.5 388,-227.5 582,-227.5 582,-192.5 388,-192.5"/>
<text text-anchor="start" x="394.8633" y="-205.3" font-family="Arial Bold" font-size="18.00" fill="#000000">categories</text>
<text text-anchor="start" x="477.8829" y="-205.3" font-family="Arial" font-size="14.00" fill="#000000"> </text>
<text text-anchor="start" x="481.7735" y="-205.3" font-family="Arial" font-size="14.00" fill="#666666">[BASE TABLE]</text>
<polygon fill="none" stroke="#000000" points="388,-162.5 388,-192.5 582,-192.5 582,-162.5 388,-162.5"/>
<text text-anchor="start" x="395" y="-173.9" font-family="Arial" font-size="14.00" fill="#000000">id </text>
<text text-anchor="start" x="409.7798" y="-173.9" font-family="Arial" font-size="14.00" fill="#666666">[int unsigned]</text>
<polygon fill="none" stroke="#000000" points="388,-132.5 388,-162.5 582,-162.5 582,-132.5 388,-132.5"/>
<text text-anchor="start" x="395" y="-143.9" font-family="Arial" font-size="14.00" fill="#000000">name </text>
<text text-anchor="start" x="433.899" y="-143.9" font-family="Arial" font-size="14.00" fill="#666666">[varchar(255)]</text>
<polygon fill="none" stroke="#000000" points="388,-102.5 388,-132.5 582,-132.5 582,-102.5 388,-102.5"/>
<text text-anchor="start" x="395" y="-113.9" font-family="Arial" font-size="14.00" fill="#000000">created_at </text>
<text text-anchor="start" x="465.028" y="-113.9" font-family="Arial" font-size="14.00" fill="#666666">[datetime]</text>
<polygon fill="none" stroke="#000000" points="388,-72.5 388,-102.5 582,-102.5 582,-72.5 388,-72.5"/>
<text text-anchor="start" x="395" y="-83.9" font-family="Arial" font-size="14.00" fill="#000000">updated_at </text>
<text text-anchor="start" x="468.9326" y="-83.9" font-family="Arial" font-size="14.00" fill="#666666">[datetime]</text>
</g>
<!-- posts&#45;&gt;categories -->
<g id="edge4" class="edge">
<title>posts:category_id&#45;&gt;categories:id</title>
<path fill="none" stroke="#000000" d="M438.0438,-577.0514C529.7551,-568.4038 455.8061,-436.5286 428,-337 418.7707,-303.965 397.2293,-304.035 388,-271 376.8185,-230.977 346.4444,-177.5 388,-177.5"/>
<polygon fill="#000000" stroke="#000000" points="437.99,-577.0537 427.7992,-573.0045 432.995,-577.2768 428,-577.5 428,-577.5 428,-577.5 432.995,-577.2768 428.2008,-581.9955 437.99,-577.0537 437.99,-577.0537"/>
<text text-anchor="start" x="434.659" y="-587.5" font-family="Arial" font-size="10.00" fill="#000000">FOREIGN KEY (category_id) REFERENCES categories (id)</text>
</g>
<!-- comments -->
<g id="node2" class="node">
<title>comments</title>
<polygon fill="#efefef" stroke="transparent" points="100,-992.5 100,-1027.5 294,-1027.5 294,-992.5 100,-992.5"/>
<polygon fill="none" stroke="#000000" points="100,-992.5 100,-1027.5 294,-1027.5 294,-992.5 100,-992.5"/>
<text text-anchor="start" x="106.8705" y="-1005.3" font-family="Arial Bold" font-size="18.00" fill="#000000">comments</text>
<text text-anchor="start" x="189.8757" y="-1005.3" font-family="Arial" font-size="14.00" fill="#000000"> </text>
<text text-anchor="start" x="193.7663" y="-1005.3" font-family="Arial" font-size="14.00" fill="#666666">[BASE TABLE]</text>
<polygon fill="none" stroke="#000000" points="100,-962.5 100,-992.5 294,-992.5 294,-962.5 100,-962.5"/>
<text text-anchor="start" x="107" y="-973.9" font-family="Arial" font-size="14.00" fill="#000000">id </text>
<text text-anchor="start" x="121.7798" y="-973.9" font-family="Arial" font-size="14.00" fill="#666666">[int unsigned]</text>
<polygon fill="none" stroke="#000000" points="100,-932.5 100,-962.5 294,-962.5 294,-932.5 100,-932.5"/>
<text text-anchor="start" x="107" y="-943.9" font-family="Arial" font-size="14.00" fill="#000000">post_id </text>
<text text-anchor="start" x="156.0182" y="-943.9" font-family="Arial" font-size="14.00" fill="#666666">[int unsigned]</text>
<polygon fill="none" stroke="#000000" points="100,-902.5 100,-932.5 294,-932.5 294,-902.5 100,-902.5"/>
<text text-anchor="start" x="107" y="-913.9" font-family="Arial" font-size="14.00" fill="#000000">body </text>
<text text-anchor="start" x="141.2384" y="-913.9" font-family="Arial" font-size="14.00" fill="#666666">[longtext]</text>
<polygon fill="none" stroke="#000000" points="100,-872.5 100,-902.5 294,-902.5 294,-872.5 100,-872.5"/>
<text text-anchor="start" x="107" y="-883.9" font-family="Arial" font-size="14.00" fill="#000000">status </text>
<text text-anchor="start" x="148.237" y="-883.9" font-family="Arial" font-size="14.00" fill="#666666">[varchar(255)]</text>
<polygon fill="none" stroke="#000000" points="100,-842.5 100,-872.5 294,-872.5 294,-842.5 100,-842.5"/>
<text text-anchor="start" x="107" y="-853.9" font-family="Arial" font-size="14.00" fill="#000000">created_at </text>
<text text-anchor="start" x="177.028" y="-853.9" font-family="Arial" font-size="14.00" fill="#666666">[datetime]</text>
<polygon fill="none" stroke="#000000" points="100,-812.5 100,-842.5 294,-842.5 294,-812.5 100,-812.5"/>
<text text-anchor="start" x="107" y="-823.9" font-family="Arial" font-size="14.00" fill="#000000">updated_at </text>
<text text-anchor="start" x="180.9326" y="-823.9" font-family="Arial" font-size="14.00" fill="#666666">[datetime]</text>
</g>
<!-- comments&#45;&gt;posts -->
<g id="edge1" class="edge">
<title>comments:post_id&#45;&gt;posts:id</title>
<path fill="none" stroke="#000000" d="M304.2769,-946.8206C368.4936,-937.7067 324.1571,-838.8784 294,-770 284.539,-748.3913 264.461,-755.6087 255,-734 237.7984,-694.7118 212.1111,-637.5 255,-637.5"/>
<polygon fill="#000000" stroke="#000000" points="303.9782,-946.8402 293.7031,-943.0098 298.9891,-947.1701 294,-947.5 294,-947.5 294,-947.5 298.9891,-947.1701 294.2969,-951.9902 303.9782,-946.8402 303.9782,-946.8402"/>
<text text-anchor="start" x="301.495" y="-957.5" font-family="Arial" font-size="10.00" fill="#000000">FOREIGN KEY (post_id) REFERENCES posts (id)</text>
</g>
<!-- tag_post -->
<g id="node3" class="node">
<title>tag_post</title>
<polygon fill="#efefef" stroke="transparent" points="398,-977.5 398,-1012.5 578,-1012.5 578,-977.5 398,-977.5"/>
<polygon fill="none" stroke="#000000" points="398,-977.5 398,-1012.5 578,-1012.5 578,-977.5 398,-977.5"/>
<text text-anchor="start" x="404.8554" y="-990.3" font-family="Arial Bold" font-size="18.00" fill="#000000">tag_post</text>
<text text-anchor="start" x="473.8908" y="-990.3" font-family="Arial" font-size="14.00" fill="#000000"> </text>
<text text-anchor="start" x="477.7814" y="-990.3" font-family="Arial" font-size="14.00" fill="#666666">[BASE TABLE]</text>
<polygon fill="none" stroke="#000000" points="398,-947.5 398,-977.5 578,-977.5 578,-947.5 398,-947.5"/>
<text text-anchor="start" x="405" y="-958.9" font-family="Arial" font-size="14.00" fill="#000000">id </text>
<text text-anchor="start" x="419.7798" y="-958.9" font-family="Arial" font-size="14.00" fill="#666666">[int unsigned]</text>
<polygon fill="none" stroke="#000000" points="398,-917.5 398,-947.5 578,-947.5 578,-917.5 398,-917.5"/>
<text text-anchor="start" x="405" y="-928.9" font-family="Arial" font-size="14.00" fill="#000000">tag_id </text>
<text text-anchor="start" x="447.0182" y="-928.9" font-family="Arial" font-size="14.00" fill="#666666">[int unsigned]</text>
<polygon fill="none" stroke="#000000" points="398,-887.5 398,-917.5 578,-917.5 578,-887.5 398,-887.5"/>
<text text-anchor="start" x="405" y="-898.9" font-family="Arial" font-size="14.00" fill="#000000">post_id </text>
<text text-anchor="start" x="454.0182" y="-898.9" font-family="Arial" font-size="14.00" fill="#666666">[int unsigned]</text>
<polygon fill="none" stroke="#000000" points="398,-857.5 398,-887.5 578,-887.5 578,-857.5 398,-857.5"/>
<text text-anchor="start" x="405" y="-868.9" font-family="Arial" font-size="14.00" fill="#000000">created_at </text>
<text text-anchor="start" x="475.028" y="-868.9" font-family="Arial" font-size="14.00" fill="#666666">[datetime]</text>
<polygon fill="none" stroke="#000000" points="398,-827.5 398,-857.5 578,-857.5 578,-827.5 398,-827.5"/>
<text text-anchor="start" x="405" y="-838.9" font-family="Arial" font-size="14.00" fill="#000000">updated_at </text>
<text text-anchor="start" x="478.9326" y="-838.9" font-family="Arial" font-size="14.00" fill="#666666">[datetime]</text>
</g>
<!-- tag_post&#45;&gt;posts -->
<g id="edge2" class="edge">
<title>tag_post:post_id&#45;&gt;posts:id</title>
<path fill="none" stroke="#000000" d="M387.8244,-901.4252C351.3563,-892.6301 385.2974,-831.6478 398,-785 404.9094,-759.6265 421.0906,-759.3735 428,-734 439.2687,-692.618 470.8889,-637.5 428,-637.5"/>
<polygon fill="#000000" stroke="#000000" points="388.0553,-901.4495 397.5273,-906.9751 393.0277,-901.9748 398,-902.5 398,-902.5 398,-902.5 393.0277,-901.9748 398.4727,-898.0249 388.0553,-901.4495 388.0553,-901.4495"/>
<text text-anchor="start" x="345.745" y="-886.5" font-family="Arial" font-size="10.00" fill="#000000">FOREIGN KEY (post_id) REFERENCES posts (id)</text>
</g>
</g>
</svg>
