<?xml version="1.0" encoding="UTF-8" standalone="no"?>
<!DOCTYPE svg PUBLIC "-//W3C//DTD SVG 1.1//EN"
 "http://www.w3.org/Graphics/SVG/1.1/DTD/svg11.dtd">
<!-- Generated by graphviz version 2.40.1 (20161225.0304)
 -->
<!-- Title: posts Pages: 1 -->
<svg width="727pt" height="1079pt"
 viewBox="0.00 0.00 727.00 1079.00" xmlns="http://www.w3.org/2000/svg" xmlns:xlink="http://www.w3.org/1999/xlink">
<g id="graph0" class="graph" transform="scale(1 1) rotate(0) translate(4 1075)">
<title>posts</title>
<polygon fill="#ffffff" stroke="transparent" points="-4,4 -4,-1075 723,-1075 723,4 -4,4"/>
<!-- posts -->
<g id="node1" class="node">
<title>posts</title>
<polygon fill="#efefef" stroke="transparent" points="255,-652.5 255,-687.5 439,-687.5 439,-652.5 255,-652.5"/>
<polygon fill="none" stroke="#000000" points="255,-652.5 255,-687.5 439,-687.5 439,-652.5 255,-652.5"/>
<text text-anchor="start" x="261.7087" y="-665.3" font-family="Arial Bold" font-size="18.00" fill="#000000">posts</text>
<text text-anchor="start" x="304.7233" y="-665.3" font-family="Arial" font-size="14.00" fill="#000000">    </text>
<text text-anchor="start" x="338.9281" y="-665.3" font-family="Arial" font-size="14.00" fill="#666666">[BASE TABLE]</text>
<polygon fill="none" stroke="#000000" points="255,-622.5 255,-652.5 439,-652.5 439,-622.5 255,-622.5"/>
<text text-anchor="start" x="262" y="-633.9" font-family="Arial" font-size="14.00" fill="#000000">id </text>
<text text-anchor="start" x="276.7798" y="-633.9" font-family="Arial" font-size="14.00" fill="#666666">[int unsigned]</text>
<polygon fill="none" stroke="#000000" points="255,-592.5 255,-622.5 439,-622.5 439,-592.5 255,-592.5"/>
<text text-anchor="start" x="262" y="-603.9" font-family="Arial" font-size="14.00" fill="#000000">admin_id </text>
<text text-anchor="start" x="322.6774" y="-603.9" font-family="Arial" font-size="14.00" fill="#666666">[int unsigned]</text>
<polygon fill="none" stroke="#000000" points="255,-562.5 255,-592.5 439,-592.5 439,-562.5 255,-562.5"/>
<text text-anchor="start" x="262" y="-573.9" font-family="Arial" font-size="14.00" fill="#000000">category_id </text>
<text text-anchor="start" x="338.244" y="-573.9" font-family="Arial" font-size="14.00" fill="#666666">[int unsigned]</text>
<polygon fill="none" stroke="#000000" points="255,-532.5 255,-562.5 439,-562.5 439,-532.5 255,-532.5"/>
<text text-anchor="start" x="262" y="-543.9" font-family="Arial" font-size="14.00" fill="#000000">title </text>
<text text-anchor="start" x="287.6676" y="-543.9" font-family="Arial" font-size="14.00" fill="#666666">[varchar(255)]</text>
<polygon fill="none" stroke="#000000" points="255,-502.5 255,-532.5 439,-532.5 439,-502.5 255,-502.5"/>
<text text-anchor="start" x="262" y="-513.9" font-family="Arial" font-size="14.00" fill="#000000">md_body </text>
<text text-anchor="start" x="323.4642" y="-513.9" font-family="Arial" font-size="14.00" fill="#666666">[longtext]</text>
<polygon fill="none" stroke="#000000" points="255,-472.5 255,-502.5 439,-502.5 439,-472.5 255,-472.5"/>
<text text-anchor="start" x="262" y="-483.9" font-family="Arial" font-size="14.00" fill="#000000">html_body </text>
<text text-anchor="start" x="330.4614" y="-483.9" font-family="Arial" font-size="14.00" fill="#666666">[longtext]</text>
<polygon fill="none" stroke="#000000" points="255,-442.5 255,-472.5 439,-472.5 439,-442.5 255,-442.5"/>
<text text-anchor="start" x="262" y="-453.9" font-family="Arial" font-size="14.00" fill="#000000">status </text>
<text text-anchor="start" x="303.237" y="-453.9" font-family="Arial" font-size="14.00" fill="#666666">[varchar(255)]</text>
<polygon fill="none" stroke="#000000" points="255,-412.5 255,-442.5 439,-442.5 439,-412.5 255,-412.5"/>
<text text-anchor="start" x="262" y="-423.9" font-family="Arial" font-size="14.00" fill="#000000">created_at </text>
<text text-anchor="start" x="332.028" y="-423.9" font-family="Arial" font-size="14.00" fill="#666666">[datetime]</text>
<polygon fill="none" stroke="#000000" points="255,-382.5 255,-412.5 439,-412.5 439,-382.5 255,-382.5"/>
<text text-anchor="start" x="262" y="-393.9" font-family="Arial" font-size="14.00" fill="#000000">updated_at </text>
<text text-anchor="start" x="335.9326" y="-393.9" font-family="Arial" font-size="14.00" fill="#666666">[datetime]</text>
<polygon fill="none" stroke="#000000" stroke-width="3" points="253.5,-381.5 253.5,-689.5 440.5,-689.5 440.5,-381.5 253.5,-381.5"/>
</g>
<!-- admins -->
<g id="node4" class="node">
<title>admins</title>
<polygon fill="#efefef" stroke="transparent" points="90,-222.5 90,-257.5 289,-257.5 289,-222.5 90,-222.5"/>
<polygon fill="none" stroke="#000000" points="90,-222.5 90,-257.5 289,-257.5 289,-222.5 90,-222.5"/>
<text text-anchor="start" x="96.7135" y="-235.3" font-family="Arial Bold" font-size="18.00" fill="#000000">admins</text>
<text text-anchor="start" x="154.7185" y="-235.3" font-family="Arial" font-size="14.00" fill="#000000">    </text>
<text text-anchor="start" x="188.9233" y="-235.3" font-family="Arial" font-size="14.00" fill="#666666">[BASE TABLE]</text>
<polygon fill="none" stroke="#000000" points="90,-192.5 90,-222.5 289,-222.5 289,-192.5 90,-192.5"/>
<text text-anchor="start" x="97" y="-203.9" font-family="Arial" font-size="14.00" fill="#000000">id    </text>
<text text-anchor="start" x="142.094" y="-203.9" font-family="Arial" font-size="14.00" fill="#666666">[int unsigned]</text>
<polygon fill="none" stroke="#000000" points="90,-162.5 90,-192.5 289,-192.5 289,-162.5 90,-162.5"/>
<text text-anchor="start" x="97" y="-173.9" font-family="Arial" font-size="14.00" fill="#000000">name    </text>
<text text-anchor="start" x="166.2132" y="-173.9" font-family="Arial" font-size="14.00" fill="#666666">[varchar(255)]</text>
<polygon fill="none" stroke="#000000" points="90,-132.5 90,-162.5 289,-162.5 289,-132.5 90,-132.5"/>
<text text-anchor="start" x="97" y="-143.9" font-family="Arial" font-size="14.00" fill="#000000">email    </text>
<text text-anchor="start" x="164.6438" y="-143.9" font-family="Arial" font-size="14.00" fill="#666666">[varchar(255)]</text>
<polygon fill="none" stroke="#000000" points="90,-102.5 90,-132.5 289,-132.5 289,-102.5 90,-102.5"/>
<text text-anchor="start" x="97" y="-113.9" font-family="Arial" font-size="14.00" fill="#000000">password    </text>
<text text-anchor="start" x="191.1024" y="-113.9" font-family="Arial" font-size="14.00" fill="#666666">[varchar(255)]</text>
<polygon fill="none" stroke="#000000" points="90,-72.5 90,-102.5 289,-102.5 289,-72.5 90,-72.5"/>
<text text-anchor="start" x="97" y="-83.9" font-family="Arial" font-size="14.00" fill="#000000">created_at    </text>
<text text-anchor="start" x="197.3422" y="-83.9" font-family="Arial" font-size="14.00" fill="#666666">[datetime]</text>
<polygon fill="none" stroke="#000000" points="90,-42.5 90,-72.5 289,-72.5 289,-42.5 90,-42.5"/>
<text text-anchor="start" x="97" y="-53.9" font-family="Arial" font-size="14.00" fill="#000000">updated_at    </text>
<text text-anchor="start" x="201.2468" y="-53.9" font-family="Arial" font-size="14.00" fill="#666666">[datetime]</text>
</g>
<!-- posts&#45;&gt;admins -->
<g id="edge3" class="edge">
<title>posts:admin_id&#45;&gt;admins:id</title>
<path fill="none" stroke="#000000" d="M244.9326,-607.0963C139.1926,-598.2367 211.8851,-445.4436 255,-337 263.1308,-316.5492 280.8692,-321.4508 289,-301 304.3527,-262.3845 330.5556,-207.5 289,-207.5"/>
<polygon fill="#000000" stroke="#000000" points="245.008,-607.0992 254.8197,-611.9964 250.004,-607.2996 255,-607.5 255,-607.5 255,-607.5 250.004,-607.2996 255.1803,-603.0036 245.008,-607.0992 245.008,-607.0992"/>
<text text-anchor="start" x="7.167" y="-617.5" font-family="Arial" font-size="10.00" fill="#000000">FOREIGN KEY (admin_id) REFERENCES admins (id)</text>
</g>
<!-- categories -->
<g id="node5" class="node">
<title>categories</title>
<polygon fill="#efefef" stroke="transparent" points="393,-192.5 393,-227.5 617,-227.5 617,-192.5 393,-192.5"/>
<polygon fill="none" stroke="#000000" points="393,-192.5 393,-227.5 617,-227.5 617,-192.5 393,-192.5"/>
<text text-anchor="start" x="399.7062" y="-205.3" font-family="Arial Bold" font-size="18.00" fill="#000000">categories</text>
<text text-anchor="start" x="482.7258" y="-205.3" font-family="Arial" font-size="14.00" fill="#000000">    </text>
<text text-anchor="start" x="516.9306" y="-205.3" font-family="Arial" font-size="14.00" fill="#666666">[BASE TABLE]</text>
<polygon fill="none" stroke="#000000" points="393,-162.5 393,-192.5 617,-192.5 617,-162.5 393,-162.5"/>
<text text-anchor="start" x="400" y="-173.9" font-family="Arial" font-size="14.00" fill="#000000">id    </text>
<text text-anchor="start" x="445.094" y="-173.9" font-family="Arial" font-size="14.00" fill="#666666">[int unsigned]</text>
<polygon fill="none" stroke="#000000" points="393,-132.5 393,-162.5 617,-162.5 617,-132.5 393,-132.5"/>
<text text-anchor="start" x="400" y="-143.9" font-family="Arial" font-size="14.00" fill="#000000">name    </text>
<text text-anchor="start" x="469.2132" y="-143.9" font-family="Arial" font-size="14.00" fill="#666666">[varchar(255)]</text>
<polygon fill="none" stroke="#000000" points="393,-102.5 393,-132.5 617,-132.5 617,-102.5 393,-102.5"/>
<text text-anchor="start" x="400" y="-113.9" font-family="Arial" font-size="14.00" fill="#000000">created_at    </text>
<text text-anchor="start" x="500.3422" y="-113.9" font-family="Arial" font-size="14.00" fill="#666666">[datetime]</text>
<polygon fill="none" stroke="#000000" points="393,-72.5 393,-102.5 617,-102.5 617,-72.5 393,-72.5"/>
<text text-anchor="start" x="400" y="-83.9" font-family="Arial" font-size="14.00" fill="#000000">updated_at    </text>
<text text-anchor="start" x="504.2468" y="-83.9" font-family="Arial" font-size="14.00" fill="#666666">[datetime]</text>
</g>
<!-- posts&#45;&gt;categories -->
<g id="edge4" class="edge">
<title>posts:category_id&#45;&gt;categories:id</title>
<path fill="none" stroke="#000000" d="M449.0543,-577.0483C540.9651,-568.3415 469.9676,-435.5907 439,-337 428.2854,-302.8882 403.7146,-305.1118 393,-271 380.5471,-231.3542 351.4444,-177.5 393,-177.5"/>
<polygon fill="#000000" stroke="#000000" points="448.9899,-577.0511 438.798,-573.0045 443.995,-577.2755 439,-577.5 439,-577.5 439,-577.5 443.995,-577.2755 439.202,-581.9955 448.9899,-577.0511 448.9899,-577.0511"/>
<text text-anchor="start" x="445.659" y="-587.5" font-family="Arial" font-size="10.00" fill="#000000">FOREIGN KEY (category_id) REFERENCES categories (id)</text>
</g>
<!-- comments -->
<g id="node2" class="node">
<title>comments</title>
<polygon fill="#efefef" stroke="transparent" points="75,-992.5 75,-1027.5 299,-1027.5 299,-992.5 75,-992.5"/>
<polygon fill="none" stroke="#000000" points="75,-992.5 75,-1027.5 299,-1027.5 299,-992.5 75,-992.5"/>
<text text-anchor="start" x="81.7134" y="-1005.3" font-family="Arial Bold" font-size="18.00" fill="#000000">comments</text>
<text text-anchor="start" x="164.7186" y="-1005.3" font-family="Arial" font-size="14.00" fill="#000000">    </text>
<text text-anchor="start" x="198.9234" y="-1005.3" font-family="Arial" font-size="14.00" fill="#666666">[BASE TABLE]</text>
<polygon fill="none" stroke="#000000" points="75,-962.5 75,-992.5 299,-992.5 299,-962.5 75,-962.5"/>
<text text-anchor="start" x="82" y="-973.9" font-family="Arial" font-size="14.00" fill="#000000">id    </text>
<text text-anchor="start" x="127.094" y="-973.9" font-family="Arial" font-size="14.00" fill="#666666">[int unsigned]</text>
<polygon fill="none" stroke="#000000" points="75,-932.5 75,-962.5 299,-962.5 299,-932.5 75,-932.5"/>
<text text-anchor="start" x="82" y="-943.9" font-family="Arial" font-size="14.00" fill="#000000">post_id    </text>
<text text-anchor="start" x="161.3324" y="-943.9" font-family="Arial" font-size="14.00" fill="#666666">[int unsigned]</text>
<polygon fill="none" stroke="#000000" points="75,-902.5 75,-932.5 299,-932.5 299,-902.5 75,-902.5"/>
<text text-anchor="start" x="82" y="-913.9" font-family="Arial" font-size="14.00" fill="#000000">body    </text>
<text text-anchor="start" x="146.5526" y="-913.9" font-family="Arial" font-size="14.00" fill="#666666">[longtext]</text>
<polygon fill="none" stroke="#000000" points="75,-872.5 75,-902.5 299,-902.5 299,-872.5 75,-872.5"/>
<text text-anchor="start" x="82" y="-883.9" font-family="Arial" font-size="14.00" fill="#000000">status    </text>
<text text-anchor="start" x="153.5512" y="-883.9" font-family="Arial" font-size="14.00" fill="#666666">[varchar(255)]</text>
<polygon fill="none" stroke="#000000" points="75,-842.5 75,-872.5 299,-872.5 299,-842.5 75,-842.5"/>
<text text-anchor="start" x="82" y="-853.9" font-family="Arial" font-size="14.00" fill="#000000">created_at    </text>
<text text-anchor="start" x="182.3422" y="-853.9" font-family="Arial" font-size="14.00" fill="#666666">[datetime]</text>
<polygon fill="none" stroke="#000000" points="75,-812.5 75,-842.5 299,-842.5 299,-812.5 75,-812.5"/>
<text text-anchor="start" x="82" y="-823.9" font-family="Arial" font-size="14.00" fill="#000000">updated_at    </text>
<text text-anchor="start" x="186.2468" y="-823.9" font-family="Arial" font-size="14.00" fill="#666666">[datetime]</text>
</g>
<!-- comments&#45;&gt;posts -->
<g id="edge1" class="edge">
<title>comments:post_id&#45;&gt;posts:id</title>
<path fill="none" stroke="#000000" d="M309.2903,-946.8144C373.6851,-937.6195 331.199,-837.9478 299,-770 288.1799,-747.167 265.8201,-756.833 255,-734 236.6337,-695.2426 212.1111,-637.5 255,-637.5"/>
<polygon fill="#000000" stroke="#000000" points="308.9779,-946.8351 298.7008,-943.01 303.9889,-947.1676 299,-947.5 299,-947.5 299,-947.5 303.9889,-947.1676 299.2992,-951.99 308.9779,-946.8351 308.9779,-946.8351"/>
<text text-anchor="start" x="306.495" y="-957.5" font-family="Arial" font-size="10.00" fill="#000000">FOREIGN KEY (post_id) REFERENCES posts (id)</text>
</g>
<!-- tag_post -->
<g id="node3" class="node">
<title>tag_post</title>
<polygon fill="#efefef" stroke="transparent" points="403,-977.5 403,-1012.5 613,-1012.5 613,-977.5 403,-977.5"/>
<polygon fill="none" stroke="#000000" points="403,-977.5 403,-1012.5 613,-1012.5 613,-977.5 403,-977.5"/>
<text text-anchor="start" x="409.6983" y="-990.3" font-family="Arial Bold" font-size="18.00" fill="#000000">tag_post</text>
<text text-anchor="start" x="478.7337" y="-990.3" font-family="Arial" font-size="14.00" fill="#000000">    </text>
<text text-anchor="start" x="512.9385" y="-990.3" font-family="Arial" font-size="14.00" fill="#666666">[BASE TABLE]</text>
<polygon fill="none" stroke="#000000" points="403,-947.5 403,-977.5 613,-977.5 613,-947.5 403,-947.5"/>
<text text-anchor="start" x="410" y="-958.9" font-family="Arial" font-size="14.00" fill="#000000">id    </text>
<text text-anchor="start" x="455.094" y="-958.9" font-family="Arial" font-size="14.00" fill="#666666">[int unsigned]</text>
<polygon fill="none" stroke="#000000" points="403,-917.5 403,-947.5 613,-947.5 613,-917.5 403,-917.5"/>
<text text-anchor="start" x="410" y="-928.9" font-family="Arial" font-size="14.00" fill="#000000">tag_id    </text>
<text text-anchor="start" x="482.3324" y="-928.9" font-family="Arial" font-size="14.00" fill="#666666">[int unsigned]</text>
<polygon fill="none" stroke="#000000" points="403,-887.5 403,-917.5 613,-917.5 613,-887.5 403,-887.5"/>
<text text-anchor="start" x="410" y="-898.9" font-family="Arial" font-size="14.00" fill="#000000">post_id    </text>
<text text-anchor="start" x="489.3324" y="-898.9" font-family="Arial" font-size="14.00" fill="#666666">[int unsigned]</text>
<polygon fill="none" stroke="#000000" points="403,-857.5 403,-887.5 613,-887.5 613,-857.5 403,-857.5"/>
<text text-anchor="start" x="410" y="-868.9" font-family="Arial" font-size="14.00" fill="#000000">created_at    </text>
<text text-anchor="start" x="510.3422" y="-868.9" font-family="Arial" font-size="14.00" fill="#666666">[datetime]</text>
<polygon fill="none" stroke="#000000" points="403,-827.5 403,-857.5 613,-857.5 613,-827.5 403,-827.5"/>
<text text-anchor="start" x="410" y="-838.9" font-family="Arial" font-size="14.00" fill="#000000">updated_at    </text>
<text text-anchor="start" x="514.2468" y="-838.9" font-family="Arial" font-size="14.00" fill="#666666">[datetime]</text>
</g>
<!-- tag_post&#45;&gt;posts -->
<g id="edge2" class="edge">
<title>tag_post:post_id&#45;&gt;posts:id</title>
<path fill="none" stroke="#000000" d="M392.7926,-901.4159C356.0709,-892.546 388.3744,-831.081 403,-785 411.3933,-758.5551 430.6067,-760.4449 439,-734 451.9746,-693.1207 481.8889,-637.5 439,-637.5"/>
<polygon fill="#000000" stroke="#000000" points="393.0559,-901.4437 402.5247,-906.9748 398.028,-901.9719 403,-902.5 403,-902.5 403,-902.5 398.028,-901.9719 403.4753,-898.0252 393.0559,-901.4437 393.0559,-901.4437"/>
<text text-anchor="start" x="350.745" y="-886.5" font-family="Arial" font-size="10.00" fill="#000000">FOREIGN KEY (post_id) REFERENCES posts (id)</text>
</g>
</g>
</svg>
