<?xml version="1.0" encoding="UTF-8" standalone="no"?>
<!DOCTYPE svg PUBLIC "-//W3C//DTD SVG 1.1//EN"
 "http://www.w3.org/Graphics/SVG/1.1/DTD/svg11.dtd">
<!-- Generated by graphviz version 2.40.1 (20161225.0304)
 -->
<!-- Title: gobel Pages: 1 -->
<svg width="1167pt" height="1403pt"
 viewBox="0.00 0.00 1166.50 1403.00" xmlns="http://www.w3.org/2000/svg" xmlns:xlink="http://www.w3.org/1999/xlink">
<g id="graph0" class="graph" transform="scale(1 1) rotate(0) translate(4 1399)">
<title>gobel</title>
<polygon fill="#ffffff" stroke="transparent" points="-4,4 -4,-1399 1162.5,-1399 1162.5,4 -4,4"/>
<!-- admins -->
<g id="node1" class="node">
<title>admins</title>
<polygon fill="#efefef" stroke="transparent" points="100,-222.5 100,-257.5 299,-257.5 299,-222.5 100,-222.5"/>
<polygon fill="none" stroke="#000000" points="100,-222.5 100,-257.5 299,-257.5 299,-222.5 100,-222.5"/>
<text text-anchor="start" x="106.7135" y="-235.3" font-family="Arial Bold" font-size="18.00" fill="#000000">admins</text>
<text text-anchor="start" x="164.7185" y="-235.3" font-family="Arial" font-size="14.00" fill="#000000">    </text>
<text text-anchor="start" x="198.9233" y="-235.3" font-family="Arial" font-size="14.00" fill="#666666">[BASE TABLE]</text>
<polygon fill="none" stroke="#000000" points="100,-192.5 100,-222.5 299,-222.5 299,-192.5 100,-192.5"/>
<text text-anchor="start" x="107" y="-203.9" font-family="Arial" font-size="14.00" fill="#000000">id    </text>
<text text-anchor="start" x="152.094" y="-203.9" font-family="Arial" font-size="14.00" fill="#666666">[int unsigned]</text>
<polygon fill="none" stroke="#000000" points="100,-162.5 100,-192.5 299,-192.5 299,-162.5 100,-162.5"/>
<text text-anchor="start" x="107" y="-173.9" font-family="Arial" font-size="14.00" fill="#000000">name    </text>
<text text-anchor="start" x="176.2132" y="-173.9" font-family="Arial" font-size="14.00" fill="#666666">[varchar(255)]</text>
<polygon fill="none" stroke="#000000" points="100,-132.5 100,-162.5 299,-162.5 299,-132.5 100,-132.5"/>
<text text-anchor="start" x="107" y="-143.9" font-family="Arial" font-size="14.00" fill="#000000">email    </text>
<text text-anchor="start" x="174.6438" y="-143.9" font-family="Arial" font-size="14.00" fill="#666666">[varchar(255)]</text>
<polygon fill="none" stroke="#000000" points="100,-102.5 100,-132.5 299,-132.5 299,-102.5 100,-102.5"/>
<text text-anchor="start" x="107" y="-113.9" font-family="Arial" font-size="14.00" fill="#000000">password    </text>
<text text-anchor="start" x="201.1024" y="-113.9" font-family="Arial" font-size="14.00" fill="#666666">[varchar(255)]</text>
<polygon fill="none" stroke="#000000" points="100,-72.5 100,-102.5 299,-102.5 299,-72.5 100,-72.5"/>
<text text-anchor="start" x="107" y="-83.9" font-family="Arial" font-size="14.00" fill="#000000">created_at    </text>
<text text-anchor="start" x="207.3422" y="-83.9" font-family="Arial" font-size="14.00" fill="#666666">[datetime]</text>
<polygon fill="none" stroke="#000000" points="100,-42.5 100,-72.5 299,-72.5 299,-42.5 100,-42.5"/>
<text text-anchor="start" x="107" y="-53.9" font-family="Arial" font-size="14.00" fill="#000000">updated_at    </text>
<text text-anchor="start" x="211.2468" y="-53.9" font-family="Arial" font-size="14.00" fill="#666666">[datetime]</text>
</g>
<!-- categories -->
<g id="node2" class="node">
<title>categories</title>
<polygon fill="#efefef" stroke="transparent" points="403,-192.5 403,-227.5 627,-227.5 627,-192.5 403,-192.5"/>
<polygon fill="none" stroke="#000000" points="403,-192.5 403,-227.5 627,-227.5 627,-192.5 403,-192.5"/>
<text text-anchor="start" x="409.7062" y="-205.3" font-family="Arial Bold" font-size="18.00" fill="#000000">categories</text>
<text text-anchor="start" x="492.7258" y="-205.3" font-family="Arial" font-size="14.00" fill="#000000">    </text>
<text text-anchor="start" x="526.9306" y="-205.3" font-family="Arial" font-size="14.00" fill="#666666">[BASE TABLE]</text>
<polygon fill="none" stroke="#000000" points="403,-162.5 403,-192.5 627,-192.5 627,-162.5 403,-162.5"/>
<text text-anchor="start" x="410" y="-173.9" font-family="Arial" font-size="14.00" fill="#000000">id    </text>
<text text-anchor="start" x="455.094" y="-173.9" font-family="Arial" font-size="14.00" fill="#666666">[int unsigned]</text>
<polygon fill="none" stroke="#000000" points="403,-132.5 403,-162.5 627,-162.5 627,-132.5 403,-132.5"/>
<text text-anchor="start" x="410" y="-143.9" font-family="Arial" font-size="14.00" fill="#000000">name    </text>
<text text-anchor="start" x="479.2132" y="-143.9" font-family="Arial" font-size="14.00" fill="#666666">[varchar(255)]</text>
<polygon fill="none" stroke="#000000" points="403,-102.5 403,-132.5 627,-132.5 627,-102.5 403,-102.5"/>
<text text-anchor="start" x="410" y="-113.9" font-family="Arial" font-size="14.00" fill="#000000">created_at    </text>
<text text-anchor="start" x="510.3422" y="-113.9" font-family="Arial" font-size="14.00" fill="#666666">[datetime]</text>
<polygon fill="none" stroke="#000000" points="403,-72.5 403,-102.5 627,-102.5 627,-72.5 403,-72.5"/>
<text text-anchor="start" x="410" y="-83.9" font-family="Arial" font-size="14.00" fill="#000000">updated_at    </text>
<text text-anchor="start" x="514.2468" y="-83.9" font-family="Arial" font-size="14.00" fill="#666666">[datetime]</text>
</g>
<!-- comments -->
<g id="node3" class="node">
<title>comments</title>
<polygon fill="#efefef" stroke="transparent" points="232,-1151.5 232,-1186.5 456,-1186.5 456,-1151.5 232,-1151.5"/>
<polygon fill="none" stroke="#000000" points="232,-1151.5 232,-1186.5 456,-1186.5 456,-1151.5 232,-1151.5"/>
<text text-anchor="start" x="238.7134" y="-1164.3" font-family="Arial Bold" font-size="18.00" fill="#000000">comments</text>
<text text-anchor="start" x="321.7186" y="-1164.3" font-family="Arial" font-size="14.00" fill="#000000">    </text>
<text text-anchor="start" x="355.9234" y="-1164.3" font-family="Arial" font-size="14.00" fill="#666666">[BASE TABLE]</text>
<polygon fill="none" stroke="#000000" points="232,-1121.5 232,-1151.5 456,-1151.5 456,-1121.5 232,-1121.5"/>
<text text-anchor="start" x="239" y="-1132.9" font-family="Arial" font-size="14.00" fill="#000000">id    </text>
<text text-anchor="start" x="284.094" y="-1132.9" font-family="Arial" font-size="14.00" fill="#666666">[int unsigned]</text>
<polygon fill="none" stroke="#000000" points="232,-1091.5 232,-1121.5 456,-1121.5 456,-1091.5 232,-1091.5"/>
<text text-anchor="start" x="239" y="-1102.9" font-family="Arial" font-size="14.00" fill="#000000">post_id    </text>
<text text-anchor="start" x="318.3324" y="-1102.9" font-family="Arial" font-size="14.00" fill="#666666">[int unsigned]</text>
<polygon fill="none" stroke="#000000" points="232,-1061.5 232,-1091.5 456,-1091.5 456,-1061.5 232,-1061.5"/>
<text text-anchor="start" x="239" y="-1072.9" font-family="Arial" font-size="14.00" fill="#000000">body    </text>
<text text-anchor="start" x="303.5526" y="-1072.9" font-family="Arial" font-size="14.00" fill="#666666">[longtext]</text>
<polygon fill="none" stroke="#000000" points="232,-1031.5 232,-1061.5 456,-1061.5 456,-1031.5 232,-1031.5"/>
<text text-anchor="start" x="239" y="-1042.9" font-family="Arial" font-size="14.00" fill="#000000">status    </text>
<text text-anchor="start" x="310.5512" y="-1042.9" font-family="Arial" font-size="14.00" fill="#666666">[varchar(255)]</text>
<polygon fill="none" stroke="#000000" points="232,-1001.5 232,-1031.5 456,-1031.5 456,-1001.5 232,-1001.5"/>
<text text-anchor="start" x="239" y="-1012.9" font-family="Arial" font-size="14.00" fill="#000000">created_at    </text>
<text text-anchor="start" x="339.3422" y="-1012.9" font-family="Arial" font-size="14.00" fill="#666666">[datetime]</text>
<polygon fill="none" stroke="#000000" points="232,-971.5 232,-1001.5 456,-1001.5 456,-971.5 232,-971.5"/>
<text text-anchor="start" x="239" y="-982.9" font-family="Arial" font-size="14.00" fill="#000000">updated_at    </text>
<text text-anchor="start" x="343.2468" y="-982.9" font-family="Arial" font-size="14.00" fill="#666666">[datetime]</text>
</g>
<!-- posts -->
<g id="node4" class="node">
<title>posts</title>
<polygon fill="#efefef" stroke="transparent" points="255,-649.5 255,-684.5 458,-684.5 458,-649.5 255,-649.5"/>
<polygon fill="none" stroke="#000000" points="255,-649.5 255,-684.5 458,-684.5 458,-649.5 255,-649.5"/>
<text text-anchor="start" x="271.2087" y="-662.3" font-family="Arial Bold" font-size="18.00" fill="#000000">posts</text>
<text text-anchor="start" x="314.2233" y="-662.3" font-family="Arial" font-size="14.00" fill="#000000">    </text>
<text text-anchor="start" x="348.4281" y="-662.3" font-family="Arial" font-size="14.00" fill="#666666">[BASE TABLE]</text>
<polygon fill="none" stroke="#000000" points="255,-619.5 255,-649.5 458,-649.5 458,-619.5 255,-619.5"/>
<text text-anchor="start" x="262" y="-630.9" font-family="Arial" font-size="14.00" fill="#000000">id    </text>
<text text-anchor="start" x="307.094" y="-630.9" font-family="Arial" font-size="14.00" fill="#666666">[int unsigned]</text>
<polygon fill="none" stroke="#000000" points="255,-589.5 255,-619.5 458,-619.5 458,-589.5 255,-589.5"/>
<text text-anchor="start" x="262" y="-600.9" font-family="Arial" font-size="14.00" fill="#000000">admin_id    </text>
<text text-anchor="start" x="352.9916" y="-600.9" font-family="Arial" font-size="14.00" fill="#666666">[int unsigned]</text>
<polygon fill="none" stroke="#000000" points="255,-559.5 255,-589.5 458,-589.5 458,-559.5 255,-559.5"/>
<text text-anchor="start" x="261.594" y="-570.9" font-family="Arial" font-size="14.00" fill="#000000">category_id    </text>
<text text-anchor="start" x="368.1522" y="-570.9" font-family="Arial" font-size="14.00" fill="#666666">[int unsigned]</text>
<polygon fill="none" stroke="#000000" points="255,-529.5 255,-559.5 458,-559.5 458,-529.5 255,-529.5"/>
<text text-anchor="start" x="262" y="-540.9" font-family="Arial" font-size="14.00" fill="#000000">title    </text>
<text text-anchor="start" x="317.9818" y="-540.9" font-family="Arial" font-size="14.00" fill="#666666">[varchar(255)]</text>
<polygon fill="none" stroke="#000000" points="255,-499.5 255,-529.5 458,-529.5 458,-499.5 255,-499.5"/>
<text text-anchor="start" x="262" y="-510.9" font-family="Arial" font-size="14.00" fill="#000000">md_body    </text>
<text text-anchor="start" x="353.7784" y="-510.9" font-family="Arial" font-size="14.00" fill="#666666">[longtext]</text>
<polygon fill="none" stroke="#000000" points="255,-469.5 255,-499.5 458,-499.5 458,-469.5 255,-469.5"/>
<text text-anchor="start" x="262" y="-480.9" font-family="Arial" font-size="14.00" fill="#000000">html_body    </text>
<text text-anchor="start" x="360.7756" y="-480.9" font-family="Arial" font-size="14.00" fill="#666666">[longtext]</text>
<polygon fill="none" stroke="#000000" points="255,-439.5 255,-469.5 458,-469.5 458,-439.5 255,-439.5"/>
<text text-anchor="start" x="262" y="-450.9" font-family="Arial" font-size="14.00" fill="#000000">status    </text>
<text text-anchor="start" x="333.5512" y="-450.9" font-family="Arial" font-size="14.00" fill="#666666">[varchar(255)]</text>
<polygon fill="none" stroke="#000000" points="255,-409.5 255,-439.5 458,-439.5 458,-409.5 255,-409.5"/>
<text text-anchor="start" x="262" y="-420.9" font-family="Arial" font-size="14.00" fill="#000000">created_at    </text>
<text text-anchor="start" x="362.3422" y="-420.9" font-family="Arial" font-size="14.00" fill="#666666">[datetime]</text>
<polygon fill="none" stroke="#000000" points="255,-379.5 255,-409.5 458,-409.5 458,-379.5 255,-379.5"/>
<text text-anchor="start" x="262" y="-390.9" font-family="Arial" font-size="14.00" fill="#000000">updated_at    </text>
<text text-anchor="start" x="366.2468" y="-390.9" font-family="Arial" font-size="14.00" fill="#666666">[datetime]</text>
</g>
<!-- comments&#45;&gt;posts -->
<g id="edge1" class="edge">
<title>comments:post_id&#45;&gt;posts:id</title>
<path fill="none" stroke="#000000" d="M466.2678,-1105.8244C530.364,-1096.762 484.7743,-998.4674 456,-929 407.6531,-812.2804 303.3469,-844.7196 255,-728 239.0974,-689.6077 213.4444,-634.5 255,-634.5"/>
<polygon fill="#000000" stroke="#000000" points="465.9784,-1105.8434 455.7045,-1102.0097 460.9892,-1106.1717 456,-1106.5 456,-1106.5 456,-1106.5 460.9892,-1106.1717 456.2955,-1110.9903 465.9784,-1105.8434 465.9784,-1105.8434"/>
<text text-anchor="start" x="463.495" y="-1116.5" font-family="Arial" font-size="10.00" fill="#000000">FOREIGN KEY (post_id) REFERENCES posts (id)</text>
</g>
<!-- posts&#45;&gt;admins -->
<g id="edge2" class="edge">
<title>posts:admin_id&#45;&gt;admins:id</title>
<path fill="none" stroke="#000000" d="M244.7106,-604.0658C140.2113,-594.8569 205.6295,-441.1838 255,-337 265.8201,-314.167 288.1799,-323.833 299,-301 316.7953,-263.4475 340.5556,-207.5 299,-207.5"/>
<polygon fill="#000000" stroke="#000000" points="245.0089,-604.0783 254.8102,-608.996 250.0044,-604.2892 255,-604.5 255,-604.5 255,-604.5 250.0044,-604.2892 255.1898,-600.004 245.0089,-604.0783 245.0089,-604.0783"/>
<text text-anchor="start" x="7.167" y="-614.5" font-family="Arial" font-size="10.00" fill="#000000">FOREIGN KEY (admin_id) REFERENCES admins (id)</text>
</g>
<!-- posts&#45;&gt;categories -->
<g id="edge3" class="edge">
<title>posts:category_id&#45;&gt;categories:id</title>
<path fill="none" stroke="#000000" d="M468.218,-574.0225C558.8356,-565.0949 492.7056,-432.8585 458,-337 445.0014,-301.0972 415.9986,-306.9028 403,-271 388.8534,-231.9265 361.4444,-177.5 403,-177.5"/>
<polygon fill="#000000" stroke="#000000" points="467.9891,-574.0331 457.7899,-570.0049 462.9946,-574.2666 458,-574.5 458,-574.5 458,-574.5 462.9946,-574.2666 458.2101,-578.9951 467.9891,-574.0331 467.9891,-574.0331"/>
<text text-anchor="start" x="184.659" y="-584.5" font-family="Arial" font-size="10.00" fill="#000000">FOREIGN KEY (category_id) REFERENCES categories (id)</text>
</g>
<!-- tag_post -->
<g id="node5" class="node">
<title>tag_post</title>
<polygon fill="#efefef" stroke="transparent" points="560,-1136.5 560,-1171.5 770,-1171.5 770,-1136.5 560,-1136.5"/>
<polygon fill="none" stroke="#000000" points="560,-1136.5 560,-1171.5 770,-1171.5 770,-1136.5 560,-1136.5"/>
<text text-anchor="start" x="566.6983" y="-1149.3" font-family="Arial Bold" font-size="18.00" fill="#000000">tag_post</text>
<text text-anchor="start" x="635.7337" y="-1149.3" font-family="Arial" font-size="14.00" fill="#000000">    </text>
<text text-anchor="start" x="669.9385" y="-1149.3" font-family="Arial" font-size="14.00" fill="#666666">[BASE TABLE]</text>
<polygon fill="none" stroke="#000000" points="560,-1106.5 560,-1136.5 770,-1136.5 770,-1106.5 560,-1106.5"/>
<text text-anchor="start" x="567" y="-1117.9" font-family="Arial" font-size="14.00" fill="#000000">id    </text>
<text text-anchor="start" x="612.094" y="-1117.9" font-family="Arial" font-size="14.00" fill="#666666">[int unsigned]</text>
<polygon fill="none" stroke="#000000" points="560,-1076.5 560,-1106.5 770,-1106.5 770,-1076.5 560,-1076.5"/>
<text text-anchor="start" x="567" y="-1087.9" font-family="Arial" font-size="14.00" fill="#000000">tag_id    </text>
<text text-anchor="start" x="639.3324" y="-1087.9" font-family="Arial" font-size="14.00" fill="#666666">[int unsigned]</text>
<polygon fill="none" stroke="#000000" points="560,-1046.5 560,-1076.5 770,-1076.5 770,-1046.5 560,-1046.5"/>
<text text-anchor="start" x="567" y="-1057.9" font-family="Arial" font-size="14.00" fill="#000000">post_id    </text>
<text text-anchor="start" x="646.3324" y="-1057.9" font-family="Arial" font-size="14.00" fill="#666666">[int unsigned]</text>
<polygon fill="none" stroke="#000000" points="560,-1016.5 560,-1046.5 770,-1046.5 770,-1016.5 560,-1016.5"/>
<text text-anchor="start" x="567" y="-1027.9" font-family="Arial" font-size="14.00" fill="#000000">created_at    </text>
<text text-anchor="start" x="667.3422" y="-1027.9" font-family="Arial" font-size="14.00" fill="#666666">[datetime]</text>
<polygon fill="none" stroke="#000000" points="560,-986.5 560,-1016.5 770,-1016.5 770,-986.5 560,-986.5"/>
<text text-anchor="start" x="567" y="-997.9" font-family="Arial" font-size="14.00" fill="#000000">updated_at    </text>
<text text-anchor="start" x="671.2468" y="-997.9" font-family="Arial" font-size="14.00" fill="#666666">[datetime]</text>
</g>
<!-- tag_post&#45;&gt;posts -->
<g id="edge5" class="edge">
<title>tag_post:post_id&#45;&gt;posts:id</title>
<path fill="none" stroke="#000000" d="M549.8633,-1059.4766C496.3503,-1036.537 524.9684,-825.1319 508,-764 491.4987,-704.5511 519.6966,-634.5 458,-634.5"/>
<polygon fill="#000000" stroke="#000000" points="550.1935,-1059.5424 559.1191,-1065.9129 555.0967,-1060.5212 560,-1061.5 560,-1061.5 560,-1061.5 555.0967,-1060.5212 560.8809,-1057.0871 550.1935,-1059.5424 550.1935,-1059.5424"/>
<text text-anchor="start" x="507.745" y="-1045.5" font-family="Arial" font-size="10.00" fill="#000000">FOREIGN KEY (post_id) REFERENCES posts (id)</text>
</g>
<!-- tags -->
<g id="node6" class="node">
<title>tags</title>
<polygon fill="#efefef" stroke="transparent" points="575,-574.5 575,-609.5 754,-609.5 754,-574.5 575,-574.5"/>
<polygon fill="none" stroke="#000000" points="575,-574.5 575,-609.5 754,-609.5 754,-574.5 575,-574.5"/>
<text text-anchor="start" x="583.7087" y="-587.3" font-family="Arial Bold" font-size="18.00" fill="#000000">tags</text>
<text text-anchor="start" x="617.7233" y="-587.3" font-family="Arial" font-size="14.00" fill="#000000">    </text>
<text text-anchor="start" x="651.9281" y="-587.3" font-family="Arial" font-size="14.00" fill="#666666">[BASE TABLE]</text>
<polygon fill="none" stroke="#000000" points="575,-544.5 575,-574.5 754,-574.5 754,-544.5 575,-544.5"/>
<text text-anchor="start" x="582" y="-555.9" font-family="Arial" font-size="14.00" fill="#000000">id    </text>
<text text-anchor="start" x="627.094" y="-555.9" font-family="Arial" font-size="14.00" fill="#666666">[int unsigned]</text>
<polygon fill="none" stroke="#000000" points="575,-514.5 575,-544.5 754,-544.5 754,-514.5 575,-514.5"/>
<text text-anchor="start" x="582" y="-525.9" font-family="Arial" font-size="14.00" fill="#000000">name    </text>
<text text-anchor="start" x="651.2132" y="-525.9" font-family="Arial" font-size="14.00" fill="#666666">[varchar(255)]</text>
<polygon fill="none" stroke="#000000" points="575,-484.5 575,-514.5 754,-514.5 754,-484.5 575,-484.5"/>
<text text-anchor="start" x="582" y="-495.9" font-family="Arial" font-size="14.00" fill="#000000">created_at    </text>
<text text-anchor="start" x="682.3422" y="-495.9" font-family="Arial" font-size="14.00" fill="#666666">[datetime]</text>
<polygon fill="none" stroke="#000000" points="575,-454.5 575,-484.5 754,-484.5 754,-454.5 575,-454.5"/>
<text text-anchor="start" x="581.6466" y="-465.9" font-family="Arial" font-size="14.00" fill="#000000">updated_at    </text>
<text text-anchor="start" x="685.8934" y="-465.9" font-family="Arial" font-size="14.00" fill="#666666">[datetime]</text>
</g>
<!-- tag_post&#45;&gt;tags -->
<g id="edge4" class="edge">
<title>tag_post:tag_id&#45;&gt;tags:id</title>
<path fill="none" stroke="#000000" d="M549.9143,-1090.7037C499.6302,-1081.9692 542.079,-1003.1889 560,-944 615.4672,-760.8043 945.4087,-559.5 754,-559.5"/>
<polygon fill="#000000" stroke="#000000" points="550.031,-1090.7128 559.6458,-1095.986 555.0155,-1091.1064 560,-1091.5 560,-1091.5 560,-1091.5 555.0155,-1091.1064 560.3542,-1087.014 550.031,-1090.7128 550.031,-1090.7128"/>
<text text-anchor="start" x="510.245" y="-1075.5" font-family="Arial" font-size="10.00" fill="#000000">FOREIGN KEY (tag_id) REFERENCES tags (id)</text>
</g>
<!-- view_posts -->
<g id="node7" class="node">
<title>view_posts</title>
<polygon fill="#efefef" stroke="transparent" points="875,-1316.5 875,-1351.5 1116,-1351.5 1116,-1316.5 875,-1316.5"/>
<polygon fill="none" stroke="#000000" points="875,-1316.5 875,-1351.5 1116,-1351.5 1116,-1316.5 875,-1316.5"/>
<text text-anchor="start" x="912.1101" y="-1329.3" font-family="Arial Bold" font-size="18.00" fill="#000000">view_posts</text>
<text text-anchor="start" x="1001.1255" y="-1329.3" font-family="Arial" font-size="14.00" fill="#000000">    </text>
<text text-anchor="start" x="1035.3303" y="-1329.3" font-family="Arial" font-size="14.00" fill="#666666">[VIEW]</text>
<polygon fill="none" stroke="#000000" points="875,-1286.5 875,-1316.5 1116,-1316.5 1116,-1286.5 875,-1286.5"/>
<text text-anchor="start" x="882" y="-1297.9" font-family="Arial" font-size="14.00" fill="#000000">id    </text>
<text text-anchor="start" x="927.094" y="-1297.9" font-family="Arial" font-size="14.00" fill="#666666">[int unsigned]</text>
<polygon fill="none" stroke="#000000" points="875,-1256.5 875,-1286.5 1116,-1286.5 1116,-1256.5 875,-1256.5"/>
<text text-anchor="start" x="882" y="-1267.9" font-family="Arial" font-size="14.00" fill="#000000">admin_id    </text>
<text text-anchor="start" x="972.9916" y="-1267.9" font-family="Arial" font-size="14.00" fill="#666666">[int unsigned]</text>
<polygon fill="none" stroke="#000000" points="875,-1226.5 875,-1256.5 1116,-1256.5 1116,-1226.5 875,-1226.5"/>
<text text-anchor="start" x="882" y="-1237.9" font-family="Arial" font-size="14.00" fill="#000000">category_id    </text>
<text text-anchor="start" x="988.5582" y="-1237.9" font-family="Arial" font-size="14.00" fill="#666666">[int unsigned]</text>
<polygon fill="none" stroke="#000000" points="875,-1196.5 875,-1226.5 1116,-1226.5 1116,-1196.5 875,-1196.5"/>
<text text-anchor="start" x="882" y="-1207.9" font-family="Arial" font-size="14.00" fill="#000000">title    </text>
<text text-anchor="start" x="937.9818" y="-1207.9" font-family="Arial" font-size="14.00" fill="#666666">[varchar(255)]</text>
<polygon fill="none" stroke="#000000" points="875,-1166.5 875,-1196.5 1116,-1196.5 1116,-1166.5 875,-1166.5"/>
<text text-anchor="start" x="882" y="-1177.9" font-family="Arial" font-size="14.00" fill="#000000">md_body    </text>
<text text-anchor="start" x="973.7784" y="-1177.9" font-family="Arial" font-size="14.00" fill="#666666">[longtext]</text>
<polygon fill="none" stroke="#000000" points="875,-1136.5 875,-1166.5 1116,-1166.5 1116,-1136.5 875,-1136.5"/>
<text text-anchor="start" x="882" y="-1147.9" font-family="Arial" font-size="14.00" fill="#000000">html_body    </text>
<text text-anchor="start" x="980.7756" y="-1147.9" font-family="Arial" font-size="14.00" fill="#666666">[longtext]</text>
<polygon fill="none" stroke="#000000" points="875,-1106.5 875,-1136.5 1116,-1136.5 1116,-1106.5 875,-1106.5"/>
<text text-anchor="start" x="882" y="-1117.9" font-family="Arial" font-size="14.00" fill="#000000">status    </text>
<text text-anchor="start" x="953.5512" y="-1117.9" font-family="Arial" font-size="14.00" fill="#666666">[varchar(255)]</text>
<polygon fill="none" stroke="#000000" points="875,-1076.5 875,-1106.5 1116,-1106.5 1116,-1076.5 875,-1076.5"/>
<text text-anchor="start" x="882" y="-1087.9" font-family="Arial" font-size="14.00" fill="#000000">created_at    </text>
<text text-anchor="start" x="982.3422" y="-1087.9" font-family="Arial" font-size="14.00" fill="#666666">[datetime]</text>
<polygon fill="none" stroke="#000000" points="875,-1046.5 875,-1076.5 1116,-1076.5 1116,-1046.5 875,-1046.5"/>
<text text-anchor="start" x="882" y="-1057.9" font-family="Arial" font-size="14.00" fill="#000000">updated_at    </text>
<text text-anchor="start" x="986.2468" y="-1057.9" font-family="Arial" font-size="14.00" fill="#666666">[datetime]</text>
<polygon fill="none" stroke="#000000" points="875,-1016.5 875,-1046.5 1116,-1046.5 1116,-1016.5 875,-1016.5"/>
<text text-anchor="start" x="882" y="-1027.9" font-family="Arial" font-size="14.00" fill="#000000">admin_name    </text>
<text text-anchor="start" x="997.1108" y="-1027.9" font-family="Arial" font-size="14.00" fill="#666666">[varchar(255)]</text>
<polygon fill="none" stroke="#000000" points="875,-986.5 875,-1016.5 1116,-1016.5 1116,-986.5 875,-986.5"/>
<text text-anchor="start" x="882" y="-997.9" font-family="Arial" font-size="14.00" fill="#000000">admin_email    </text>
<text text-anchor="start" x="995.5414" y="-997.9" font-family="Arial" font-size="14.00" fill="#666666">[varchar(255)]</text>
<polygon fill="none" stroke="#000000" points="875,-956.5 875,-986.5 1116,-986.5 1116,-956.5 875,-956.5"/>
<text text-anchor="start" x="881.9404" y="-967.9" font-family="Arial" font-size="14.00" fill="#000000">admin_password    </text>
<text text-anchor="start" x="1021.9404" y="-967.9" font-family="Arial" font-size="14.00" fill="#666666">[varchar(255)]</text>
<polygon fill="none" stroke="#000000" points="875,-926.5 875,-956.5 1116,-956.5 1116,-926.5 875,-926.5"/>
<text text-anchor="start" x="882" y="-937.9" font-family="Arial" font-size="14.00" fill="#000000">admin_created_at    </text>
<text text-anchor="start" x="1028.2398" y="-937.9" font-family="Arial" font-size="14.00" fill="#666666">[datetime]</text>
<polygon fill="none" stroke="#000000" points="875,-896.5 875,-926.5 1116,-926.5 1116,-896.5 875,-896.5"/>
<text text-anchor="start" x="882" y="-907.9" font-family="Arial" font-size="14.00" fill="#000000">admin_updated_at    </text>
<text text-anchor="start" x="1032.1444" y="-907.9" font-family="Arial" font-size="14.00" fill="#666666">[datetime]</text>
<polygon fill="none" stroke="#000000" points="875,-866.5 875,-896.5 1116,-896.5 1116,-866.5 875,-866.5"/>
<text text-anchor="start" x="882" y="-877.9" font-family="Arial" font-size="14.00" fill="#000000">category_name    </text>
<text text-anchor="start" x="1012.6774" y="-877.9" font-family="Arial" font-size="14.00" fill="#666666">[varchar(255)]</text>
<polygon fill="none" stroke="#000000" points="875,-836.5 875,-866.5 1116,-866.5 1116,-836.5 875,-836.5"/>
<text text-anchor="start" x="882" y="-847.9" font-family="Arial" font-size="14.00" fill="#000000">category_created_at    </text>
<text text-anchor="start" x="1043.8064" y="-847.9" font-family="Arial" font-size="14.00" fill="#666666">[datetime]</text>
<polygon fill="none" stroke="#000000" points="875,-806.5 875,-836.5 1116,-836.5 1116,-806.5 875,-806.5"/>
<text text-anchor="start" x="881.9145" y="-817.9" font-family="Arial" font-size="14.00" fill="#000000">category_updated_at    </text>
<text text-anchor="start" x="1047.6255" y="-817.9" font-family="Arial" font-size="14.00" fill="#666666">[datetime]</text>
</g>
</g>
</svg>
