<?xml version="1.0" encoding="UTF-8" standalone="no"?>
<!DOCTYPE svg PUBLIC "-//W3C//DTD SVG 1.1//EN"
 "http://www.w3.org/Graphics/SVG/1.1/DTD/svg11.dtd">
<!-- Generated by graphviz version 2.40.1 (20161225.0304)
 -->
<!-- Title: tag_post Pages: 1 -->
<svg width="686pt" height="712pt"
 viewBox="0.00 0.00 686.00 712.00" xmlns="http://www.w3.org/2000/svg" xmlns:xlink="http://www.w3.org/1999/xlink">
<g id="graph0" class="graph" transform="scale(1 1) rotate(0) translate(4 708)">
<title>tag_post</title>
<polygon fill="#ffffff" stroke="transparent" points="-4,4 -4,-708 682,-708 682,4 -4,4"/>
<!-- tag_post -->
<g id="node1" class="node">
<title>tag_post</title>
<polygon fill="#efefef" stroke="transparent" points="229,-622.5 229,-657.5 439,-657.5 439,-622.5 229,-622.5"/>
<polygon fill="none" stroke="#000000" points="229,-622.5 229,-657.5 439,-657.5 439,-622.5 229,-622.5"/>
<text text-anchor="start" x="235.6983" y="-635.3" font-family="Arial Bold" font-size="18.00" fill="#000000">tag_post</text>
<text text-anchor="start" x="304.7337" y="-635.3" font-family="Arial" font-size="14.00" fill="#000000">    </text>
<text text-anchor="start" x="338.9385" y="-635.3" font-family="Arial" font-size="14.00" fill="#666666">[BASE TABLE]</text>
<polygon fill="none" stroke="#000000" points="229,-592.5 229,-622.5 439,-622.5 439,-592.5 229,-592.5"/>
<text text-anchor="start" x="236" y="-603.9" font-family="Arial" font-size="14.00" fill="#000000">id </text>
<text text-anchor="start" x="250.7798" y="-603.9" font-family="Arial" font-size="14.00" fill="#666666">[int unsigned]</text>
<polygon fill="none" stroke="#000000" points="229,-562.5 229,-592.5 439,-592.5 439,-562.5 229,-562.5"/>
<text text-anchor="start" x="236" y="-573.9" font-family="Arial" font-size="14.00" fill="#000000">tag_id </text>
<text text-anchor="start" x="278.0182" y="-573.9" font-family="Arial" font-size="14.00" fill="#666666">[int unsigned]</text>
<polygon fill="none" stroke="#000000" points="229,-532.5 229,-562.5 439,-562.5 439,-532.5 229,-532.5"/>
<text text-anchor="start" x="236" y="-543.9" font-family="Arial" font-size="14.00" fill="#000000">post_id </text>
<text text-anchor="start" x="285.0182" y="-543.9" font-family="Arial" font-size="14.00" fill="#666666">[int unsigned]</text>
<polygon fill="none" stroke="#000000" points="229,-502.5 229,-532.5 439,-532.5 439,-502.5 229,-502.5"/>
<text text-anchor="start" x="236" y="-513.9" font-family="Arial" font-size="14.00" fill="#000000">created_at </text>
<text text-anchor="start" x="306.028" y="-513.9" font-family="Arial" font-size="14.00" fill="#666666">[datetime]</text>
<polygon fill="none" stroke="#000000" points="229,-472.5 229,-502.5 439,-502.5 439,-472.5 229,-472.5"/>
<text text-anchor="start" x="236" y="-483.9" font-family="Arial" font-size="14.00" fill="#000000">updated_at </text>
<text text-anchor="start" x="309.9326" y="-483.9" font-family="Arial" font-size="14.00" fill="#666666">[datetime]</text>
<polygon fill="none" stroke="#000000" stroke-width="3" points="227.5,-471.5 227.5,-659.5 440.5,-659.5 440.5,-471.5 227.5,-471.5"/>
</g>
<!-- tags -->
<g id="node2" class="node">
<title>tags</title>
<polygon fill="#efefef" stroke="transparent" points="97,-237.5 97,-272.5 276,-272.5 276,-237.5 97,-237.5"/>
<polygon fill="none" stroke="#000000" points="97,-237.5 97,-272.5 276,-272.5 276,-237.5 97,-237.5"/>
<text text-anchor="start" x="105.7087" y="-250.3" font-family="Arial Bold" font-size="18.00" fill="#000000">tags</text>
<text text-anchor="start" x="139.7233" y="-250.3" font-family="Arial" font-size="14.00" fill="#000000">    </text>
<text text-anchor="start" x="173.9281" y="-250.3" font-family="Arial" font-size="14.00" fill="#666666">[BASE TABLE]</text>
<polygon fill="none" stroke="#000000" points="97,-207.5 97,-237.5 276,-237.5 276,-207.5 97,-207.5"/>
<text text-anchor="start" x="104" y="-218.9" font-family="Arial" font-size="14.00" fill="#000000">id    </text>
<text text-anchor="start" x="149.094" y="-218.9" font-family="Arial" font-size="14.00" fill="#666666">[int unsigned]</text>
<polygon fill="none" stroke="#000000" points="97,-177.5 97,-207.5 276,-207.5 276,-177.5 97,-177.5"/>
<text text-anchor="start" x="104" y="-188.9" font-family="Arial" font-size="14.00" fill="#000000">name    </text>
<text text-anchor="start" x="173.2132" y="-188.9" font-family="Arial" font-size="14.00" fill="#666666">[varchar(255)]</text>
<polygon fill="none" stroke="#000000" points="97,-147.5 97,-177.5 276,-177.5 276,-147.5 97,-147.5"/>
<text text-anchor="start" x="104" y="-158.9" font-family="Arial" font-size="14.00" fill="#000000">created_at    </text>
<text text-anchor="start" x="204.3422" y="-158.9" font-family="Arial" font-size="14.00" fill="#666666">[datetime]</text>
<polygon fill="none" stroke="#000000" points="97,-117.5 97,-147.5 276,-147.5 276,-117.5 97,-117.5"/>
<text text-anchor="start" x="103.6466" y="-128.9" font-family="Arial" font-size="14.00" fill="#000000">updated_at    </text>
<text text-anchor="start" x="207.8934" y="-128.9" font-family="Arial" font-size="14.00" fill="#666666">[datetime]</text>
</g>
<!-- tag_post&#45;&gt;tags -->
<g id="edge1" class="edge">
<title>tag_post:tag_id&#45;&gt;tags:id</title>
<path fill="none" stroke="#000000" d="M218.7644,-576.7014C168.0518,-567.9392 216.4474,-488.8391 229,-427 239.6575,-374.4972 265.3425,-368.5028 276,-316 284.2667,-275.275 317.5556,-222.5 276,-222.5"/>
<polygon fill="#000000" stroke="#000000" points="219.0303,-576.722 228.6499,-581.9864 224.0151,-577.111 229,-577.5 229,-577.5 229,-577.5 224.0151,-577.111 229.3501,-573.0136 219.0303,-576.722 219.0303,-576.722"/>
<text text-anchor="start" x="7.495" y="-587.5" font-family="Arial" font-size="10.00" fill="#000000">FOREIGN KEY (tag_id) REFERENCES tags (id)</text>
</g>
<!-- posts -->
<g id="node3" class="node">
<title>posts</title>
<polygon fill="#efefef" stroke="transparent" points="380,-312.5 380,-347.5 583,-347.5 583,-312.5 380,-312.5"/>
<polygon fill="none" stroke="#000000" points="380,-312.5 380,-347.5 583,-347.5 583,-312.5 380,-312.5"/>
<text text-anchor="start" x="396.2087" y="-325.3" font-family="Arial Bold" font-size="18.00" fill="#000000">posts</text>
<text text-anchor="start" x="439.2233" y="-325.3" font-family="Arial" font-size="14.00" fill="#000000">    </text>
<text text-anchor="start" x="473.4281" y="-325.3" font-family="Arial" font-size="14.00" fill="#666666">[BASE TABLE]</text>
<polygon fill="none" stroke="#000000" points="380,-282.5 380,-312.5 583,-312.5 583,-282.5 380,-282.5"/>
<text text-anchor="start" x="387" y="-293.9" font-family="Arial" font-size="14.00" fill="#000000">id    </text>
<text text-anchor="start" x="432.094" y="-293.9" font-family="Arial" font-size="14.00" fill="#666666">[int unsigned]</text>
<polygon fill="none" stroke="#000000" points="380,-252.5 380,-282.5 583,-282.5 583,-252.5 380,-252.5"/>
<text text-anchor="start" x="387" y="-263.9" font-family="Arial" font-size="14.00" fill="#000000">admin_id    </text>
<text text-anchor="start" x="477.9916" y="-263.9" font-family="Arial" font-size="14.00" fill="#666666">[int unsigned]</text>
<polygon fill="none" stroke="#000000" points="380,-222.5 380,-252.5 583,-252.5 583,-222.5 380,-222.5"/>
<text text-anchor="start" x="386.594" y="-233.9" font-family="Arial" font-size="14.00" fill="#000000">category_id    </text>
<text text-anchor="start" x="493.1522" y="-233.9" font-family="Arial" font-size="14.00" fill="#666666">[int unsigned]</text>
<polygon fill="none" stroke="#000000" points="380,-192.5 380,-222.5 583,-222.5 583,-192.5 380,-192.5"/>
<text text-anchor="start" x="387" y="-203.9" font-family="Arial" font-size="14.00" fill="#000000">title    </text>
<text text-anchor="start" x="442.9818" y="-203.9" font-family="Arial" font-size="14.00" fill="#666666">[varchar(255)]</text>
<polygon fill="none" stroke="#000000" points="380,-162.5 380,-192.5 583,-192.5 583,-162.5 380,-162.5"/>
<text text-anchor="start" x="387" y="-173.9" font-family="Arial" font-size="14.00" fill="#000000">md_body    </text>
<text text-anchor="start" x="478.7784" y="-173.9" font-family="Arial" font-size="14.00" fill="#666666">[longtext]</text>
<polygon fill="none" stroke="#000000" points="380,-132.5 380,-162.5 583,-162.5 583,-132.5 380,-132.5"/>
<text text-anchor="start" x="387" y="-143.9" font-family="Arial" font-size="14.00" fill="#000000">html_body    </text>
<text text-anchor="start" x="485.7756" y="-143.9" font-family="Arial" font-size="14.00" fill="#666666">[longtext]</text>
<polygon fill="none" stroke="#000000" points="380,-102.5 380,-132.5 583,-132.5 583,-102.5 380,-102.5"/>
<text text-anchor="start" x="387" y="-113.9" font-family="Arial" font-size="14.00" fill="#000000">status    </text>
<text text-anchor="start" x="458.5512" y="-113.9" font-family="Arial" font-size="14.00" fill="#666666">[varchar(255)]</text>
<polygon fill="none" stroke="#000000" points="380,-72.5 380,-102.5 583,-102.5 583,-72.5 380,-72.5"/>
<text text-anchor="start" x="387" y="-83.9" font-family="Arial" font-size="14.00" fill="#000000">created_at    </text>
<text text-anchor="start" x="487.3422" y="-83.9" font-family="Arial" font-size="14.00" fill="#666666">[datetime]</text>
<polygon fill="none" stroke="#000000" points="380,-42.5 380,-72.5 583,-72.5 583,-42.5 380,-42.5"/>
<text text-anchor="start" x="387" y="-53.9" font-family="Arial" font-size="14.00" fill="#000000">updated_at    </text>
<text text-anchor="start" x="491.2468" y="-53.9" font-family="Arial" font-size="14.00" fill="#666666">[datetime]</text>
</g>
<!-- tag_post&#45;&gt;posts -->
<g id="edge2" class="edge">
<title>tag_post:post_id&#45;&gt;posts:id</title>
<path fill="none" stroke="#000000" d="M449.1255,-546.4405C488.7161,-537.2561 463.37,-470.4182 439,-427 423.9648,-400.2129 395.0352,-417.7871 380,-391 359.6604,-354.7624 338.4444,-297.5 380,-297.5"/>
<polygon fill="#000000" stroke="#000000" points="448.9457,-546.4593 438.5317,-543.0244 443.9729,-546.9796 439,-547.5 439,-547.5 439,-547.5 443.9729,-546.9796 439.4683,-551.9756 448.9457,-546.4593 448.9457,-546.4593"/>
<text text-anchor="start" x="446.495" y="-557.5" font-family="Arial" font-size="10.00" fill="#000000">FOREIGN KEY (post_id) REFERENCES posts (id)</text>
</g>
</g>
</svg>
