<?xml version="1.0" encoding="UTF-8" standalone="no"?>
<!DOCTYPE svg PUBLIC "-//W3C//DTD SVG 1.1//EN"
 "http://www.w3.org/Graphics/SVG/1.1/DTD/svg11.dtd">
<!-- Generated by graphviz version 2.40.1 (20161225.0304)
 -->
<!-- Title: tags Pages: 1 -->
<svg width="490pt" height="562pt"
 viewBox="0.00 0.00 490.00 562.00" xmlns="http://www.w3.org/2000/svg" xmlns:xlink="http://www.w3.org/1999/xlink">
<g id="graph0" class="graph" transform="scale(1 1) rotate(0) translate(4 558)">
<title>tags</title>
<polygon fill="#ffffff" stroke="transparent" points="-4,4 -4,-558 486,-558 486,4 -4,4"/>
<!-- tags -->
<g id="node1" class="node">
<title>tags</title>
<polygon fill="#efefef" stroke="transparent" points="246,-165.5 246,-200.5 421,-200.5 421,-165.5 246,-165.5"/>
<polygon fill="none" stroke="#000000" points="246,-165.5 246,-200.5 421,-200.5 421,-165.5 246,-165.5"/>
<text text-anchor="start" x="252.7087" y="-178.3" font-family="Arial Bold" font-size="18.00" fill="#000000">tags</text>
<text text-anchor="start" x="286.7233" y="-178.3" font-family="Arial" font-size="14.00" fill="#000000">    </text>
<text text-anchor="start" x="320.9281" y="-178.3" font-family="Arial" font-size="14.00" fill="#666666">[BASE TABLE]</text>
<polygon fill="none" stroke="#000000" points="246,-135.5 246,-165.5 421,-165.5 421,-135.5 246,-135.5"/>
<text text-anchor="start" x="253" y="-146.9" font-family="Arial" font-size="14.00" fill="#000000">id </text>
<text text-anchor="start" x="267.7798" y="-146.9" font-family="Arial" font-size="14.00" fill="#666666">[int unsigned]</text>
<polygon fill="none" stroke="#000000" points="246,-105.5 246,-135.5 421,-135.5 421,-105.5 246,-105.5"/>
<text text-anchor="start" x="253" y="-116.9" font-family="Arial" font-size="14.00" fill="#000000">name </text>
<text text-anchor="start" x="291.899" y="-116.9" font-family="Arial" font-size="14.00" fill="#666666">[varchar(255)]</text>
<polygon fill="none" stroke="#000000" points="246,-75.5 246,-105.5 421,-105.5 421,-75.5 246,-75.5"/>
<text text-anchor="start" x="253" y="-86.9" font-family="Arial" font-size="14.00" fill="#000000">created_at </text>
<text text-anchor="start" x="323.028" y="-86.9" font-family="Arial" font-size="14.00" fill="#666666">[datetime]</text>
<polygon fill="none" stroke="#000000" points="246,-45.5 246,-75.5 421,-75.5 421,-45.5 246,-45.5"/>
<text text-anchor="start" x="253" y="-56.9" font-family="Arial" font-size="14.00" fill="#000000">updated_at </text>
<text text-anchor="start" x="326.9326" y="-56.9" font-family="Arial" font-size="14.00" fill="#666666">[datetime]</text>
<polygon fill="none" stroke="#000000" stroke-width="3" points="244,-44.5 244,-202.5 422,-202.5 422,-44.5 244,-44.5"/>
</g>
<!-- tag_post -->
<g id="node2" class="node">
<title>tag_post</title>
<polygon fill="#efefef" stroke="transparent" points="229,-475.5 229,-510.5 439,-510.5 439,-475.5 229,-475.5"/>
<polygon fill="none" stroke="#000000" points="229,-475.5 229,-510.5 439,-510.5 439,-475.5 229,-475.5"/>
<text text-anchor="start" x="235.6983" y="-488.3" font-family="Arial Bold" font-size="18.00" fill="#000000">tag_post</text>
<text text-anchor="start" x="304.7337" y="-488.3" font-family="Arial" font-size="14.00" fill="#000000">    </text>
<text text-anchor="start" x="338.9385" y="-488.3" font-family="Arial" font-size="14.00" fill="#666666">[BASE TABLE]</text>
<polygon fill="none" stroke="#000000" points="229,-445.5 229,-475.5 439,-475.5 439,-445.5 229,-445.5"/>
<text text-anchor="start" x="236" y="-456.9" font-family="Arial" font-size="14.00" fill="#000000">id    </text>
<text text-anchor="start" x="281.094" y="-456.9" font-family="Arial" font-size="14.00" fill="#666666">[int unsigned]</text>
<polygon fill="none" stroke="#000000" points="229,-415.5 229,-445.5 439,-445.5 439,-415.5 229,-415.5"/>
<text text-anchor="start" x="236" y="-426.9" font-family="Arial" font-size="14.00" fill="#000000">tag_id    </text>
<text text-anchor="start" x="308.3324" y="-426.9" font-family="Arial" font-size="14.00" fill="#666666">[int unsigned]</text>
<polygon fill="none" stroke="#000000" points="229,-385.5 229,-415.5 439,-415.5 439,-385.5 229,-385.5"/>
<text text-anchor="start" x="236" y="-396.9" font-family="Arial" font-size="14.00" fill="#000000">post_id    </text>
<text text-anchor="start" x="315.3324" y="-396.9" font-family="Arial" font-size="14.00" fill="#666666">[int unsigned]</text>
<polygon fill="none" stroke="#000000" points="229,-355.5 229,-385.5 439,-385.5 439,-355.5 229,-355.5"/>
<text text-anchor="start" x="236" y="-366.9" font-family="Arial" font-size="14.00" fill="#000000">created_at    </text>
<text text-anchor="start" x="336.3422" y="-366.9" font-family="Arial" font-size="14.00" fill="#666666">[datetime]</text>
<polygon fill="none" stroke="#000000" points="229,-325.5 229,-355.5 439,-355.5 439,-325.5 229,-325.5"/>
<text text-anchor="start" x="236" y="-336.9" font-family="Arial" font-size="14.00" fill="#000000">updated_at    </text>
<text text-anchor="start" x="340.2468" y="-336.9" font-family="Arial" font-size="14.00" fill="#666666">[datetime]</text>
</g>
<!-- tag_post&#45;&gt;tags -->
<g id="edge1" class="edge">
<title>tag_post:tag_id&#45;&gt;tags:id</title>
<path fill="none" stroke="#000000" d="M219.0339,-429.6527C166.0898,-420.0241 189.4234,-330.6869 229,-283 284.4466,-216.1909 365.5534,-313.8091 421,-247 448.3904,-213.9966 463.8889,-150.5 421,-150.5"/>
<polygon fill="#000000" stroke="#000000" points="219.0359,-429.6528 228.6188,-434.9838 224.018,-430.0764 229,-430.5 229,-430.5 229,-430.5 224.018,-430.0764 229.3812,-426.0162 219.0359,-429.6528 219.0359,-429.6528"/>
<text text-anchor="start" x="7.495" y="-440.5" font-family="Arial" font-size="10.00" fill="#000000">FOREIGN KEY (tag_id) REFERENCES tags (id)</text>
</g>
</g>
</svg>
