<?xml version="1.0" encoding="UTF-8" standalone="no"?>
<!DOCTYPE svg PUBLIC "-//W3C//DTD SVG 1.1//EN"
 "http://www.w3.org/Graphics/SVG/1.1/DTD/svg11.dtd">
<!-- Generated by graphviz version 2.40.1 (20161225.0304)
 -->
<!-- Title: tags Pages: 1 -->
<svg width="636pt" height="562pt"
 viewBox="0.00 0.00 636.00 562.00" xmlns="http://www.w3.org/2000/svg" xmlns:xlink="http://www.w3.org/1999/xlink">
<g id="graph0" class="graph" transform="scale(1 1) rotate(0) translate(4 558)">
<title>tags</title>
<polygon fill="#ffffff" stroke="transparent" points="-4,4 -4,-558 632,-558 632,4 -4,4"/>
<!-- tags -->
<g id="node1" class="node">
<title>tags</title>
<polygon fill="#efefef" stroke="transparent" points="258,-165.5 258,-200.5 407,-200.5 407,-165.5 258,-165.5"/>
<polygon fill="none" stroke="#000000" points="258,-165.5 258,-200.5 407,-200.5 407,-165.5 258,-165.5"/>
<text text-anchor="start" x="266.8658" y="-178.3" font-family="Arial Bold" font-size="18.00" fill="#000000">tags</text>
<text text-anchor="start" x="300.8804" y="-178.3" font-family="Arial" font-size="14.00" fill="#000000"> </text>
<text text-anchor="start" x="304.771" y="-178.3" font-family="Arial" font-size="14.00" fill="#666666">[BASE TABLE]</text>
<polygon fill="none" stroke="#000000" points="258,-135.5 258,-165.5 407,-165.5 407,-135.5 258,-135.5"/>
<text text-anchor="start" x="265" y="-146.9" font-family="Arial" font-size="14.00" fill="#000000">id </text>
<text text-anchor="start" x="279.7798" y="-146.9" font-family="Arial" font-size="14.00" fill="#666666">[int unsigned]</text>
<polygon fill="none" stroke="#000000" points="258,-105.5 258,-135.5 407,-135.5 407,-105.5 258,-105.5"/>
<text text-anchor="start" x="265" y="-116.9" font-family="Arial" font-size="14.00" fill="#000000">name </text>
<text text-anchor="start" x="303.899" y="-116.9" font-family="Arial" font-size="14.00" fill="#666666">[varchar(255)]</text>
<polygon fill="none" stroke="#000000" points="258,-75.5 258,-105.5 407,-105.5 407,-75.5 258,-75.5"/>
<text text-anchor="start" x="265" y="-86.9" font-family="Arial" font-size="14.00" fill="#000000">created_at </text>
<text text-anchor="start" x="335.028" y="-86.9" font-family="Arial" font-size="14.00" fill="#666666">[datetime]</text>
<polygon fill="none" stroke="#000000" points="258,-45.5 258,-75.5 407,-75.5 407,-45.5 258,-45.5"/>
<text text-anchor="start" x="264.8037" y="-56.9" font-family="Arial" font-size="14.00" fill="#000000">updated_at </text>
<text text-anchor="start" x="338.7363" y="-56.9" font-family="Arial" font-size="14.00" fill="#666666">[datetime]</text>
<polygon fill="none" stroke="#000000" stroke-width="3" points="256,-44.5 256,-202.5 408,-202.5 408,-44.5 256,-44.5"/>
</g>
<!-- archived_tag_post -->
<g id="node2" class="node">
<title>archived_tag_post</title>
<polygon fill="#efefef" stroke="transparent" points="43,-475.5 43,-510.5 301,-510.5 301,-475.5 43,-475.5"/>
<polygon fill="none" stroke="#000000" points="43,-475.5 43,-510.5 301,-510.5 301,-475.5 43,-475.5"/>
<text text-anchor="start" x="49.8467" y="-488.3" font-family="Arial Bold" font-size="18.00" fill="#000000">archived_tag_post</text>
<text text-anchor="start" x="196.8995" y="-488.3" font-family="Arial" font-size="14.00" fill="#000000"> </text>
<text text-anchor="start" x="200.7901" y="-488.3" font-family="Arial" font-size="14.00" fill="#666666">[BASE TABLE]</text>
<polygon fill="none" stroke="#000000" points="43,-445.5 43,-475.5 301,-475.5 301,-445.5 43,-445.5"/>
<text text-anchor="start" x="50" y="-456.9" font-family="Arial" font-size="14.00" fill="#000000">id </text>
<text text-anchor="start" x="64.7798" y="-456.9" font-family="Arial" font-size="14.00" fill="#666666">[int unsigned]</text>
<polygon fill="none" stroke="#000000" points="43,-415.5 43,-445.5 301,-445.5 301,-415.5 43,-415.5"/>
<text text-anchor="start" x="50" y="-426.9" font-family="Arial" font-size="14.00" fill="#000000">tag_id </text>
<text text-anchor="start" x="92.0182" y="-426.9" font-family="Arial" font-size="14.00" fill="#666666">[int unsigned]</text>
<polygon fill="none" stroke="#000000" points="43,-385.5 43,-415.5 301,-415.5 301,-385.5 43,-385.5"/>
<text text-anchor="start" x="50" y="-396.9" font-family="Arial" font-size="14.00" fill="#000000">archived_post_id </text>
<text text-anchor="start" x="159.6984" y="-396.9" font-family="Arial" font-size="14.00" fill="#666666">[int unsigned]</text>
<polygon fill="none" stroke="#000000" points="43,-355.5 43,-385.5 301,-385.5 301,-355.5 43,-355.5"/>
<text text-anchor="start" x="50" y="-366.9" font-family="Arial" font-size="14.00" fill="#000000">created_at </text>
<text text-anchor="start" x="120.028" y="-366.9" font-family="Arial" font-size="14.00" fill="#666666">[datetime]</text>
<polygon fill="none" stroke="#000000" points="43,-325.5 43,-355.5 301,-355.5 301,-325.5 43,-325.5"/>
<text text-anchor="start" x="50" y="-336.9" font-family="Arial" font-size="14.00" fill="#000000">updated_at </text>
<text text-anchor="start" x="123.9326" y="-336.9" font-family="Arial" font-size="14.00" fill="#666666">[datetime]</text>
</g>
<!-- archived_tag_post&#45;&gt;tags -->
<g id="edge1" class="edge">
<title>archived_tag_post:tag_id&#45;&gt;tags:id</title>
<path fill="none" stroke="#000000" d="M311.165,-429.6733C362.3039,-420.6118 327.1669,-339.0338 301,-283 290.4539,-260.4165 268.5461,-269.5835 258,-247 239.8528,-208.1395 215.1111,-150.5 258,-150.5"/>
<polygon fill="#000000" stroke="#000000" points="310.9671,-429.6893 300.6352,-426.0148 305.9835,-430.0946 301,-430.5 301,-430.5 301,-430.5 305.9835,-430.0946 301.3648,-434.9852 310.9671,-429.6893 310.9671,-429.6893"/>
<text text-anchor="start" x="308.495" y="-440.5" font-family="Arial" font-size="10.00" fill="#000000">FOREIGN KEY (tag_id) REFERENCES tags (id)</text>
</g>
<!-- tag_post -->
<g id="node3" class="node">
<title>tag_post</title>
<polygon fill="#efefef" stroke="transparent" points="405,-475.5 405,-510.5 585,-510.5 585,-475.5 405,-475.5"/>
<polygon fill="none" stroke="#000000" points="405,-475.5 405,-510.5 585,-510.5 585,-475.5 405,-475.5"/>
<text text-anchor="start" x="411.8554" y="-488.3" font-family="Arial Bold" font-size="18.00" fill="#000000">tag_post</text>
<text text-anchor="start" x="480.8908" y="-488.3" font-family="Arial" font-size="14.00" fill="#000000"> </text>
<text text-anchor="start" x="484.7814" y="-488.3" font-family="Arial" font-size="14.00" fill="#666666">[BASE TABLE]</text>
<polygon fill="none" stroke="#000000" points="405,-445.5 405,-475.5 585,-475.5 585,-445.5 405,-445.5"/>
<text text-anchor="start" x="412" y="-456.9" font-family="Arial" font-size="14.00" fill="#000000">id </text>
<text text-anchor="start" x="426.7798" y="-456.9" font-family="Arial" font-size="14.00" fill="#666666">[int unsigned]</text>
<polygon fill="none" stroke="#000000" points="405,-415.5 405,-445.5 585,-445.5 585,-415.5 405,-415.5"/>
<text text-anchor="start" x="412" y="-426.9" font-family="Arial" font-size="14.00" fill="#000000">tag_id </text>
<text text-anchor="start" x="454.0182" y="-426.9" font-family="Arial" font-size="14.00" fill="#666666">[int unsigned]</text>
<polygon fill="none" stroke="#000000" points="405,-385.5 405,-415.5 585,-415.5 585,-385.5 405,-385.5"/>
<text text-anchor="start" x="412" y="-396.9" font-family="Arial" font-size="14.00" fill="#000000">post_id </text>
<text text-anchor="start" x="461.0182" y="-396.9" font-family="Arial" font-size="14.00" fill="#666666">[int unsigned]</text>
<polygon fill="none" stroke="#000000" points="405,-355.5 405,-385.5 585,-385.5 585,-355.5 405,-355.5"/>
<text text-anchor="start" x="412" y="-366.9" font-family="Arial" font-size="14.00" fill="#000000">created_at </text>
<text text-anchor="start" x="482.028" y="-366.9" font-family="Arial" font-size="14.00" fill="#666666">[datetime]</text>
<polygon fill="none" stroke="#000000" points="405,-325.5 405,-355.5 585,-355.5 585,-325.5 405,-325.5"/>
<text text-anchor="start" x="412" y="-336.9" font-family="Arial" font-size="14.00" fill="#000000">updated_at </text>
<text text-anchor="start" x="485.9326" y="-336.9" font-family="Arial" font-size="14.00" fill="#666666">[datetime]</text>
</g>
<!-- tag_post&#45;&gt;tags -->
<g id="edge2" class="edge">
<title>tag_post:tag_id&#45;&gt;tags:id</title>
<path fill="none" stroke="#000000" d="M394.9725,-429.8938C330.5842,-421.3798 404.8387,-324.8666 407,-247 408.19,-204.1276 449.8889,-150.5 407,-150.5"/>
<polygon fill="#000000" stroke="#000000" points="395.0182,-429.8964 404.7284,-434.9918 400.0091,-430.1982 405,-430.5 405,-430.5 405,-430.5 400.0091,-430.1982 405.2716,-426.0082 395.0182,-429.8964 395.0182,-429.8964"/>
<text text-anchor="start" x="355.245" y="-414.5" font-family="Arial" font-size="10.00" fill="#000000">FOREIGN KEY (tag_id) REFERENCES tags (id)</text>
</g>
</g>
</svg>
